<svg width="144" height="146" viewBox="0 0 144 146" fill="none" xmlns="http://www.w3.org/2000/svg">
<g filter="url(#filter0_dd_1_412)">
<rect x="20" y="21" width="104" height="104" rx="52" fill="#272822" fill-opacity="0.9" shape-rendering="crispEdges"/>
<rect x="20" y="21" width="104" height="104" rx="52" stroke="#A6E22E" stroke-width="3" shape-rendering="crispEdges"/>
<path d="M84.5 77H88.6667V81H92.8333V85H97V89H92.8333V93H88.6667V97H84.5V93H80.3333V89H76.1667V85H67.8333V89H63.6667V93H59.5V97H55.3333V93H51.1667V89H47V85H51.1667V81H55.3333V77H59.5V69H55.3333V65H51.1667V61H47V57H51.1667V53H55.3333V49H59.5V53H63.6667V57H67.8333V61H76.1667V57H80.3333V53H84.5V49H88.6667V53H92.8333V57H97V61H92.8333V65H88.6667V69H84.5V77Z" fill="#A6E22E"/>
</g>
<defs>
<filter id="filter0_dd_1_412" x="-0.5" y="0.5" width="145" height="145" filterUnits="userSpaceOnUse" color-interpolation-filters="sRGB">
<feFlood flood-opacity="0" result="BackgroundImageFix"/>
<feColorMatrix in="SourceAlpha" type="matrix" values="0 0 0 0 0 0 0 0 0 0 0 0 0 0 0 0 0 0 127 0" result="hardAlpha"/>
<feMorphology radius="4" operator="dilate" in="SourceAlpha" result="effect1_dropShadow_1_412"/>
<feOffset/>
<feGaussianBlur stdDeviation="7.5"/>
<feComposite in2="hardAlpha" operator="out"/>
<feColorMatrix type="matrix" values="0 0 0 0 0.972549 0 0 0 0 0.972549 0 0 0 0 0.94902 0 0 0 0.6 0"/>
<feBlend mode="normal" in2="BackgroundImageFix" result="effect1_dropShadow_1_412"/>
<feColorMatrix in="SourceAlpha" type="matrix" values="0 0 0 0 0 0 0 0 0 0 0 0 0 0 0 0 0 0 127 0" result="hardAlpha"/>
<feOffset dx="-4" dy="4"/>
<feComposite in2="hardAlpha" operator="out"/>
<feColorMatrix type="matrix" values="0 0 0 0 0 0 0 0 0 0 0 0 0 0 0 0 0 0 0.5 0"/>
<feBlend mode="normal" in2="effect1_dropShadow_1_412" result="effect2_dropShadow_1_412"/>
<feBlend mode="normal" in="SourceGraphic" in2="effect2_dropShadow_1_412" result="shape"/>
</filter>
</defs>
</svg>
