<svg width="403" height="184" viewBox="0 0 403 184" fill="none" xmlns="http://www.w3.org/2000/svg">
<g filter="url(#filter0_dd_8_65)">
<rect x="21" y="21" width="361" height="142" rx="24" fill="#272822" fill-opacity="0.9" shape-rendering="crispEdges"/>
<rect x="21" y="21" width="361" height="142" rx="24" stroke="#FD971F" stroke-width="3" shape-rendering="crispEdges"/>
<path d="M45.06 67.2C44.1267 67.2 43.3067 67.0267 42.6 66.68C41.9067 66.32 41.3667 65.82 40.98 65.18C40.5933 64.5267 40.4 63.76 40.4 62.88V60.12C40.4 59.2267 40.5933 58.46 40.98 57.82C41.3667 57.18 41.9067 56.6867 42.6 56.34C43.3067 55.98 44.1267 55.8 45.06 55.8C46.4467 55.8 47.5533 56.16 48.38 56.88C49.2067 57.5867 49.64 58.5533 49.68 59.78H47.18C47.14 59.2067 46.9333 58.7667 46.56 58.46C46.2 58.14 45.7 57.98 45.06 57.98C44.3933 57.98 43.8667 58.1667 43.48 58.54C43.0933 58.9 42.9 59.42 42.9 60.1V62.88C42.9 63.56 43.0933 64.0867 43.48 64.46C43.8667 64.8333 44.3933 65.02 45.06 65.02C45.7 65.02 46.2 64.8667 46.56 64.56C46.9333 64.24 47.14 63.7933 47.18 63.22H49.68C49.64 64.4467 49.2067 65.42 48.38 66.14C47.5533 66.8467 46.4467 67.2 45.06 67.2ZM52.8722 67V56H55.2322V58.1H55.8522L55.1122 59.38C55.1122 58.1933 55.3789 57.3 55.9122 56.7C56.4455 56.1 57.2322 55.8 58.2722 55.8C59.4589 55.8 60.3922 56.1667 61.0722 56.9C61.7522 57.6333 62.0922 58.6467 62.0922 59.94V60.74H59.4722V60.12C59.4722 59.4133 59.2855 58.8667 58.9122 58.48C58.5522 58.0933 58.0522 57.9 57.4122 57.9C56.7589 57.9 56.2522 58.0933 55.8922 58.48C55.5455 58.8667 55.3722 59.4133 55.3722 60.12V67H52.8722ZM69.0044 67.2C68.071 67.2 67.2577 67.02 66.5644 66.66C65.871 66.3 65.331 65.8 64.9444 65.16C64.571 64.5067 64.3844 63.7467 64.3844 62.88V60.12C64.3844 59.2533 64.571 58.5 64.9444 57.86C65.331 57.2067 65.871 56.7 66.5644 56.34C67.2577 55.98 68.071 55.8 69.0044 55.8C69.9244 55.8 70.7244 55.98 71.4044 56.34C72.0977 56.7 72.631 57.2067 73.0044 57.86C73.391 58.5 73.5844 59.2533 73.5844 60.12V62.1H66.8044V62.88C66.8044 63.6533 66.991 64.24 67.3644 64.64C67.7377 65.0267 68.291 65.22 69.0244 65.22C69.5844 65.22 70.0377 65.1267 70.3844 64.94C70.731 64.74 70.951 64.4533 71.0444 64.08H73.5044C73.3177 65.0267 72.811 65.7867 71.9844 66.36C71.171 66.92 70.1777 67.2 69.0044 67.2ZM71.1644 60.7V60.1C71.1644 59.34 70.9844 58.76 70.6244 58.36C70.2644 57.9467 69.7244 57.74 69.0044 57.74C68.2844 57.74 67.7377 57.9467 67.3644 58.36C66.991 58.7733 66.8044 59.36 66.8044 60.12V60.54L71.3444 60.5L71.1644 60.7ZM79.7566 67.2C78.6232 67.2 77.7299 66.9 77.0766 66.3C76.4232 65.7 76.0966 64.8933 76.0966 63.88C76.0966 62.8 76.4566 61.9667 77.1766 61.38C77.8966 60.7933 78.9166 60.5 80.2366 60.5H82.9766V59.56C82.9766 59.0267 82.8032 58.6133 82.4566 58.32C82.1099 58.0133 81.6366 57.86 81.0366 57.86C80.4899 57.86 80.0366 57.98 79.6766 58.22C79.3166 58.46 79.1032 58.7867 79.0366 59.2H76.5966C76.7166 58.16 77.1832 57.3333 77.9966 56.72C78.8099 56.1067 79.8499 55.8 81.1166 55.8C82.4632 55.8 83.5232 56.14 84.2966 56.82C85.0832 57.4867 85.4766 58.3933 85.4766 59.54V67H83.0566V65.08H82.6566L83.0566 64.54C83.0566 65.3533 82.7566 66 82.1566 66.48C81.5566 66.96 80.7566 67.2 79.7566 67.2ZM80.5766 65.32C81.2832 65.32 81.8566 65.14 82.2966 64.78C82.7499 64.42 82.9766 63.9533 82.9766 63.38V62.04H80.2766C79.7699 62.04 79.3632 62.1867 79.0566 62.48C78.7499 62.7733 78.5966 63.16 78.5966 63.64C78.5966 64.16 78.7699 64.5733 79.1166 64.88C79.4766 65.1733 79.9632 65.32 80.5766 65.32ZM94.1688 67C93.1154 67 92.2888 66.7067 91.6888 66.12C91.1021 65.5333 90.8088 64.7267 90.8088 63.7V58.26H87.8288V56H90.8088V52.9H93.3288V56H97.5488V58.26H93.3288V63.7C93.3288 64.3933 93.6688 64.74 94.3488 64.74H97.3488V67H94.1688ZM100.481 67V64.72H104.321V58.26H100.981V56H106.721V64.72H110.121V67H100.481ZM105.321 54.16C104.814 54.16 104.414 54.0333 104.121 53.78C103.828 53.5133 103.681 53.16 103.681 52.72C103.681 52.28 103.828 51.9333 104.121 51.68C104.414 51.4133 104.814 51.28 105.321 51.28C105.828 51.28 106.228 51.4133 106.521 51.68C106.814 51.9333 106.961 52.28 106.961 52.72C106.961 53.16 106.814 53.5133 106.521 53.78C106.228 54.0333 105.828 54.16 105.321 54.16ZM115.353 67L111.733 56H114.293L116.393 62.68C116.513 63.08 116.626 63.4933 116.733 63.92C116.853 64.3467 116.94 64.6867 116.993 64.94C117.06 64.6867 117.146 64.3467 117.253 63.92C117.36 63.4933 117.466 63.0867 117.573 62.7L119.633 56H122.173L118.573 67H115.353ZM128.965 67.2C128.032 67.2 127.219 67.02 126.525 66.66C125.832 66.3 125.292 65.8 124.905 65.16C124.532 64.5067 124.345 63.7467 124.345 62.88V60.12C124.345 59.2533 124.532 58.5 124.905 57.86C125.292 57.2067 125.832 56.7 126.525 56.34C127.219 55.98 128.032 55.8 128.965 55.8C129.885 55.8 130.685 55.98 131.365 56.34C132.059 56.7 132.592 57.2067 132.965 57.86C133.352 58.5 133.545 59.2533 133.545 60.12V62.1H126.765V62.88C126.765 63.6533 126.952 64.24 127.325 64.64C127.699 65.0267 128.252 65.22 128.985 65.22C129.545 65.22 129.999 65.1267 130.345 64.94C130.692 64.74 130.912 64.4533 131.005 64.08H133.465C133.279 65.0267 132.772 65.7867 131.945 66.36C131.132 66.92 130.139 67.2 128.965 67.2ZM131.125 60.7V60.1C131.125 59.34 130.945 58.76 130.585 58.36C130.225 57.9467 129.685 57.74 128.965 57.74C128.245 57.74 127.699 57.9467 127.325 58.36C126.952 58.7733 126.765 59.36 126.765 60.12V60.54L131.305 60.5L131.125 60.7ZM152.93 67.2C151.53 67.2 150.43 66.8133 149.63 66.04C148.83 65.2533 148.43 64.1867 148.43 62.84V56H150.93V62.82C150.93 63.5267 151.103 64.0733 151.45 64.46C151.796 64.8333 152.29 65.02 152.93 65.02C153.556 65.02 154.043 64.8333 154.39 64.46C154.75 64.0733 154.93 63.5267 154.93 62.82V56H157.43V62.84C157.43 64.1867 157.023 65.2533 156.21 66.04C155.396 66.8133 154.303 67.2 152.93 67.2ZM160.462 67V56H162.902V58.1H163.582L162.902 58.68C162.902 57.7733 163.162 57.0667 163.682 56.56C164.215 56.0533 164.942 55.8 165.862 55.8C166.942 55.8 167.802 56.16 168.442 56.88C169.095 57.6 169.422 58.5667 169.422 59.78V67H166.922V60.04C166.922 59.3733 166.749 58.86 166.402 58.5C166.055 58.14 165.569 57.96 164.942 57.96C164.329 57.96 163.842 58.1467 163.482 58.52C163.135 58.8933 162.962 59.4267 162.962 60.12V67H160.462ZM172.434 67V64.72H176.274V58.26H172.934V56H178.674V64.72H182.074V67H172.434ZM177.274 54.16C176.767 54.16 176.367 54.0333 176.074 53.78C175.781 53.5133 175.634 53.16 175.634 52.72C175.634 52.28 175.781 51.9333 176.074 51.68C176.367 51.4133 176.767 51.28 177.274 51.28C177.781 51.28 178.181 51.4133 178.474 51.68C178.767 51.9333 178.914 52.28 178.914 52.72C178.914 53.16 178.767 53.5133 178.474 53.78C178.181 54.0333 177.781 54.16 177.274 54.16ZM187.306 67L183.686 56H186.246L188.346 62.68C188.466 63.08 188.58 63.4933 188.686 63.92C188.806 64.3467 188.893 64.6867 188.946 64.94C189.013 64.6867 189.1 64.3467 189.206 63.92C189.313 63.4933 189.42 63.0867 189.526 62.7L191.586 56H194.126L190.526 67H187.306ZM200.918 67.2C199.985 67.2 199.172 67.02 198.478 66.66C197.785 66.3 197.245 65.8 196.858 65.16C196.485 64.5067 196.298 63.7467 196.298 62.88V60.12C196.298 59.2533 196.485 58.5 196.858 57.86C197.245 57.2067 197.785 56.7 198.478 56.34C199.172 55.98 199.985 55.8 200.918 55.8C201.838 55.8 202.638 55.98 203.318 56.34C204.012 56.7 204.545 57.2067 204.918 57.86C205.305 58.5 205.498 59.2533 205.498 60.12V62.1H198.718V62.88C198.718 63.6533 198.905 64.24 199.278 64.64C199.652 65.0267 200.205 65.22 200.938 65.22C201.498 65.22 201.952 65.1267 202.298 64.94C202.645 64.74 202.865 64.4533 202.958 64.08H205.418C205.232 65.0267 204.725 65.7867 203.898 66.36C203.085 66.92 202.092 67.2 200.918 67.2ZM203.078 60.7V60.1C203.078 59.34 202.898 58.76 202.538 58.36C202.178 57.9467 201.638 57.74 200.918 57.74C200.198 57.74 199.652 57.9467 199.278 58.36C198.905 58.7733 198.718 59.36 198.718 60.12V60.54L203.258 60.5L203.078 60.7ZM208.771 67V56H211.131V58.1H211.751L211.011 59.38C211.011 58.1933 211.277 57.3 211.811 56.7C212.344 56.1 213.131 55.8 214.171 55.8C215.357 55.8 216.291 56.1667 216.971 56.9C217.651 57.6333 217.991 58.6467 217.991 59.94V60.74H215.371V60.12C215.371 59.4133 215.184 58.8667 214.811 58.48C214.451 58.0933 213.951 57.9 213.311 57.9C212.657 57.9 212.151 58.0933 211.791 58.48C211.444 58.8667 211.271 59.4133 211.271 60.12V67H208.771ZM224.463 67.18C223.623 67.18 222.889 67.0467 222.263 66.78C221.636 66.5133 221.143 66.1467 220.783 65.68C220.436 65.2 220.249 64.64 220.223 64H222.723C222.749 64.3467 222.916 64.6267 223.223 64.84C223.543 65.0533 223.956 65.16 224.463 65.16H225.343C225.956 65.16 226.416 65.04 226.723 64.8C227.029 64.56 227.183 64.2333 227.183 63.82C227.183 63.4333 227.043 63.1333 226.763 62.92C226.496 62.6933 226.076 62.5467 225.503 62.48L224.143 62.28C222.889 62.1067 221.969 61.7733 221.383 61.28C220.796 60.7867 220.503 60.0467 220.503 59.06C220.503 58.0333 220.849 57.24 221.543 56.68C222.236 56.1067 223.256 55.82 224.603 55.82H225.363C226.589 55.82 227.569 56.0933 228.303 56.64C229.036 57.1867 229.429 57.92 229.483 58.84H226.983C226.943 58.5467 226.776 58.3067 226.483 58.12C226.203 57.9333 225.829 57.84 225.363 57.84H224.603C224.029 57.84 223.609 57.9467 223.343 58.16C223.089 58.36 222.963 58.66 222.963 59.06C222.963 59.4333 223.076 59.7133 223.303 59.9C223.529 60.0733 223.896 60.2 224.403 60.28L225.823 60.48C227.129 60.6667 228.089 61.02 228.703 61.54C229.329 62.0467 229.643 62.8 229.643 63.8C229.643 64.8667 229.276 65.7 228.543 66.3C227.823 66.8867 226.756 67.18 225.343 67.18H224.463ZM236.895 67.2C235.962 67.2 235.148 67.02 234.455 66.66C233.762 66.3 233.222 65.8 232.835 65.16C232.462 64.5067 232.275 63.7467 232.275 62.88V60.12C232.275 59.2533 232.462 58.5 232.835 57.86C233.222 57.2067 233.762 56.7 234.455 56.34C235.148 55.98 235.962 55.8 236.895 55.8C237.815 55.8 238.615 55.98 239.295 56.34C239.988 56.7 240.522 57.2067 240.895 57.86C241.282 58.5 241.475 59.2533 241.475 60.12V62.1H234.695V62.88C234.695 63.6533 234.882 64.24 235.255 64.64C235.628 65.0267 236.182 65.22 236.915 65.22C237.475 65.22 237.928 65.1267 238.275 64.94C238.622 64.74 238.842 64.4533 238.935 64.08H241.395C241.208 65.0267 240.702 65.7867 239.875 66.36C239.062 66.92 238.068 67.2 236.895 67.2ZM239.055 60.7V60.1C239.055 59.34 238.875 58.76 238.515 58.36C238.155 57.9467 237.615 57.74 236.895 57.74C236.175 57.74 235.628 57.9467 235.255 58.36C234.882 58.7733 234.695 59.36 234.695 60.12V60.54L239.235 60.5L239.055 60.7Z" fill="#FFAA00"/>
<path d="M47.4027 99.57C46.9174 99.57 46.5161 99.4113 46.1987 99.094C45.8814 98.7767 45.7227 98.3753 45.7227 97.89C45.7227 97.3953 45.8814 96.994 46.1987 96.686C46.5161 96.3687 46.9174 96.21 47.4027 96.21C47.8974 96.21 48.2987 96.3687 48.6067 96.686C48.9241 96.994 49.0827 97.3953 49.0827 97.89C49.0827 98.3753 48.9241 98.7767 48.6067 99.094C48.2987 99.4113 47.8974 99.57 47.4027 99.57ZM60.056 103.14C59.44 103.14 58.9033 103.023 58.446 102.79C57.998 102.557 57.648 102.221 57.396 101.782C57.1533 101.334 57.032 100.807 57.032 100.2V95.58C57.032 94.964 57.1533 94.4367 57.396 93.998C57.648 93.5593 57.998 93.2233 58.446 92.99C58.9033 92.7567 59.44 92.64 60.056 92.64C60.672 92.64 61.204 92.7613 61.652 93.004C62.1 93.2373 62.4453 93.5733 62.688 94.012C62.9307 94.4507 63.052 94.9733 63.052 95.58H61.792C61.792 95.0013 61.638 94.558 61.33 94.25C61.0313 93.9327 60.6067 93.774 60.056 93.774C59.5053 93.774 59.0713 93.928 58.754 94.236C58.446 94.544 58.292 94.9873 58.292 95.566V100.2C58.292 100.779 58.446 101.227 58.754 101.544C59.0713 101.852 59.5053 102.006 60.056 102.006C60.6067 102.006 61.0313 101.852 61.33 101.544C61.638 101.227 61.792 100.779 61.792 100.2H63.052C63.052 100.797 62.9307 101.32 62.688 101.768C62.4453 102.207 62.1 102.547 61.652 102.79C61.204 103.023 60.672 103.14 60.056 103.14ZM69.4445 103C68.9965 103 68.6045 102.911 68.2685 102.734C67.9325 102.557 67.6712 102.305 67.4845 101.978C67.2979 101.651 67.2045 101.269 67.2045 100.83V93.928H64.6145V92.78H68.4645V100.83C68.4645 101.147 68.5532 101.399 68.7305 101.586C68.9079 101.763 69.1459 101.852 69.4445 101.852H71.8945V103H69.4445ZM73.7791 103V101.852H76.5091V96.448H74.1291V95.3H77.7691V101.852H80.3591V103H73.7791ZM76.9991 93.914C76.6911 93.914 76.4484 93.8347 76.2711 93.676C76.0937 93.5173 76.0051 93.3027 76.0051 93.032C76.0051 92.752 76.0937 92.5327 76.2711 92.374C76.4484 92.206 76.6911 92.122 76.9991 92.122C77.3071 92.122 77.5497 92.206 77.7271 92.374C77.9044 92.5327 77.9931 92.752 77.9931 93.032C77.9931 93.3027 77.9044 93.5173 77.7271 93.676C77.5497 93.8347 77.3071 93.914 76.9991 93.914ZM85.2396 103.14C84.6236 103.14 84.0823 103.023 83.6156 102.79C83.1583 102.557 82.8036 102.221 82.5516 101.782C82.2996 101.334 82.1736 100.807 82.1736 100.2V98.1C82.1736 97.484 82.2996 96.9567 82.5516 96.518C82.8036 96.0793 83.1583 95.7433 83.6156 95.51C84.0823 95.2767 84.6236 95.16 85.2396 95.16C86.1263 95.16 86.8403 95.398 87.3816 95.874C87.9229 96.35 88.2076 96.9987 88.2356 97.82H86.9756C86.9476 97.3253 86.7796 96.9473 86.4716 96.686C86.1729 96.4153 85.7623 96.28 85.2396 96.28C84.6889 96.28 84.2503 96.4387 83.9236 96.756C83.5969 97.064 83.4336 97.5073 83.4336 98.086V100.2C83.4336 100.779 83.5969 101.227 83.9236 101.544C84.2503 101.861 84.6889 102.02 85.2396 102.02C85.7623 102.02 86.1729 101.885 86.4716 101.614C86.7796 101.343 86.9476 100.965 86.9756 100.48H88.2356C88.2076 101.301 87.9229 101.95 87.3816 102.426C86.8403 102.902 86.1263 103.14 85.2396 103.14ZM90.7081 103V92.78H91.9681V98.478H93.4521L95.6921 95.3H97.1341L94.5441 98.968L97.1761 103H95.7061L93.4661 99.57H91.9681V103H90.7081ZM111.207 103C110.545 103 110.027 102.823 109.653 102.468C109.289 102.113 109.107 101.614 109.107 100.97V96.448H106.937V95.3H109.107V93.13H110.367V95.3H113.447V96.448H110.367V100.97C110.367 101.558 110.647 101.852 111.207 101.852H113.307V103H111.207ZM115.85 103V92.78H117.11V95.3V96.77H117.376L117.11 97.064C117.11 96.4573 117.292 95.9907 117.656 95.664C118.02 95.328 118.524 95.16 119.168 95.16C119.942 95.16 120.558 95.398 121.016 95.874C121.473 96.35 121.702 96.9987 121.702 97.82V103H120.442V97.96C120.442 97.4093 120.292 96.9847 119.994 96.686C119.704 96.378 119.308 96.224 118.804 96.224C118.281 96.224 117.866 96.3873 117.558 96.714C117.259 97.0407 117.11 97.5027 117.11 98.1V103H115.85ZM127.156 103.14C126.55 103.14 126.018 103.019 125.56 102.776C125.112 102.533 124.762 102.193 124.51 101.754C124.268 101.306 124.146 100.788 124.146 100.2V98.1C124.146 97.5027 124.268 96.9847 124.51 96.546C124.762 96.1073 125.112 95.7667 125.56 95.524C126.018 95.2813 126.55 95.16 127.156 95.16C127.763 95.16 128.29 95.2813 128.738 95.524C129.196 95.7667 129.546 96.1073 129.788 96.546C130.04 96.9847 130.166 97.5027 130.166 98.1V99.458H125.378V100.2C125.378 100.807 125.532 101.273 125.84 101.6C126.148 101.917 126.587 102.076 127.156 102.076C127.642 102.076 128.034 101.992 128.332 101.824C128.631 101.647 128.813 101.385 128.878 101.04H130.138C130.054 101.684 129.737 102.197 129.186 102.58C128.645 102.953 127.968 103.14 127.156 103.14ZM128.934 98.618V98.1C128.934 97.4933 128.78 97.0267 128.472 96.7C128.174 96.3733 127.735 96.21 127.156 96.21C126.587 96.21 126.148 96.3733 125.84 96.7C125.532 97.0267 125.378 97.4933 125.378 98.1V98.506H129.032L128.934 98.618ZM143.707 103.112C143.185 103.112 142.727 103.033 142.335 102.874C141.953 102.706 141.645 102.473 141.411 102.174C141.187 101.875 141.052 101.521 141.005 101.11H142.265C142.321 101.381 142.471 101.595 142.713 101.754C142.965 101.913 143.297 101.992 143.707 101.992H144.295C144.79 101.992 145.159 101.894 145.401 101.698C145.644 101.493 145.765 101.222 145.765 100.886C145.765 100.559 145.653 100.303 145.429 100.116C145.215 99.92 144.893 99.7893 144.463 99.724L143.427 99.556C142.671 99.4253 142.107 99.192 141.733 98.856C141.369 98.5107 141.187 98.0113 141.187 97.358C141.187 96.6673 141.407 96.1353 141.845 95.762C142.284 95.3793 142.942 95.188 143.819 95.188H144.351C145.089 95.188 145.681 95.3607 146.129 95.706C146.577 96.0513 146.848 96.518 146.941 97.106H145.681C145.625 96.8633 145.485 96.672 145.261 96.532C145.037 96.3827 144.734 96.308 144.351 96.308H143.819C143.343 96.308 142.993 96.3967 142.769 96.574C142.555 96.7513 142.447 97.0173 142.447 97.372C142.447 97.6893 142.541 97.9227 142.727 98.072C142.914 98.2213 143.208 98.3287 143.609 98.394L144.645 98.562C145.476 98.6927 146.078 98.9353 146.451 99.29C146.834 99.6447 147.025 100.158 147.025 100.83C147.025 101.539 146.797 102.099 146.339 102.51C145.891 102.911 145.21 103.112 144.295 103.112H143.707ZM152.326 103.14C151.439 103.14 150.73 102.879 150.198 102.356C149.666 101.824 149.4 101.105 149.4 100.2V95.3H150.66V100.2C150.66 100.779 150.809 101.231 151.108 101.558C151.407 101.875 151.813 102.034 152.326 102.034C152.849 102.034 153.259 101.875 153.558 101.558C153.866 101.231 154.02 100.779 154.02 100.2V95.3H155.28V100.2C155.28 101.105 155.009 101.824 154.468 102.356C153.927 102.879 153.213 103.14 152.326 103.14ZM157.822 103V95.3H159.082V96.77H159.348L159.082 97.064C159.082 96.4573 159.264 95.9907 159.628 95.664C159.992 95.328 160.496 95.16 161.14 95.16C161.915 95.16 162.531 95.398 162.988 95.874C163.446 96.35 163.674 96.9987 163.674 97.82V103H162.414V97.96C162.414 97.4093 162.265 96.9893 161.966 96.7C161.677 96.4013 161.28 96.252 160.776 96.252C160.254 96.252 159.838 96.4107 159.53 96.728C159.232 97.0453 159.082 97.5027 159.082 98.1V103H157.822ZM178.363 103C177.701 103 177.183 102.823 176.809 102.468C176.445 102.113 176.263 101.614 176.263 100.97V96.448H174.093V95.3H176.263V93.13H177.523V95.3H180.603V96.448H177.523V100.97C177.523 101.558 177.803 101.852 178.363 101.852H180.463V103H178.363ZM185.918 103.112C185.302 103.112 184.77 102.995 184.322 102.762C183.874 102.529 183.524 102.193 183.272 101.754C183.029 101.306 182.908 100.779 182.908 100.172V98.128C182.908 97.512 183.029 96.9847 183.272 96.546C183.524 96.1073 183.874 95.7713 184.322 95.538C184.77 95.3047 185.302 95.188 185.918 95.188C186.534 95.188 187.066 95.3047 187.514 95.538C187.962 95.7713 188.307 96.1073 188.55 96.546C188.802 96.9847 188.928 97.5073 188.928 98.114V100.172C188.928 100.779 188.802 101.306 188.55 101.754C188.307 102.193 187.962 102.529 187.514 102.762C187.066 102.995 186.534 103.112 185.918 103.112ZM185.918 101.992C186.469 101.992 186.898 101.838 187.206 101.53C187.514 101.222 187.668 100.769 187.668 100.172V98.128C187.668 97.5307 187.514 97.078 187.206 96.77C186.898 96.462 186.469 96.308 185.918 96.308C185.377 96.308 184.947 96.462 184.63 96.77C184.322 97.078 184.168 97.5307 184.168 98.128V100.172C184.168 100.769 184.322 101.222 184.63 101.53C184.947 101.838 185.377 101.992 185.918 101.992ZM200.061 103V95.3H201.293V96.77H201.587L201.181 97.68C201.181 96.8493 201.358 96.224 201.713 95.804C202.077 95.3747 202.614 95.16 203.323 95.16C204.135 95.16 204.779 95.4167 205.255 95.93C205.74 96.434 205.983 97.12 205.983 97.988V98.45H204.723V98.1C204.723 97.4933 204.574 97.0313 204.275 96.714C203.986 96.3873 203.57 96.224 203.029 96.224C202.497 96.224 202.077 96.3873 201.769 96.714C201.47 97.0407 201.321 97.5027 201.321 98.1V103H200.061ZM211.102 103.14C210.495 103.14 209.963 103.019 209.506 102.776C209.058 102.533 208.708 102.193 208.456 101.754C208.213 101.306 208.092 100.788 208.092 100.2V98.1C208.092 97.5027 208.213 96.9847 208.456 96.546C208.708 96.1073 209.058 95.7667 209.506 95.524C209.963 95.2813 210.495 95.16 211.102 95.16C211.708 95.16 212.236 95.2813 212.684 95.524C213.141 95.7667 213.491 96.1073 213.734 96.546C213.986 96.9847 214.112 97.5027 214.112 98.1V99.458H209.324V100.2C209.324 100.807 209.478 101.273 209.786 101.6C210.094 101.917 210.532 102.076 211.102 102.076C211.587 102.076 211.979 101.992 212.278 101.824C212.576 101.647 212.758 101.385 212.824 101.04H214.084C214 101.684 213.682 102.197 213.132 102.58C212.59 102.953 211.914 103.14 211.102 103.14ZM212.88 98.618V98.1C212.88 97.4933 212.726 97.0267 212.418 96.7C212.119 96.3733 211.68 96.21 211.102 96.21C210.532 96.21 210.094 96.3733 209.786 96.7C209.478 97.0267 209.324 97.4933 209.324 98.1V98.506H212.978L212.88 98.618ZM218.824 103.14C218.012 103.14 217.373 102.935 216.906 102.524C216.439 102.104 216.206 101.539 216.206 100.83C216.206 100.111 216.439 99.5467 216.906 99.136C217.373 98.7253 218.003 98.52 218.796 98.52H221.176V97.75C221.176 97.274 221.031 96.91 220.742 96.658C220.462 96.3967 220.061 96.266 219.538 96.266C219.081 96.266 218.698 96.364 218.39 96.56C218.082 96.7467 217.905 97.0033 217.858 97.33H216.598C216.682 96.6673 216.995 96.14 217.536 95.748C218.077 95.356 218.754 95.16 219.566 95.16C220.453 95.16 221.153 95.3887 221.666 95.846C222.179 96.3033 222.436 96.924 222.436 97.708V103H221.204V101.53H220.994L221.204 101.32C221.204 101.88 220.985 102.323 220.546 102.65C220.117 102.977 219.543 103.14 218.824 103.14ZM219.132 102.146C219.729 102.146 220.219 101.997 220.602 101.698C220.985 101.399 221.176 101.017 221.176 100.55V99.458H218.824C218.404 99.458 218.073 99.5747 217.83 99.808C217.587 100.041 217.466 100.359 217.466 100.76C217.466 101.189 217.611 101.53 217.9 101.782C218.199 102.025 218.609 102.146 219.132 102.146ZM227.443 103.14C226.677 103.14 226.057 102.883 225.581 102.37C225.114 101.857 224.881 101.161 224.881 100.284V98.03C224.881 97.1433 225.114 96.4433 225.581 95.93C226.047 95.4167 226.668 95.16 227.443 95.16C228.077 95.16 228.586 95.3327 228.969 95.678C229.351 96.0233 229.543 96.4853 229.543 97.064L229.291 96.77H229.571L229.543 95.02V92.78H230.803V103H229.543V101.53H229.291L229.543 101.236C229.543 101.824 229.351 102.291 228.969 102.636C228.586 102.972 228.077 103.14 227.443 103.14ZM227.863 102.048C228.385 102.048 228.796 101.885 229.095 101.558C229.393 101.231 229.543 100.779 229.543 100.2V98.1C229.543 97.5213 229.393 97.0687 229.095 96.742C228.796 96.4153 228.385 96.252 227.863 96.252C227.331 96.252 226.911 96.4107 226.603 96.728C226.295 97.0453 226.141 97.5027 226.141 98.1V100.2C226.141 100.797 226.295 101.255 226.603 101.572C226.911 101.889 227.331 102.048 227.863 102.048ZM244.008 103.14C243.196 103.14 242.556 102.935 242.09 102.524C241.623 102.104 241.39 101.539 241.39 100.83C241.39 100.111 241.623 99.5467 242.09 99.136C242.556 98.7253 243.186 98.52 243.98 98.52H246.36V97.75C246.36 97.274 246.215 96.91 245.926 96.658C245.646 96.3967 245.244 96.266 244.722 96.266C244.264 96.266 243.882 96.364 243.574 96.56C243.266 96.7467 243.088 97.0033 243.042 97.33H241.782C241.866 96.6673 242.178 96.14 242.72 95.748C243.261 95.356 243.938 95.16 244.75 95.16C245.636 95.16 246.336 95.3887 246.85 95.846C247.363 96.3033 247.62 96.924 247.62 97.708V103H246.388V101.53H246.178L246.388 101.32C246.388 101.88 246.168 102.323 245.73 102.65C245.3 102.977 244.726 103.14 244.008 103.14ZM244.316 102.146C244.913 102.146 245.403 101.997 245.786 101.698C246.168 101.399 246.36 101.017 246.36 100.55V99.458H244.008C243.588 99.458 243.256 99.5747 243.014 99.808C242.771 100.041 242.65 100.359 242.65 100.76C242.65 101.189 242.794 101.53 243.084 101.782C243.382 102.025 243.793 102.146 244.316 102.146ZM253.522 103.14C252.888 103.14 252.379 102.972 251.996 102.636C251.614 102.291 251.422 101.824 251.422 101.236L251.674 101.53H251.422V103H250.162V92.78H251.422V95.02L251.394 96.77H251.674L251.422 97.064C251.422 96.4853 251.614 96.0233 251.996 95.678C252.388 95.3327 252.897 95.16 253.522 95.16C254.297 95.16 254.918 95.4167 255.384 95.93C255.851 96.4433 256.084 97.1433 256.084 98.03V100.284C256.084 101.161 255.851 101.857 255.384 102.37C254.918 102.883 254.297 103.14 253.522 103.14ZM253.102 102.048C253.634 102.048 254.054 101.889 254.362 101.572C254.67 101.255 254.824 100.797 254.824 100.2V98.1C254.824 97.5027 254.67 97.0453 254.362 96.728C254.054 96.4107 253.634 96.252 253.102 96.252C252.589 96.252 252.178 96.4153 251.87 96.742C251.572 97.0687 251.422 97.5213 251.422 98.1V100.2C251.422 100.779 251.572 101.231 251.87 101.558C252.178 101.885 252.589 102.048 253.102 102.048ZM261.469 103.112C260.853 103.112 260.321 102.995 259.873 102.762C259.425 102.529 259.075 102.193 258.823 101.754C258.58 101.306 258.459 100.779 258.459 100.172V98.128C258.459 97.512 258.58 96.9847 258.823 96.546C259.075 96.1073 259.425 95.7713 259.873 95.538C260.321 95.3047 260.853 95.188 261.469 95.188C262.085 95.188 262.617 95.3047 263.065 95.538C263.513 95.7713 263.858 96.1073 264.101 96.546C264.353 96.9847 264.479 97.5073 264.479 98.114V100.172C264.479 100.779 264.353 101.306 264.101 101.754C263.858 102.193 263.513 102.529 263.065 102.762C262.617 102.995 262.085 103.112 261.469 103.112ZM261.469 101.992C262.019 101.992 262.449 101.838 262.757 101.53C263.065 101.222 263.219 100.769 263.219 100.172V98.128C263.219 97.5307 263.065 97.078 262.757 96.77C262.449 96.462 262.019 96.308 261.469 96.308C260.927 96.308 260.498 96.462 260.181 96.77C259.873 97.078 259.719 97.5307 259.719 98.128V100.172C259.719 100.769 259.873 101.222 260.181 101.53C260.498 101.838 260.927 101.992 261.469 101.992ZM269.849 103.14C268.963 103.14 268.253 102.879 267.721 102.356C267.189 101.824 266.923 101.105 266.923 100.2V95.3H268.183V100.2C268.183 100.779 268.333 101.231 268.631 101.558C268.93 101.875 269.336 102.034 269.849 102.034C270.372 102.034 270.783 101.875 271.081 101.558C271.389 101.231 271.543 100.779 271.543 100.2V95.3H272.803V100.2C272.803 101.105 272.533 101.824 271.991 102.356C271.45 102.879 270.736 103.14 269.849 103.14ZM279.098 103C278.435 103 277.917 102.823 277.544 102.468C277.18 102.113 276.998 101.614 276.998 100.97V96.448H274.828V95.3H276.998V93.13H278.258V95.3H281.338V96.448H278.258V100.97C278.258 101.558 278.538 101.852 279.098 101.852H281.198V103H279.098ZM291.771 103V95.3H292.877V96.224H293.129L292.933 96.56C292.933 96.1307 293.045 95.79 293.269 95.538C293.502 95.286 293.815 95.16 294.207 95.16C294.636 95.16 294.968 95.3187 295.201 95.636C295.434 95.9533 295.551 96.4013 295.551 96.98L295.173 96.224H295.761L295.495 96.56C295.495 96.1307 295.612 95.79 295.845 95.538C296.088 95.286 296.405 95.16 296.797 95.16C297.282 95.16 297.656 95.342 297.917 95.706C298.188 96.07 298.323 96.5507 298.323 97.148V103H297.161V97.134C297.161 96.8167 297.091 96.5693 296.951 96.392C296.82 96.2147 296.624 96.126 296.363 96.126C296.111 96.126 295.91 96.2147 295.761 96.392C295.621 96.56 295.551 96.8027 295.551 97.12V103H294.543V97.134C294.543 96.8073 294.468 96.56 294.319 96.392C294.179 96.2147 293.978 96.126 293.717 96.126C293.456 96.126 293.26 96.2147 293.129 96.392C292.998 96.56 292.933 96.8027 292.933 97.12V103H291.771ZM303.441 103.14C302.835 103.14 302.303 103.019 301.845 102.776C301.397 102.533 301.047 102.193 300.795 101.754C300.553 101.306 300.431 100.788 300.431 100.2V98.1C300.431 97.5027 300.553 96.9847 300.795 96.546C301.047 96.1073 301.397 95.7667 301.845 95.524C302.303 95.2813 302.835 95.16 303.441 95.16C304.048 95.16 304.575 95.2813 305.023 95.524C305.481 95.7667 305.831 96.1073 306.073 96.546C306.325 96.9847 306.451 97.5027 306.451 98.1V99.458H301.663V100.2C301.663 100.807 301.817 101.273 302.125 101.6C302.433 101.917 302.872 102.076 303.441 102.076C303.927 102.076 304.319 101.992 304.617 101.824C304.916 101.647 305.098 101.385 305.163 101.04H306.423C306.339 101.684 306.022 102.197 305.471 102.58C304.93 102.953 304.253 103.14 303.441 103.14ZM305.219 98.618V98.1C305.219 97.4933 305.065 97.0267 304.757 96.7C304.459 96.3733 304.02 96.21 303.441 96.21C302.872 96.21 302.433 96.3733 302.125 96.7C301.817 97.0267 301.663 97.4933 301.663 98.1V98.506H305.317L305.219 98.618ZM320.23 99.57C319.745 99.57 319.344 99.4113 319.026 99.094C318.709 98.7767 318.55 98.3753 318.55 97.89C318.55 97.3953 318.709 96.994 319.026 96.686C319.344 96.3687 319.745 96.21 320.23 96.21C320.725 96.21 321.126 96.3687 321.434 96.686C321.752 96.994 321.91 97.3953 321.91 97.89C321.91 98.3753 321.752 98.7767 321.434 99.094C321.126 99.4113 320.725 99.57 320.23 99.57ZM47.4027 117.57C46.9174 117.57 46.5161 117.411 46.1987 117.094C45.8814 116.777 45.7227 116.375 45.7227 115.89C45.7227 115.395 45.8814 114.994 46.1987 114.686C46.5161 114.369 46.9174 114.21 47.4027 114.21C47.8974 114.21 48.2987 114.369 48.6067 114.686C48.9241 114.994 49.0827 115.395 49.0827 115.89C49.0827 116.375 48.9241 116.777 48.6067 117.094C48.2987 117.411 47.8974 117.57 47.4027 117.57ZM60.056 121.14C59.44 121.14 58.9033 121.023 58.446 120.79C57.998 120.557 57.648 120.221 57.396 119.782C57.1533 119.334 57.032 118.807 57.032 118.2V113.58C57.032 112.964 57.1533 112.437 57.396 111.998C57.648 111.559 57.998 111.223 58.446 110.99C58.9033 110.757 59.44 110.64 60.056 110.64C60.672 110.64 61.204 110.761 61.652 111.004C62.1 111.237 62.4453 111.573 62.688 112.012C62.9307 112.451 63.052 112.973 63.052 113.58H61.792C61.792 113.001 61.638 112.558 61.33 112.25C61.0313 111.933 60.6067 111.774 60.056 111.774C59.5053 111.774 59.0713 111.928 58.754 112.236C58.446 112.544 58.292 112.987 58.292 113.566V118.2C58.292 118.779 58.446 119.227 58.754 119.544C59.0713 119.852 59.5053 120.006 60.056 120.006C60.6067 120.006 61.0313 119.852 61.33 119.544C61.638 119.227 61.792 118.779 61.792 118.2H63.052C63.052 118.797 62.9307 119.32 62.688 119.768C62.4453 120.207 62.1 120.547 61.652 120.79C61.204 121.023 60.672 121.14 60.056 121.14ZM69.4445 121C68.9965 121 68.6045 120.911 68.2685 120.734C67.9325 120.557 67.6712 120.305 67.4845 119.978C67.2979 119.651 67.2045 119.269 67.2045 118.83V111.928H64.6145V110.78H68.4645V118.83C68.4645 119.147 68.5532 119.399 68.7305 119.586C68.9079 119.763 69.1459 119.852 69.4445 119.852H71.8945V121H69.4445ZM73.7791 121V119.852H76.5091V114.448H74.1291V113.3H77.7691V119.852H80.3591V121H73.7791ZM76.9991 111.914C76.6911 111.914 76.4484 111.835 76.2711 111.676C76.0937 111.517 76.0051 111.303 76.0051 111.032C76.0051 110.752 76.0937 110.533 76.2711 110.374C76.4484 110.206 76.6911 110.122 76.9991 110.122C77.3071 110.122 77.5497 110.206 77.7271 110.374C77.9044 110.533 77.9931 110.752 77.9931 111.032C77.9931 111.303 77.9044 111.517 77.7271 111.676C77.5497 111.835 77.3071 111.914 76.9991 111.914ZM85.2396 121.14C84.6236 121.14 84.0823 121.023 83.6156 120.79C83.1583 120.557 82.8036 120.221 82.5516 119.782C82.2996 119.334 82.1736 118.807 82.1736 118.2V116.1C82.1736 115.484 82.2996 114.957 82.5516 114.518C82.8036 114.079 83.1583 113.743 83.6156 113.51C84.0823 113.277 84.6236 113.16 85.2396 113.16C86.1263 113.16 86.8403 113.398 87.3816 113.874C87.9229 114.35 88.2076 114.999 88.2356 115.82H86.9756C86.9476 115.325 86.7796 114.947 86.4716 114.686C86.1729 114.415 85.7623 114.28 85.2396 114.28C84.6889 114.28 84.2503 114.439 83.9236 114.756C83.5969 115.064 83.4336 115.507 83.4336 116.086V118.2C83.4336 118.779 83.5969 119.227 83.9236 119.544C84.2503 119.861 84.6889 120.02 85.2396 120.02C85.7623 120.02 86.1729 119.885 86.4716 119.614C86.7796 119.343 86.9476 118.965 86.9756 118.48H88.2356C88.2076 119.301 87.9229 119.95 87.3816 120.426C86.8403 120.902 86.1263 121.14 85.2396 121.14ZM90.7081 121V110.78H91.9681V116.478H93.4521L95.6921 113.3H97.1341L94.5441 116.968L97.1761 121H95.7061L93.4661 117.57H91.9681V121H90.7081ZM107.455 123.52V113.3H108.715V114.77H108.967L108.715 115.064C108.715 114.476 108.907 114.014 109.289 113.678C109.681 113.333 110.195 113.16 110.829 113.16C111.604 113.16 112.22 113.417 112.677 113.93C113.144 114.434 113.377 115.129 113.377 116.016V118.27C113.377 118.858 113.27 119.367 113.055 119.796C112.85 120.225 112.556 120.557 112.173 120.79C111.8 121.023 111.352 121.14 110.829 121.14C110.204 121.14 109.695 120.967 109.303 120.622C108.911 120.277 108.715 119.815 108.715 119.236L108.967 119.53H108.687L108.715 121.28V123.52H107.455ZM110.409 120.048C110.941 120.048 111.357 119.889 111.655 119.572C111.963 119.255 112.117 118.797 112.117 118.2V116.1C112.117 115.503 111.963 115.045 111.655 114.728C111.357 114.411 110.941 114.252 110.409 114.252C109.896 114.252 109.485 114.415 109.177 114.742C108.869 115.069 108.715 115.521 108.715 116.1V118.2C108.715 118.779 108.869 119.231 109.177 119.558C109.485 119.885 109.896 120.048 110.409 120.048ZM119.812 121C119.364 121 118.972 120.911 118.636 120.734C118.3 120.557 118.038 120.305 117.852 119.978C117.665 119.651 117.572 119.269 117.572 118.83V111.928H114.982V110.78H118.832V118.83C118.832 119.147 118.92 119.399 119.098 119.586C119.275 119.763 119.513 119.852 119.812 119.852H122.262V121H119.812ZM126.484 121.14C125.672 121.14 125.033 120.935 124.566 120.524C124.1 120.104 123.866 119.539 123.866 118.83C123.866 118.111 124.1 117.547 124.566 117.136C125.033 116.725 125.663 116.52 126.456 116.52H128.836V115.75C128.836 115.274 128.692 114.91 128.402 114.658C128.122 114.397 127.721 114.266 127.198 114.266C126.741 114.266 126.358 114.364 126.05 114.56C125.742 114.747 125.565 115.003 125.518 115.33H124.258C124.342 114.667 124.655 114.14 125.196 113.748C125.738 113.356 126.414 113.16 127.226 113.16C128.113 113.16 128.813 113.389 129.326 113.846C129.84 114.303 130.096 114.924 130.096 115.708V121H128.864V119.53H128.654L128.864 119.32C128.864 119.88 128.645 120.323 128.206 120.65C127.777 120.977 127.203 121.14 126.484 121.14ZM126.792 120.146C127.39 120.146 127.88 119.997 128.262 119.698C128.645 119.399 128.836 119.017 128.836 118.55V117.458H126.484C126.064 117.458 125.733 117.575 125.49 117.808C125.248 118.041 125.126 118.359 125.126 118.76C125.126 119.189 125.271 119.53 125.56 119.782C125.859 120.025 126.27 120.146 126.792 120.146ZM132.639 121V113.3H133.899V114.77H134.165L133.899 115.064C133.899 114.457 134.081 113.991 134.445 113.664C134.809 113.328 135.313 113.16 135.957 113.16C136.731 113.16 137.347 113.398 137.805 113.874C138.262 114.35 138.491 114.999 138.491 115.82V121H137.231V115.96C137.231 115.409 137.081 114.989 136.783 114.7C136.493 114.401 136.097 114.252 135.593 114.252C135.07 114.252 134.655 114.411 134.347 114.728C134.048 115.045 133.899 115.503 133.899 116.1V121H132.639ZM143.945 121.14C143.339 121.14 142.807 121.019 142.349 120.776C141.901 120.533 141.551 120.193 141.299 119.754C141.057 119.306 140.935 118.788 140.935 118.2V116.1C140.935 115.503 141.057 114.985 141.299 114.546C141.551 114.107 141.901 113.767 142.349 113.524C142.807 113.281 143.339 113.16 143.945 113.16C144.552 113.16 145.079 113.281 145.527 113.524C145.985 113.767 146.335 114.107 146.577 114.546C146.829 114.985 146.955 115.503 146.955 116.1V117.458H142.167V118.2C142.167 118.807 142.321 119.273 142.629 119.6C142.937 119.917 143.376 120.076 143.945 120.076C144.431 120.076 144.823 119.992 145.121 119.824C145.42 119.647 145.602 119.385 145.667 119.04H146.927C146.843 119.684 146.526 120.197 145.975 120.58C145.434 120.953 144.757 121.14 143.945 121.14ZM145.723 116.618V116.1C145.723 115.493 145.569 115.027 145.261 114.7C144.963 114.373 144.524 114.21 143.945 114.21C143.376 114.21 142.937 114.373 142.629 114.7C142.321 115.027 142.167 115.493 142.167 116.1V116.506H145.821L145.723 116.618ZM153.18 121C152.517 121 151.999 120.823 151.626 120.468C151.262 120.113 151.08 119.614 151.08 118.97V114.448H148.91V113.3H151.08V111.13H152.34V113.3H155.42V114.448H152.34V118.97C152.34 119.558 152.62 119.852 153.18 119.852H155.28V121H153.18ZM160.496 121.112C159.974 121.112 159.516 121.033 159.124 120.874C158.742 120.706 158.434 120.473 158.2 120.174C157.976 119.875 157.841 119.521 157.794 119.11H159.054C159.11 119.381 159.26 119.595 159.502 119.754C159.754 119.913 160.086 119.992 160.496 119.992H161.084C161.579 119.992 161.948 119.894 162.19 119.698C162.433 119.493 162.554 119.222 162.554 118.886C162.554 118.559 162.442 118.303 162.218 118.116C162.004 117.92 161.682 117.789 161.252 117.724L160.216 117.556C159.46 117.425 158.896 117.192 158.522 116.856C158.158 116.511 157.976 116.011 157.976 115.358C157.976 114.667 158.196 114.135 158.634 113.762C159.073 113.379 159.731 113.188 160.608 113.188H161.14C161.878 113.188 162.47 113.361 162.918 113.706C163.366 114.051 163.637 114.518 163.73 115.106H162.47C162.414 114.863 162.274 114.672 162.05 114.532C161.826 114.383 161.523 114.308 161.14 114.308H160.608C160.132 114.308 159.782 114.397 159.558 114.574C159.344 114.751 159.236 115.017 159.236 115.372C159.236 115.689 159.33 115.923 159.516 116.072C159.703 116.221 159.997 116.329 160.398 116.394L161.434 116.562C162.265 116.693 162.867 116.935 163.24 117.29C163.623 117.645 163.814 118.158 163.814 118.83C163.814 119.539 163.586 120.099 163.128 120.51C162.68 120.911 161.999 121.112 161.084 121.112H160.496ZM178.363 121C177.701 121 177.183 120.823 176.809 120.468C176.445 120.113 176.263 119.614 176.263 118.97V114.448H174.093V113.3H176.263V111.13H177.523V113.3H180.603V114.448H177.523V118.97C177.523 119.558 177.803 119.852 178.363 119.852H180.463V121H178.363ZM185.918 121.112C185.302 121.112 184.77 120.995 184.322 120.762C183.874 120.529 183.524 120.193 183.272 119.754C183.029 119.306 182.908 118.779 182.908 118.172V116.128C182.908 115.512 183.029 114.985 183.272 114.546C183.524 114.107 183.874 113.771 184.322 113.538C184.77 113.305 185.302 113.188 185.918 113.188C186.534 113.188 187.066 113.305 187.514 113.538C187.962 113.771 188.307 114.107 188.55 114.546C188.802 114.985 188.928 115.507 188.928 116.114V118.172C188.928 118.779 188.802 119.306 188.55 119.754C188.307 120.193 187.962 120.529 187.514 120.762C187.066 120.995 186.534 121.112 185.918 121.112ZM185.918 119.992C186.469 119.992 186.898 119.838 187.206 119.53C187.514 119.222 187.668 118.769 187.668 118.172V116.128C187.668 115.531 187.514 115.078 187.206 114.77C186.898 114.462 186.469 114.308 185.918 114.308C185.377 114.308 184.947 114.462 184.63 114.77C184.322 115.078 184.168 115.531 184.168 116.128V118.172C184.168 118.769 184.322 119.222 184.63 119.53C184.947 119.838 185.377 119.992 185.918 119.992ZM202.707 121.14C202.1 121.14 201.568 121.019 201.111 120.776C200.663 120.533 200.313 120.193 200.061 119.754C199.818 119.306 199.697 118.788 199.697 118.2V116.1C199.697 115.503 199.818 114.985 200.061 114.546C200.313 114.107 200.663 113.767 201.111 113.524C201.568 113.281 202.1 113.16 202.707 113.16C203.314 113.16 203.841 113.281 204.289 113.524C204.746 113.767 205.096 114.107 205.339 114.546C205.591 114.985 205.717 115.503 205.717 116.1V117.458H200.929V118.2C200.929 118.807 201.083 119.273 201.391 119.6C201.699 119.917 202.138 120.076 202.707 120.076C203.192 120.076 203.584 119.992 203.883 119.824C204.182 119.647 204.364 119.385 204.429 119.04H205.689C205.605 119.684 205.288 120.197 204.737 120.58C204.196 120.953 203.519 121.14 202.707 121.14ZM204.485 116.618V116.1C204.485 115.493 204.331 115.027 204.023 114.7C203.724 114.373 203.286 114.21 202.707 114.21C202.138 114.21 201.699 114.373 201.391 114.7C201.083 115.027 200.929 115.493 200.929 116.1V116.506H204.583L204.485 116.618ZM207.602 121L210.332 117.038L207.77 113.3H209.254L210.78 115.68C210.845 115.783 210.906 115.895 210.962 116.016C211.027 116.137 211.078 116.235 211.116 116.31C211.144 116.235 211.186 116.137 211.242 116.016C211.307 115.895 211.372 115.783 211.438 115.68L212.978 113.3H214.448L211.886 117.052L214.602 121H213.118L211.466 118.48C211.4 118.377 211.335 118.261 211.27 118.13C211.214 117.99 211.162 117.878 211.116 117.794C211.078 117.878 211.022 117.99 210.948 118.13C210.882 118.261 210.812 118.377 210.738 118.48L209.072 121H207.602ZM216.584 123.52V113.3H217.844V114.77H218.096L217.844 115.064C217.844 114.476 218.035 114.014 218.418 113.678C218.81 113.333 219.323 113.16 219.958 113.16C220.733 113.16 221.349 113.417 221.806 113.93C222.273 114.434 222.506 115.129 222.506 116.016V118.27C222.506 118.858 222.399 119.367 222.184 119.796C221.979 120.225 221.685 120.557 221.302 120.79C220.929 121.023 220.481 121.14 219.958 121.14C219.333 121.14 218.824 120.967 218.432 120.622C218.04 120.277 217.844 119.815 217.844 119.236L218.096 119.53H217.816L217.844 121.28V123.52H216.584ZM219.538 120.048C220.07 120.048 220.485 119.889 220.784 119.572C221.092 119.255 221.246 118.797 221.246 118.2V116.1C221.246 115.503 221.092 115.045 220.784 114.728C220.485 114.411 220.07 114.252 219.538 114.252C219.025 114.252 218.614 114.415 218.306 114.742C217.998 115.069 217.844 115.521 217.844 116.1V118.2C217.844 118.779 217.998 119.231 218.306 119.558C218.614 119.885 219.025 120.048 219.538 120.048ZM228.941 121C228.493 121 228.101 120.911 227.765 120.734C227.429 120.557 227.167 120.305 226.981 119.978C226.794 119.651 226.701 119.269 226.701 118.83V111.928H224.111V110.78H227.961V118.83C227.961 119.147 228.049 119.399 228.227 119.586C228.404 119.763 228.642 119.852 228.941 119.852H231.391V121H228.941ZM236.285 121.112C235.669 121.112 235.137 120.995 234.689 120.762C234.241 120.529 233.891 120.193 233.639 119.754C233.396 119.306 233.275 118.779 233.275 118.172V116.128C233.275 115.512 233.396 114.985 233.639 114.546C233.891 114.107 234.241 113.771 234.689 113.538C235.137 113.305 235.669 113.188 236.285 113.188C236.901 113.188 237.433 113.305 237.881 113.538C238.329 113.771 238.674 114.107 238.917 114.546C239.169 114.985 239.295 115.507 239.295 116.114V118.172C239.295 118.779 239.169 119.306 238.917 119.754C238.674 120.193 238.329 120.529 237.881 120.762C237.433 120.995 236.901 121.112 236.285 121.112ZM236.285 119.992C236.836 119.992 237.265 119.838 237.573 119.53C237.881 119.222 238.035 118.769 238.035 118.172V116.128C238.035 115.531 237.881 115.078 237.573 114.77C237.265 114.462 236.836 114.308 236.285 114.308C235.744 114.308 235.314 114.462 234.997 114.77C234.689 115.078 234.535 115.531 234.535 116.128V118.172C234.535 118.769 234.689 119.222 234.997 119.53C235.314 119.838 235.744 119.992 236.285 119.992ZM242.034 121V113.3H243.266V114.77H243.56L243.154 115.68C243.154 114.849 243.331 114.224 243.686 113.804C244.05 113.375 244.586 113.16 245.296 113.16C246.108 113.16 246.752 113.417 247.228 113.93C247.713 114.434 247.956 115.12 247.956 115.988V116.45H246.696V116.1C246.696 115.493 246.546 115.031 246.248 114.714C245.958 114.387 245.543 114.224 245.002 114.224C244.47 114.224 244.05 114.387 243.742 114.714C243.443 115.041 243.294 115.503 243.294 116.1V121H242.034ZM253.074 121.14C252.468 121.14 251.936 121.019 251.478 120.776C251.03 120.533 250.68 120.193 250.428 119.754C250.186 119.306 250.064 118.788 250.064 118.2V116.1C250.064 115.503 250.186 114.985 250.428 114.546C250.68 114.107 251.03 113.767 251.478 113.524C251.936 113.281 252.468 113.16 253.074 113.16C253.681 113.16 254.208 113.281 254.656 113.524C255.114 113.767 255.464 114.107 255.706 114.546C255.958 114.985 256.084 115.503 256.084 116.1V117.458H251.296V118.2C251.296 118.807 251.45 119.273 251.758 119.6C252.066 119.917 252.505 120.076 253.074 120.076C253.56 120.076 253.952 119.992 254.25 119.824C254.549 119.647 254.731 119.385 254.796 119.04H256.056C255.972 119.684 255.655 120.197 255.104 120.58C254.563 120.953 253.886 121.14 253.074 121.14ZM254.852 116.618V116.1C254.852 115.493 254.698 115.027 254.39 114.7C254.092 114.373 253.653 114.21 253.074 114.21C252.505 114.21 252.066 114.373 251.758 114.7C251.45 115.027 251.296 115.493 251.296 116.1V116.506H254.95L254.852 116.618ZM266.951 123.52V113.3H268.211V114.77H268.463L268.211 115.064C268.211 114.476 268.403 114.014 268.785 113.678C269.177 113.333 269.691 113.16 270.325 113.16C271.1 113.16 271.716 113.417 272.173 113.93C272.64 114.434 272.873 115.129 272.873 116.016V118.27C272.873 118.858 272.766 119.367 272.551 119.796C272.346 120.225 272.052 120.557 271.669 120.79C271.296 121.023 270.848 121.14 270.325 121.14C269.7 121.14 269.191 120.967 268.799 120.622C268.407 120.277 268.211 119.815 268.211 119.236L268.463 119.53H268.183L268.211 121.28V123.52H266.951ZM269.905 120.048C270.437 120.048 270.853 119.889 271.151 119.572C271.459 119.255 271.613 118.797 271.613 118.2V116.1C271.613 115.503 271.459 115.045 271.151 114.728C270.853 114.411 270.437 114.252 269.905 114.252C269.392 114.252 268.981 114.415 268.673 114.742C268.365 115.069 268.211 115.521 268.211 116.1V118.2C268.211 118.779 268.365 119.231 268.673 119.558C268.981 119.885 269.392 120.048 269.905 120.048ZM275.612 121V113.3H276.844V114.77H277.138L276.732 115.68C276.732 114.849 276.909 114.224 277.264 113.804C277.628 113.375 278.164 113.16 278.874 113.16C279.686 113.16 280.33 113.417 280.806 113.93C281.291 114.434 281.534 115.12 281.534 115.988V116.45H280.274V116.1C280.274 115.493 280.124 115.031 279.826 114.714C279.536 114.387 279.121 114.224 278.58 114.224C278.048 114.224 277.628 114.387 277.32 114.714C277.021 115.041 276.872 115.503 276.872 116.1V121H275.612ZM286.652 121.112C286.036 121.112 285.504 120.995 285.056 120.762C284.608 120.529 284.258 120.193 284.006 119.754C283.764 119.306 283.642 118.779 283.642 118.172V116.128C283.642 115.512 283.764 114.985 284.006 114.546C284.258 114.107 284.608 113.771 285.056 113.538C285.504 113.305 286.036 113.188 286.652 113.188C287.268 113.188 287.8 113.305 288.248 113.538C288.696 113.771 289.042 114.107 289.284 114.546C289.536 114.985 289.662 115.507 289.662 116.114V118.172C289.662 118.779 289.536 119.306 289.284 119.754C289.042 120.193 288.696 120.529 288.248 120.762C287.8 120.995 287.268 121.112 286.652 121.112ZM286.652 119.992C287.203 119.992 287.632 119.838 287.94 119.53C288.248 119.222 288.402 118.769 288.402 118.172V116.128C288.402 115.531 288.248 115.078 287.94 114.77C287.632 114.462 287.203 114.308 286.652 114.308C286.111 114.308 285.682 114.462 285.364 114.77C285.056 115.078 284.902 115.531 284.902 116.128V118.172C284.902 118.769 285.056 119.222 285.364 119.53C285.682 119.838 286.111 119.992 286.652 119.992ZM292.037 123.52V122.358H293.843C294.422 122.358 294.87 122.199 295.187 121.882C295.514 121.574 295.677 121.135 295.677 120.566V114.448H292.457V113.3H296.937V120.566C296.937 121.471 296.657 122.19 296.097 122.722C295.537 123.254 294.786 123.52 293.843 123.52H292.037ZM296.237 111.914C295.929 111.914 295.686 111.835 295.509 111.676C295.332 111.517 295.243 111.303 295.243 111.032C295.243 110.752 295.332 110.533 295.509 110.374C295.686 110.206 295.929 110.122 296.237 110.122C296.545 110.122 296.788 110.206 296.965 110.374C297.142 110.533 297.231 110.752 297.231 111.032C297.231 111.303 297.142 111.517 296.965 111.676C296.788 111.835 296.545 111.914 296.237 111.914ZM303.441 121.14C302.835 121.14 302.303 121.019 301.845 120.776C301.397 120.533 301.047 120.193 300.795 119.754C300.553 119.306 300.431 118.788 300.431 118.2V116.1C300.431 115.503 300.553 114.985 300.795 114.546C301.047 114.107 301.397 113.767 301.845 113.524C302.303 113.281 302.835 113.16 303.441 113.16C304.048 113.16 304.575 113.281 305.023 113.524C305.481 113.767 305.831 114.107 306.073 114.546C306.325 114.985 306.451 115.503 306.451 116.1V117.458H301.663V118.2C301.663 118.807 301.817 119.273 302.125 119.6C302.433 119.917 302.872 120.076 303.441 120.076C303.927 120.076 304.319 119.992 304.617 119.824C304.916 119.647 305.098 119.385 305.163 119.04H306.423C306.339 119.684 306.022 120.197 305.471 120.58C304.93 120.953 304.253 121.14 303.441 121.14ZM305.219 116.618V116.1C305.219 115.493 305.065 115.027 304.757 114.7C304.459 114.373 304.02 114.21 303.441 114.21C302.872 114.21 302.433 114.373 302.125 114.7C301.817 115.027 301.663 115.493 301.663 116.1V116.506H305.317L305.219 116.618ZM311.892 121.14C311.276 121.14 310.735 121.023 310.268 120.79C309.811 120.557 309.456 120.221 309.204 119.782C308.952 119.334 308.826 118.807 308.826 118.2V116.1C308.826 115.484 308.952 114.957 309.204 114.518C309.456 114.079 309.811 113.743 310.268 113.51C310.735 113.277 311.276 113.16 311.892 113.16C312.779 113.16 313.493 113.398 314.034 113.874C314.575 114.35 314.86 114.999 314.888 115.82H313.628C313.6 115.325 313.432 114.947 313.124 114.686C312.825 114.415 312.415 114.28 311.892 114.28C311.341 114.28 310.903 114.439 310.576 114.756C310.249 115.064 310.086 115.507 310.086 116.086V118.2C310.086 118.779 310.249 119.227 310.576 119.544C310.903 119.861 311.341 120.02 311.892 120.02C312.415 120.02 312.825 119.885 313.124 119.614C313.432 119.343 313.6 118.965 313.628 118.48H314.888C314.86 119.301 314.575 119.95 314.034 120.426C313.493 120.902 312.779 121.14 311.892 121.14ZM321.07 121C320.408 121 319.89 120.823 319.516 120.468C319.152 120.113 318.97 119.614 318.97 118.97V114.448H316.8V113.3H318.97V111.13H320.23V113.3H323.31V114.448H320.23V118.97C320.23 119.558 320.51 119.852 321.07 119.852H323.17V121H321.07ZM328.387 121.112C327.864 121.112 327.407 121.033 327.015 120.874C326.632 120.706 326.324 120.473 326.091 120.174C325.867 119.875 325.732 119.521 325.685 119.11H326.945C327.001 119.381 327.15 119.595 327.393 119.754C327.645 119.913 327.976 119.992 328.387 119.992H328.975C329.47 119.992 329.838 119.894 330.081 119.698C330.324 119.493 330.445 119.222 330.445 118.886C330.445 118.559 330.333 118.303 330.109 118.116C329.894 117.92 329.572 117.789 329.143 117.724L328.107 117.556C327.351 117.425 326.786 117.192 326.413 116.856C326.049 116.511 325.867 116.011 325.867 115.358C325.867 114.667 326.086 114.135 326.525 113.762C326.964 113.379 327.622 113.188 328.499 113.188H329.031C329.768 113.188 330.361 113.361 330.809 113.706C331.257 114.051 331.528 114.518 331.621 115.106H330.361C330.305 114.863 330.165 114.672 329.941 114.532C329.717 114.383 329.414 114.308 329.031 114.308H328.499C328.023 114.308 327.673 114.397 327.449 114.574C327.234 114.751 327.127 115.017 327.127 115.372C327.127 115.689 327.22 115.923 327.407 116.072C327.594 116.221 327.888 116.329 328.289 116.394L329.325 116.562C330.156 116.693 330.758 116.935 331.131 117.29C331.514 117.645 331.705 118.158 331.705 118.83C331.705 119.539 331.476 120.099 331.019 120.51C330.571 120.911 329.89 121.112 328.975 121.112H328.387ZM345.414 117.57C344.929 117.57 344.527 117.411 344.21 117.094C343.893 116.777 343.734 116.375 343.734 115.89C343.734 115.395 343.893 114.994 344.21 114.686C344.527 114.369 344.929 114.21 345.414 114.21C345.909 114.21 346.31 114.369 346.618 114.686C346.935 114.994 347.094 115.395 347.094 115.89C347.094 116.375 346.935 116.777 346.618 117.094C346.31 117.411 345.909 117.57 345.414 117.57ZM47.4027 135.57C46.9174 135.57 46.5161 135.411 46.1987 135.094C45.8814 134.777 45.7227 134.375 45.7227 133.89C45.7227 133.395 45.8814 132.994 46.1987 132.686C46.5161 132.369 46.9174 132.21 47.4027 132.21C47.8974 132.21 48.2987 132.369 48.6067 132.686C48.9241 132.994 49.0827 133.395 49.0827 133.89C49.0827 134.375 48.9241 134.777 48.6067 135.094C48.2987 135.411 47.8974 135.57 47.4027 135.57ZM57.088 139V128.78H60.378C61.0127 128.78 61.5633 128.906 62.03 129.158C62.4967 129.401 62.856 129.746 63.108 130.194C63.3693 130.642 63.5 131.174 63.5 131.79C63.5 132.397 63.3693 132.929 63.108 133.386C62.856 133.834 62.4967 134.184 62.03 134.436C61.5633 134.679 61.0127 134.8 60.378 134.8H58.348V139H57.088ZM58.348 133.666H60.378C60.9287 133.666 61.3673 133.498 61.694 133.162C62.03 132.817 62.198 132.359 62.198 131.79C62.198 131.211 62.03 130.754 61.694 130.418C61.3673 130.082 60.9287 129.914 60.378 129.914H58.348V133.666ZM65.7485 139V131.3H66.9805V132.77H67.2745L66.8685 133.68C66.8685 132.849 67.0459 132.224 67.4005 131.804C67.7645 131.375 68.3012 131.16 69.0105 131.16C69.8225 131.16 70.4665 131.417 70.9425 131.93C71.4279 132.434 71.6705 133.12 71.6705 133.988V134.45H70.4105V134.1C70.4105 133.493 70.2612 133.031 69.9625 132.714C69.6732 132.387 69.2579 132.224 68.7165 132.224C68.1845 132.224 67.7645 132.387 67.4565 132.714C67.1579 133.041 67.0085 133.503 67.0085 134.1V139H65.7485ZM76.7891 139.14C76.1824 139.14 75.6504 139.019 75.1931 138.776C74.7451 138.533 74.3951 138.193 74.1431 137.754C73.9004 137.306 73.7791 136.788 73.7791 136.2V134.1C73.7791 133.503 73.9004 132.985 74.1431 132.546C74.3951 132.107 74.7451 131.767 75.1931 131.524C75.6504 131.281 76.1824 131.16 76.7891 131.16C77.3957 131.16 77.9231 131.281 78.3711 131.524C78.8284 131.767 79.1784 132.107 79.4211 132.546C79.6731 132.985 79.7991 133.503 79.7991 134.1V135.458H75.0111V136.2C75.0111 136.807 75.1651 137.273 75.4731 137.6C75.7811 137.917 76.2197 138.076 76.7891 138.076C77.2744 138.076 77.6664 137.992 77.9651 137.824C78.2637 137.647 78.4457 137.385 78.5111 137.04H79.7711C79.6871 137.684 79.3697 138.197 78.8191 138.58C78.2777 138.953 77.6011 139.14 76.7891 139.14ZM78.5671 134.618V134.1C78.5671 133.493 78.4131 133.027 78.1051 132.7C77.8064 132.373 77.3677 132.21 76.7891 132.21C76.2197 132.21 75.7811 132.373 75.4731 132.7C75.1651 133.027 75.0111 133.493 75.0111 134.1V134.506H78.6651L78.5671 134.618ZM84.9456 139.112C84.4229 139.112 83.9656 139.033 83.5736 138.874C83.1909 138.706 82.8829 138.473 82.6496 138.174C82.4256 137.875 82.2903 137.521 82.2436 137.11H83.5036C83.5596 137.381 83.7089 137.595 83.9516 137.754C84.2036 137.913 84.5349 137.992 84.9456 137.992H85.5336C86.0283 137.992 86.3969 137.894 86.6396 137.698C86.8823 137.493 87.0036 137.222 87.0036 136.886C87.0036 136.559 86.8916 136.303 86.6676 136.116C86.4529 135.92 86.1309 135.789 85.7016 135.724L84.6656 135.556C83.9096 135.425 83.3449 135.192 82.9716 134.856C82.6076 134.511 82.4256 134.011 82.4256 133.358C82.4256 132.667 82.6449 132.135 83.0836 131.762C83.5223 131.379 84.1803 131.188 85.0576 131.188H85.5896C86.3269 131.188 86.9196 131.361 87.3676 131.706C87.8156 132.051 88.0863 132.518 88.1796 133.106H86.9196C86.8636 132.863 86.7236 132.672 86.4996 132.532C86.2756 132.383 85.9723 132.308 85.5896 132.308H85.0576C84.5816 132.308 84.2316 132.397 84.0076 132.574C83.7929 132.751 83.6856 133.017 83.6856 133.372C83.6856 133.689 83.7789 133.923 83.9656 134.072C84.1523 134.221 84.4463 134.329 84.8476 134.394L85.8836 134.562C86.7143 134.693 87.3163 134.935 87.6896 135.29C88.0723 135.645 88.2636 136.158 88.2636 136.83C88.2636 137.539 88.0349 138.099 87.5776 138.51C87.1296 138.911 86.4483 139.112 85.5336 139.112H84.9456ZM93.3401 139.112C92.8175 139.112 92.3601 139.033 91.9681 138.874C91.5855 138.706 91.2775 138.473 91.0441 138.174C90.8201 137.875 90.6848 137.521 90.6381 137.11H91.8981C91.9541 137.381 92.1035 137.595 92.3461 137.754C92.5981 137.913 92.9295 137.992 93.3401 137.992H93.9281C94.4228 137.992 94.7915 137.894 95.0341 137.698C95.2768 137.493 95.3981 137.222 95.3981 136.886C95.3981 136.559 95.2861 136.303 95.0621 136.116C94.8475 135.92 94.5255 135.789 94.0961 135.724L93.0601 135.556C92.3041 135.425 91.7395 135.192 91.3661 134.856C91.0021 134.511 90.8201 134.011 90.8201 133.358C90.8201 132.667 91.0395 132.135 91.4781 131.762C91.9168 131.379 92.5748 131.188 93.4521 131.188H93.9841C94.7215 131.188 95.3141 131.361 95.7621 131.706C96.2101 132.051 96.4808 132.518 96.5741 133.106H95.3141C95.2581 132.863 95.1181 132.672 94.8941 132.532C94.6701 132.383 94.3668 132.308 93.9841 132.308H93.4521C92.9761 132.308 92.6261 132.397 92.4021 132.574C92.1875 132.751 92.0801 133.017 92.0801 133.372C92.0801 133.689 92.1735 133.923 92.3601 134.072C92.5468 134.221 92.8408 134.329 93.2421 134.394L94.2781 134.562C95.1088 134.693 95.7108 134.935 96.0841 135.29C96.4668 135.645 96.6581 136.158 96.6581 136.83C96.6581 137.539 96.4295 138.099 95.9721 138.51C95.5241 138.911 94.8428 139.112 93.9281 139.112H93.3401ZM110.423 139.14C109.807 139.14 109.271 139.023 108.813 138.79C108.365 138.557 108.015 138.221 107.763 137.782C107.521 137.334 107.399 136.807 107.399 136.2V131.58C107.399 130.964 107.521 130.437 107.763 129.998C108.015 129.559 108.365 129.223 108.813 128.99C109.271 128.757 109.807 128.64 110.423 128.64C111.039 128.64 111.571 128.761 112.019 129.004C112.467 129.237 112.813 129.573 113.055 130.012C113.298 130.451 113.419 130.973 113.419 131.58H112.159C112.159 131.001 112.005 130.558 111.697 130.25C111.399 129.933 110.974 129.774 110.423 129.774C109.873 129.774 109.439 129.928 109.121 130.236C108.813 130.544 108.659 130.987 108.659 131.566V136.2C108.659 136.779 108.813 137.227 109.121 137.544C109.439 137.852 109.873 138.006 110.423 138.006C110.974 138.006 111.399 137.852 111.697 137.544C112.005 137.227 112.159 136.779 112.159 136.2H113.419C113.419 136.797 113.298 137.32 113.055 137.768C112.813 138.207 112.467 138.547 112.019 138.79C111.571 139.023 111.039 139.14 110.423 139.14ZM127.996 139C127.334 139 126.816 138.823 126.442 138.468C126.078 138.113 125.896 137.614 125.896 136.97V132.448H123.726V131.3H125.896V129.13H127.156V131.3H130.236V132.448H127.156V136.97C127.156 137.558 127.436 137.852 127.996 137.852H130.096V139H127.996ZM135.551 139.112C134.935 139.112 134.403 138.995 133.955 138.762C133.507 138.529 133.157 138.193 132.905 137.754C132.662 137.306 132.541 136.779 132.541 136.172V134.128C132.541 133.512 132.662 132.985 132.905 132.546C133.157 132.107 133.507 131.771 133.955 131.538C134.403 131.305 134.935 131.188 135.551 131.188C136.167 131.188 136.699 131.305 137.147 131.538C137.595 131.771 137.94 132.107 138.183 132.546C138.435 132.985 138.561 133.507 138.561 134.114V136.172C138.561 136.779 138.435 137.306 138.183 137.754C137.94 138.193 137.595 138.529 137.147 138.762C136.699 138.995 136.167 139.112 135.551 139.112ZM135.551 137.992C136.101 137.992 136.531 137.838 136.839 137.53C137.147 137.222 137.301 136.769 137.301 136.172V134.128C137.301 133.531 137.147 133.078 136.839 132.77C136.531 132.462 136.101 132.308 135.551 132.308C135.009 132.308 134.58 132.462 134.263 132.77C133.955 133.078 133.801 133.531 133.801 134.128V136.172C133.801 136.769 133.955 137.222 134.263 137.53C134.58 137.838 135.009 137.992 135.551 137.992ZM150.394 141.52V140.372H152.844C153.236 140.372 153.521 140.283 153.698 140.106C153.885 139.929 153.978 139.653 153.978 139.28V138.3L154.006 136.9H153.754L153.992 136.69C153.992 137.25 153.805 137.693 153.432 138.02C153.059 138.347 152.559 138.51 151.934 138.51C151.141 138.51 150.515 138.253 150.058 137.74C149.601 137.217 149.372 136.517 149.372 135.64V134.016C149.372 133.139 149.601 132.443 150.058 131.93C150.515 131.417 151.141 131.16 151.934 131.16C152.559 131.16 153.059 131.323 153.432 131.65C153.805 131.977 153.992 132.42 153.992 132.98L153.754 132.77H153.992V131.3H155.238V139.28C155.238 139.971 155.023 140.517 154.594 140.918C154.174 141.319 153.586 141.52 152.83 141.52H150.394ZM152.312 137.418C152.835 137.418 153.245 137.255 153.544 136.928C153.843 136.601 153.992 136.149 153.992 135.57V134.1C153.992 133.521 153.843 133.069 153.544 132.742C153.245 132.415 152.835 132.252 152.312 132.252C151.78 132.252 151.365 132.411 151.066 132.728C150.777 133.045 150.632 133.503 150.632 134.1V135.57C150.632 136.167 150.777 136.625 151.066 136.942C151.365 137.259 151.78 137.418 152.312 137.418ZM160.734 139.112C160.118 139.112 159.586 138.995 159.138 138.762C158.69 138.529 158.34 138.193 158.088 137.754C157.846 137.306 157.724 136.779 157.724 136.172V134.128C157.724 133.512 157.846 132.985 158.088 132.546C158.34 132.107 158.69 131.771 159.138 131.538C159.586 131.305 160.118 131.188 160.734 131.188C161.35 131.188 161.882 131.305 162.33 131.538C162.778 131.771 163.124 132.107 163.366 132.546C163.618 132.985 163.744 133.507 163.744 134.114V136.172C163.744 136.779 163.618 137.306 163.366 137.754C163.124 138.193 162.778 138.529 162.33 138.762C161.882 138.995 161.35 139.112 160.734 139.112ZM160.734 137.992C161.285 137.992 161.714 137.838 162.022 137.53C162.33 137.222 162.484 136.769 162.484 136.172V134.128C162.484 133.531 162.33 133.078 162.022 132.77C161.714 132.462 161.285 132.308 160.734 132.308C160.193 132.308 159.764 132.462 159.446 132.77C159.138 133.078 158.984 133.531 158.984 134.128V136.172C158.984 136.769 159.138 137.222 159.446 137.53C159.764 137.838 160.193 137.992 160.734 137.992ZM174.513 139V137.852H177.243V132.448H174.863V131.3H178.503V137.852H181.093V139H174.513ZM177.733 129.914C177.425 129.914 177.183 129.835 177.005 129.676C176.828 129.517 176.739 129.303 176.739 129.032C176.739 128.752 176.828 128.533 177.005 128.374C177.183 128.206 177.425 128.122 177.733 128.122C178.041 128.122 178.284 128.206 178.461 128.374C178.639 128.533 178.727 128.752 178.727 129.032C178.727 129.303 178.639 129.517 178.461 129.676C178.284 129.835 178.041 129.914 177.733 129.914ZM183.006 139V131.3H184.266V132.77H184.532L184.266 133.064C184.266 132.457 184.448 131.991 184.812 131.664C185.176 131.328 185.68 131.16 186.324 131.16C187.099 131.16 187.715 131.398 188.172 131.874C188.629 132.35 188.858 132.999 188.858 133.82V139H187.598V133.96C187.598 133.409 187.449 132.989 187.15 132.7C186.861 132.401 186.464 132.252 185.96 132.252C185.437 132.252 185.022 132.411 184.714 132.728C184.415 133.045 184.266 133.503 184.266 134.1V139H183.006ZM195.153 139C194.49 139 193.972 138.823 193.599 138.468C193.235 138.113 193.053 137.614 193.053 136.97V132.448H190.883V131.3H193.053V129.13H194.313V131.3H197.393V132.448H194.313V136.97C194.313 137.558 194.593 137.852 195.153 137.852H197.253V139H195.153ZM202.707 139.112C202.091 139.112 201.559 138.995 201.111 138.762C200.663 138.529 200.313 138.193 200.061 137.754C199.818 137.306 199.697 136.779 199.697 136.172V134.128C199.697 133.512 199.818 132.985 200.061 132.546C200.313 132.107 200.663 131.771 201.111 131.538C201.559 131.305 202.091 131.188 202.707 131.188C203.323 131.188 203.855 131.305 204.303 131.538C204.751 131.771 205.096 132.107 205.339 132.546C205.591 132.985 205.717 133.507 205.717 134.114V136.172C205.717 136.779 205.591 137.306 205.339 137.754C205.096 138.193 204.751 138.529 204.303 138.762C203.855 138.995 203.323 139.112 202.707 139.112ZM202.707 137.992C203.258 137.992 203.687 137.838 203.995 137.53C204.303 137.222 204.457 136.769 204.457 136.172V134.128C204.457 133.531 204.303 133.078 203.995 132.77C203.687 132.462 203.258 132.308 202.707 132.308C202.166 132.308 201.736 132.462 201.419 132.77C201.111 133.078 200.957 133.531 200.957 134.128V136.172C200.957 136.769 201.111 137.222 201.419 137.53C201.736 137.838 202.166 137.992 202.707 137.992ZM219.552 139.14C218.936 139.14 218.395 139.023 217.928 138.79C217.471 138.557 217.116 138.221 216.864 137.782C216.612 137.334 216.486 136.807 216.486 136.2V134.1C216.486 133.484 216.612 132.957 216.864 132.518C217.116 132.079 217.471 131.743 217.928 131.51C218.395 131.277 218.936 131.16 219.552 131.16C220.439 131.16 221.153 131.398 221.694 131.874C222.235 132.35 222.52 132.999 222.548 133.82H221.288C221.26 133.325 221.092 132.947 220.784 132.686C220.485 132.415 220.075 132.28 219.552 132.28C219.001 132.28 218.563 132.439 218.236 132.756C217.909 133.064 217.746 133.507 217.746 134.086V136.2C217.746 136.779 217.909 137.227 218.236 137.544C218.563 137.861 219.001 138.02 219.552 138.02C220.075 138.02 220.485 137.885 220.784 137.614C221.092 137.343 221.26 136.965 221.288 136.48H222.548C222.52 137.301 222.235 137.95 221.694 138.426C221.153 138.902 220.439 139.14 219.552 139.14ZM224.979 139V128.78H226.239V131.3V132.77H226.505L226.239 133.064C226.239 132.457 226.421 131.991 226.785 131.664C227.149 131.328 227.653 131.16 228.297 131.16C229.071 131.16 229.687 131.398 230.145 131.874C230.602 132.35 230.831 132.999 230.831 133.82V139H229.571V133.96C229.571 133.409 229.421 132.985 229.123 132.686C228.833 132.378 228.437 132.224 227.933 132.224C227.41 132.224 226.995 132.387 226.687 132.714C226.388 133.041 226.239 133.503 226.239 134.1V139H224.979ZM235.613 139.14C234.801 139.14 234.162 138.935 233.695 138.524C233.228 138.104 232.995 137.539 232.995 136.83C232.995 136.111 233.228 135.547 233.695 135.136C234.162 134.725 234.792 134.52 235.585 134.52H237.965V133.75C237.965 133.274 237.82 132.91 237.531 132.658C237.251 132.397 236.85 132.266 236.327 132.266C235.87 132.266 235.487 132.364 235.179 132.56C234.871 132.747 234.694 133.003 234.647 133.33H233.387C233.471 132.667 233.784 132.14 234.325 131.748C234.866 131.356 235.543 131.16 236.355 131.16C237.242 131.16 237.942 131.389 238.455 131.846C238.968 132.303 239.225 132.924 239.225 133.708V139H237.993V137.53H237.783L237.993 137.32C237.993 137.88 237.774 138.323 237.335 138.65C236.906 138.977 236.332 139.14 235.613 139.14ZM235.921 138.146C236.518 138.146 237.008 137.997 237.391 137.698C237.774 137.399 237.965 137.017 237.965 136.55V135.458H235.613C235.193 135.458 234.862 135.575 234.619 135.808C234.376 136.041 234.255 136.359 234.255 136.76C234.255 137.189 234.4 137.53 234.689 137.782C234.988 138.025 235.398 138.146 235.921 138.146ZM244.68 139.112C244.064 139.112 243.532 138.995 243.084 138.762C242.636 138.529 242.286 138.193 242.034 137.754C241.791 137.306 241.67 136.779 241.67 136.172V134.128C241.67 133.512 241.791 132.985 242.034 132.546C242.286 132.107 242.636 131.771 243.084 131.538C243.532 131.305 244.064 131.188 244.68 131.188C245.296 131.188 245.828 131.305 246.276 131.538C246.724 131.771 247.069 132.107 247.312 132.546C247.564 132.985 247.69 133.507 247.69 134.114V136.172C247.69 136.779 247.564 137.306 247.312 137.754C247.069 138.193 246.724 138.529 246.276 138.762C245.828 138.995 245.296 139.112 244.68 139.112ZM244.68 137.992C245.23 137.992 245.66 137.838 245.968 137.53C246.276 137.222 246.43 136.769 246.43 136.172V134.128C246.43 133.531 246.276 133.078 245.968 132.77C245.66 132.462 245.23 132.308 244.68 132.308C244.138 132.308 243.709 132.462 243.392 132.77C243.084 133.078 242.93 133.531 242.93 134.128V136.172C242.93 136.769 243.084 137.222 243.392 137.53C243.709 137.838 244.138 137.992 244.68 137.992ZM252.836 139.112C252.314 139.112 251.856 139.033 251.464 138.874C251.082 138.706 250.774 138.473 250.54 138.174C250.316 137.875 250.181 137.521 250.134 137.11H251.394C251.45 137.381 251.6 137.595 251.842 137.754C252.094 137.913 252.426 137.992 252.836 137.992H253.424C253.919 137.992 254.288 137.894 254.53 137.698C254.773 137.493 254.894 137.222 254.894 136.886C254.894 136.559 254.782 136.303 254.558 136.116C254.344 135.92 254.022 135.789 253.592 135.724L252.556 135.556C251.8 135.425 251.236 135.192 250.862 134.856C250.498 134.511 250.316 134.011 250.316 133.358C250.316 132.667 250.536 132.135 250.974 131.762C251.413 131.379 252.071 131.188 252.948 131.188H253.48C254.218 131.188 254.81 131.361 255.258 131.706C255.706 132.051 255.977 132.518 256.07 133.106H254.81C254.754 132.863 254.614 132.672 254.39 132.532C254.166 132.383 253.863 132.308 253.48 132.308H252.948C252.472 132.308 252.122 132.397 251.898 132.574C251.684 132.751 251.576 133.017 251.576 133.372C251.576 133.689 251.67 133.923 251.856 134.072C252.043 134.221 252.337 134.329 252.738 134.394L253.774 134.562C254.605 134.693 255.207 134.935 255.58 135.29C255.963 135.645 256.154 136.158 256.154 136.83C256.154 137.539 255.926 138.099 255.468 138.51C255.02 138.911 254.339 139.112 253.424 139.112H252.836ZM266.587 139V131.3H267.693V132.224H267.945L267.749 132.56C267.749 132.131 267.861 131.79 268.085 131.538C268.319 131.286 268.631 131.16 269.023 131.16C269.453 131.16 269.784 131.319 270.017 131.636C270.251 131.953 270.367 132.401 270.367 132.98L269.989 132.224H270.577L270.311 132.56C270.311 132.131 270.428 131.79 270.661 131.538C270.904 131.286 271.221 131.16 271.613 131.16C272.099 131.16 272.472 131.342 272.733 131.706C273.004 132.07 273.139 132.551 273.139 133.148V139H271.977V133.134C271.977 132.817 271.907 132.569 271.767 132.392C271.637 132.215 271.441 132.126 271.179 132.126C270.927 132.126 270.727 132.215 270.577 132.392C270.437 132.56 270.367 132.803 270.367 133.12V139H269.359V133.134C269.359 132.807 269.285 132.56 269.135 132.392C268.995 132.215 268.795 132.126 268.533 132.126C268.272 132.126 268.076 132.215 267.945 132.392C267.815 132.56 267.749 132.803 267.749 133.12V139H266.587ZM278.258 139.112C277.642 139.112 277.11 138.995 276.662 138.762C276.214 138.529 275.864 138.193 275.612 137.754C275.369 137.306 275.248 136.779 275.248 136.172V134.128C275.248 133.512 275.369 132.985 275.612 132.546C275.864 132.107 276.214 131.771 276.662 131.538C277.11 131.305 277.642 131.188 278.258 131.188C278.874 131.188 279.406 131.305 279.854 131.538C280.302 131.771 280.647 132.107 280.89 132.546C281.142 132.985 281.268 133.507 281.268 134.114V136.172C281.268 136.779 281.142 137.306 280.89 137.754C280.647 138.193 280.302 138.529 279.854 138.762C279.406 138.995 278.874 139.112 278.258 139.112ZM278.258 137.992C278.808 137.992 279.238 137.838 279.546 137.53C279.854 137.222 280.008 136.769 280.008 136.172V134.128C280.008 133.531 279.854 133.078 279.546 132.77C279.238 132.462 278.808 132.308 278.258 132.308C277.716 132.308 277.287 132.462 276.97 132.77C276.662 133.078 276.508 133.531 276.508 134.128V136.172C276.508 136.769 276.662 137.222 276.97 137.53C277.287 137.838 277.716 137.992 278.258 137.992ZM286.204 139.14C285.439 139.14 284.818 138.883 284.342 138.37C283.876 137.857 283.642 137.161 283.642 136.284V134.03C283.642 133.143 283.876 132.443 284.342 131.93C284.809 131.417 285.43 131.16 286.204 131.16C286.839 131.16 287.348 131.333 287.73 131.678C288.113 132.023 288.304 132.485 288.304 133.064L288.052 132.77H288.332L288.304 131.02V128.78H289.564V139H288.304V137.53H288.052L288.304 137.236C288.304 137.824 288.113 138.291 287.73 138.636C287.348 138.972 286.839 139.14 286.204 139.14ZM286.624 138.048C287.147 138.048 287.558 137.885 287.856 137.558C288.155 137.231 288.304 136.779 288.304 136.2V134.1C288.304 133.521 288.155 133.069 287.856 132.742C287.558 132.415 287.147 132.252 286.624 132.252C286.092 132.252 285.672 132.411 285.364 132.728C285.056 133.045 284.902 133.503 284.902 134.1V136.2C284.902 136.797 285.056 137.255 285.364 137.572C285.672 137.889 286.092 138.048 286.624 138.048ZM295.047 139.14C294.44 139.14 293.908 139.019 293.451 138.776C293.003 138.533 292.653 138.193 292.401 137.754C292.158 137.306 292.037 136.788 292.037 136.2V134.1C292.037 133.503 292.158 132.985 292.401 132.546C292.653 132.107 293.003 131.767 293.451 131.524C293.908 131.281 294.44 131.16 295.047 131.16C295.654 131.16 296.181 131.281 296.629 131.524C297.086 131.767 297.436 132.107 297.679 132.546C297.931 132.985 298.057 133.503 298.057 134.1V135.458H293.269V136.2C293.269 136.807 293.423 137.273 293.731 137.6C294.039 137.917 294.478 138.076 295.047 138.076C295.532 138.076 295.924 137.992 296.223 137.824C296.522 137.647 296.704 137.385 296.769 137.04H298.029C297.945 137.684 297.628 138.197 297.077 138.58C296.536 138.953 295.859 139.14 295.047 139.14ZM296.825 134.618V134.1C296.825 133.493 296.671 133.027 296.363 132.7C296.064 132.373 295.626 132.21 295.047 132.21C294.478 132.21 294.039 132.373 293.731 132.7C293.423 133.027 293.269 133.493 293.269 134.1V134.506H296.923L296.825 134.618ZM311.836 135.57C311.351 135.57 310.949 135.411 310.632 135.094C310.315 134.777 310.156 134.375 310.156 133.89C310.156 133.395 310.315 132.994 310.632 132.686C310.949 132.369 311.351 132.21 311.836 132.21C312.331 132.21 312.732 132.369 313.04 132.686C313.357 132.994 313.516 133.395 313.516 133.89C313.516 134.375 313.357 134.777 313.04 135.094C312.732 135.411 312.331 135.57 311.836 135.57Z" fill="#F8F8F2"/>
</g>
<defs>
<filter id="filter0_dd_8_65" x="0.5" y="0.5" width="402" height="183" filterUnits="userSpaceOnUse" color-interpolation-filters="sRGB">
<feFlood flood-opacity="0" result="BackgroundImageFix"/>
<feColorMatrix in="SourceAlpha" type="matrix" values="0 0 0 0 0 0 0 0 0 0 0 0 0 0 0 0 0 0 127 0" result="hardAlpha"/>
<feMorphology radius="4" operator="dilate" in="SourceAlpha" result="effect1_dropShadow_8_65"/>
<feOffset/>
<feGaussianBlur stdDeviation="7.5"/>
<feComposite in2="hardAlpha" operator="out"/>
<feColorMatrix type="matrix" values="0 0 0 0 0.972549 0 0 0 0 0.972549 0 0 0 0 0.94902 0 0 0 0.6 0"/>
<feBlend mode="normal" in2="BackgroundImageFix" result="effect1_dropShadow_8_65"/>
<feColorMatrix in="SourceAlpha" type="matrix" values="0 0 0 0 0 0 0 0 0 0 0 0 0 0 0 0 0 0 127 0" result="hardAlpha"/>
<feOffset dx="-4" dy="4"/>
<feComposite in2="hardAlpha" operator="out"/>
<feColorMatrix type="matrix" values="0 0 0 0 0 0 0 0 0 0 0 0 0 0 0 0 0 0 0.5 0"/>
<feBlend mode="normal" in2="effect1_dropShadow_8_65" result="effect2_dropShadow_8_65"/>
<feBlend mode="normal" in="SourceGraphic" in2="effect2_dropShadow_8_65" result="shape"/>
</filter>
</defs>
</svg>
