<svg width="32" height="32" viewBox="0 0 32 32" xmlns="http://www.w3.org/2000/svg">
  <!-- Dark space background -->
  <rect width="32" height="32" fill="#1d1e19"/>
  
  <!-- Distant stars -->
  <circle cx="4" cy="4" r="0.8" fill="#66d9ef" opacity="0.9"/>
  <circle cx="28" cy="6" r="0.6" fill="#a6e22e" opacity="0.8"/>
  <circle cx="6" cy="28" r="0.7" fill="#fd971f" opacity="0.7"/>
  <circle cx="26" cy="26" r="0.5" fill="#ae81ff" opacity="0.8"/>
  <circle cx="14" cy="2" r="0.4" fill="#f92672" opacity="0.9"/>
  <circle cx="30" cy="16" r="0.6" fill="#66d9ef" opacity="0.6"/>
  <circle cx="2" cy="16" r="0.5" fill="#a6e22e" opacity="0.7"/>
  
  <!-- Main creative planet -->
  <circle cx="16" cy="16" r="9" fill="url(#planetGradient)"/>
  
  <!-- Planet atmosphere glow -->
  <circle cx="16" cy="16" r="11" fill="none" stroke="#66d9ef" stroke-width="0.8" opacity="0.4"/>
  <circle cx="16" cy="16" r="12" fill="none" stroke="#66d9ef" stroke-width="0.3" opacity="0.2"/>
  
  <!-- Planet surface features (creative continents) -->
  <ellipse cx="13" cy="13" rx="2.5" ry="1.8" fill="#a6e22e" opacity="0.5"/>
  <ellipse cx="19" cy="17" rx="2" ry="1.2" fill="#fd971f" opacity="0.4"/>
  <ellipse cx="11" cy="19" rx="1.5" ry="1" fill="#ae81ff" opacity="0.5"/>
  <ellipse cx="18" cy="12" rx="1.2" ry="0.8" fill="#f92672" opacity="0.3"/>
  
  <!-- Creative sparkles around the planet -->
  <g transform="translate(24, 10)">
    <path d="M0,-1.5 L0,1.5 M-1.5,0 L1.5,0" stroke="#f92672" stroke-width="0.6" opacity="0.9"/>
    <circle cx="0" cy="0" r="0.3" fill="#f92672"/>
  </g>
  
  <g transform="translate(8, 22)">
    <path d="M0,-1.2 L0,1.2 M-1.2,0 L1.2,0" stroke="#a6e22e" stroke-width="0.5" opacity="0.8"/>
    <circle cx="0" cy="0" r="0.2" fill="#a6e22e"/>
  </g>
  
  <g transform="translate(26, 20)">
    <path d="M0,-1 L0,1 M-1,0 L1,0" stroke="#66d9ef" stroke-width="0.4" opacity="0.7"/>
    <circle cx="0" cy="0" r="0.2" fill="#66d9ef"/>
  </g>
  
  <!-- Small orbiting element (representing creativity) -->
  <g transform="translate(16, 16)">
    <circle cx="0" cy="-15" r="1.2" fill="#f92672" opacity="0.8"/>
    <circle cx="0" cy="-15" r="1.8" fill="none" stroke="#f92672" stroke-width="0.3" opacity="0.4"/>
  </g>
  
  <!-- Gradients -->
  <defs>
    <radialGradient id="planetGradient" cx="0.35" cy="0.35" r="0.8">
      <stop offset="0%" stop-color="#3e3d32"/>
      <stop offset="60%" stop-color="#272822"/>
      <stop offset="100%" stop-color="#1d1e19"/>
    </radialGradient>
  </defs>
</svg>
