<svg width="222" height="120" viewBox="0 0 222 120" fill="none" xmlns="http://www.w3.org/2000/svg">
<g filter="url(#filter0_dd_8_66)">
<rect x="21" y="21" width="180" height="78" rx="24" fill="#272822" fill-opacity="0.9" shape-rendering="crispEdges"/>
<rect x="21" y="21" width="180" height="78" rx="24" stroke="#F92672" stroke-width="3" shape-rendering="crispEdges"/>
<path d="M40.54 67V52.4H43.04V58.26H46.96V52.4H49.46V67H46.96V60.58H43.04V67H40.54ZM57.0122 67.2C56.0789 67.2 55.2655 67.02 54.5722 66.66C53.8789 66.3 53.3389 65.8 52.9522 65.16C52.5789 64.5067 52.3922 63.7467 52.3922 62.88V60.12C52.3922 59.2533 52.5789 58.5 52.9522 57.86C53.3389 57.2067 53.8789 56.7 54.5722 56.34C55.2655 55.98 56.0789 55.8 57.0122 55.8C57.9322 55.8 58.7322 55.98 59.4122 56.34C60.1055 56.7 60.6389 57.2067 61.0122 57.86C61.3989 58.5 61.5922 59.2533 61.5922 60.12V62.1H54.8122V62.88C54.8122 63.6533 54.9989 64.24 55.3722 64.64C55.7455 65.0267 56.2989 65.22 57.0322 65.22C57.5922 65.22 58.0455 65.1267 58.3922 64.94C58.7389 64.74 58.9589 64.4533 59.0522 64.08H61.5122C61.3255 65.0267 60.8189 65.7867 59.9922 66.36C59.1789 66.92 58.1855 67.2 57.0122 67.2ZM59.1722 60.7V60.1C59.1722 59.34 58.9922 58.76 58.6322 58.36C58.2722 57.9467 57.7322 57.74 57.0122 57.74C56.2922 57.74 55.7455 57.9467 55.3722 58.36C54.9989 58.7733 54.8122 59.36 54.8122 60.12V60.54L59.3522 60.5L59.1722 60.7ZM64.8644 67V56H67.2244V58.1H67.8444L67.1044 59.38C67.1044 58.1933 67.371 57.3 67.9044 56.7C68.4377 56.1 69.2244 55.8 70.2644 55.8C71.451 55.8 72.3844 56.1667 73.0644 56.9C73.7444 57.6333 74.0844 58.6467 74.0844 59.94V60.74H71.4644V60.12C71.4644 59.4133 71.2777 58.8667 70.9044 58.48C70.5444 58.0933 70.0444 57.9 69.4044 57.9C68.751 57.9 68.2444 58.0933 67.8844 58.48C67.5377 58.8667 67.3644 59.4133 67.3644 60.12V67H64.8644ZM80.9766 67.18C80.0432 67.18 79.2299 67.0067 78.5366 66.66C77.8566 66.3 77.3232 65.8 76.9366 65.16C76.5632 64.5067 76.3766 63.74 76.3766 62.86V60.14C76.3766 59.26 76.5632 58.5 76.9366 57.86C77.3232 57.2067 77.8566 56.7067 78.5366 56.36C79.2299 56 80.0432 55.82 80.9766 55.82C81.9232 55.82 82.7366 56 83.4166 56.36C84.0966 56.7067 84.6232 57.2067 84.9966 57.86C85.3832 58.5 85.5766 59.2533 85.5766 60.12V62.86C85.5766 63.74 85.3832 64.5067 84.9966 65.16C84.6232 65.8 84.0966 66.3 83.4166 66.66C82.7366 67.0067 81.9232 67.18 80.9766 67.18ZM80.9766 65C81.6432 65 82.1566 64.82 82.5166 64.46C82.8899 64.0867 83.0766 63.5533 83.0766 62.86V60.14C83.0766 59.4333 82.8899 58.9 82.5166 58.54C82.1566 58.18 81.6432 58 80.9766 58C80.3232 58 79.8099 58.18 79.4366 58.54C79.0632 58.9 78.8766 59.4333 78.8766 60.14V62.86C78.8766 63.5533 79.0632 64.0867 79.4366 64.46C79.8099 64.82 80.3232 65 80.9766 65ZM105.001 67.2C104.001 67.2 103.134 67.0333 102.401 66.7C101.668 66.3667 101.101 65.8933 100.701 65.28C100.314 64.6533 100.114 63.92 100.101 63.08H102.601C102.601 63.68 102.814 64.1533 103.241 64.5C103.681 64.8333 104.274 65 105.021 65C105.741 65 106.301 64.8333 106.701 64.5C107.114 64.1667 107.321 63.7067 107.321 63.12C107.321 62.6267 107.174 62.2 106.881 61.84C106.601 61.4667 106.194 61.2133 105.661 61.08L103.981 60.62C102.834 60.3267 101.948 59.8 101.321 59.04C100.708 58.28 100.401 57.36 100.401 56.28C100.401 55.4533 100.588 54.7333 100.961 54.12C101.334 53.5067 101.861 53.0333 102.541 52.7C103.234 52.3667 104.048 52.2 104.981 52.2C106.394 52.2 107.514 52.5667 108.341 53.3C109.168 54.02 109.588 54.9933 109.601 56.22H107.101C107.101 55.6467 106.914 55.2 106.541 54.88C106.168 54.5467 105.641 54.38 104.961 54.38C104.308 54.38 103.801 54.5333 103.441 54.84C103.081 55.1467 102.901 55.58 102.901 56.14C102.901 56.6467 103.034 57.08 103.301 57.44C103.581 57.7867 103.981 58.0333 104.501 58.18L106.241 58.66C107.401 58.9533 108.288 59.48 108.901 60.24C109.514 60.9867 109.821 61.9133 109.821 63.02C109.821 63.8467 109.621 64.58 109.221 65.22C108.821 65.8467 108.261 66.3333 107.541 66.68C106.821 67.0267 105.974 67.2 105.001 67.2ZM116.973 67.2C116.04 67.2 115.226 67.02 114.533 66.66C113.84 66.3 113.3 65.8 112.913 65.16C112.54 64.5067 112.353 63.7467 112.353 62.88V60.12C112.353 59.2533 112.54 58.5 112.913 57.86C113.3 57.2067 113.84 56.7 114.533 56.34C115.226 55.98 116.04 55.8 116.973 55.8C117.893 55.8 118.693 55.98 119.373 56.34C120.066 56.7 120.6 57.2067 120.973 57.86C121.36 58.5 121.553 59.2533 121.553 60.12V62.1H114.773V62.88C114.773 63.6533 114.96 64.24 115.333 64.64C115.706 65.0267 116.26 65.22 116.993 65.22C117.553 65.22 118.006 65.1267 118.353 64.94C118.7 64.74 118.92 64.4533 119.013 64.08H121.473C121.286 65.0267 120.78 65.7867 119.953 66.36C119.14 66.92 118.146 67.2 116.973 67.2ZM119.133 60.7V60.1C119.133 59.34 118.953 58.76 118.593 58.36C118.233 57.9467 117.693 57.74 116.973 57.74C116.253 57.74 115.706 57.9467 115.333 58.36C114.96 58.7733 114.773 59.36 114.773 60.12V60.54L119.313 60.5L119.133 60.7ZM129.005 67.2C128.072 67.2 127.252 67.0267 126.545 66.68C125.852 66.32 125.312 65.82 124.925 65.18C124.539 64.5267 124.345 63.76 124.345 62.88V60.12C124.345 59.2267 124.539 58.46 124.925 57.82C125.312 57.18 125.852 56.6867 126.545 56.34C127.252 55.98 128.072 55.8 129.005 55.8C130.392 55.8 131.499 56.16 132.325 56.88C133.152 57.5867 133.585 58.5533 133.625 59.78H131.125C131.085 59.2067 130.879 58.7667 130.505 58.46C130.145 58.14 129.645 57.98 129.005 57.98C128.339 57.98 127.812 58.1667 127.425 58.54C127.039 58.9 126.845 59.42 126.845 60.1V62.88C126.845 63.56 127.039 64.0867 127.425 64.46C127.812 64.8333 128.339 65.02 129.005 65.02C129.645 65.02 130.145 64.8667 130.505 64.56C130.879 64.24 131.085 63.7933 131.125 63.22H133.625C133.585 64.4467 133.152 65.42 132.325 66.14C131.499 66.8467 130.392 67.2 129.005 67.2ZM142.138 67C141.084 67 140.258 66.7067 139.658 66.12C139.071 65.5333 138.778 64.7267 138.778 63.7V58.26H135.798V56H138.778V52.9H141.298V56H145.518V58.26H141.298V63.7C141.298 64.3933 141.638 64.74 142.318 64.74H145.318V67H142.138ZM148.45 67V64.72H152.29V58.26H148.95V56H154.69V64.72H158.09V67H148.45ZM153.29 54.16C152.783 54.16 152.383 54.0333 152.09 53.78C151.796 53.5133 151.65 53.16 151.65 52.72C151.65 52.28 151.796 51.9333 152.09 51.68C152.383 51.4133 152.783 51.28 153.29 51.28C153.796 51.28 154.196 51.4133 154.49 51.68C154.783 51.9333 154.93 52.28 154.93 52.72C154.93 53.16 154.783 53.5133 154.49 53.78C154.196 54.0333 153.796 54.16 153.29 54.16ZM164.922 67.18C163.989 67.18 163.175 67.0067 162.482 66.66C161.802 66.3 161.269 65.8 160.882 65.16C160.509 64.5067 160.322 63.74 160.322 62.86V60.14C160.322 59.26 160.509 58.5 160.882 57.86C161.269 57.2067 161.802 56.7067 162.482 56.36C163.175 56 163.989 55.82 164.922 55.82C165.869 55.82 166.682 56 167.362 56.36C168.042 56.7067 168.569 57.2067 168.942 57.86C169.329 58.5 169.522 59.2533 169.522 60.12V62.86C169.522 63.74 169.329 64.5067 168.942 65.16C168.569 65.8 168.042 66.3 167.362 66.66C166.682 67.0067 165.869 67.18 164.922 67.18ZM164.922 65C165.589 65 166.102 64.82 166.462 64.46C166.835 64.0867 167.022 63.5533 167.022 62.86V60.14C167.022 59.4333 166.835 58.9 166.462 58.54C166.102 58.18 165.589 58 164.922 58C164.269 58 163.755 58.18 163.382 58.54C163.009 58.9 162.822 59.4333 162.822 60.14V62.86C162.822 63.5533 163.009 64.0867 163.382 64.46C163.755 64.82 164.269 65 164.922 65ZM172.454 67V56H174.894V58.1H175.574L174.894 58.68C174.894 57.7733 175.154 57.0667 175.674 56.56C176.207 56.0533 176.934 55.8 177.854 55.8C178.934 55.8 179.794 56.16 180.434 56.88C181.087 57.6 181.414 58.5667 181.414 59.78V67H178.914V60.04C178.914 59.3733 178.741 58.86 178.394 58.5C178.047 58.14 177.561 57.96 176.934 57.96C176.321 57.96 175.834 58.1467 175.474 58.52C175.127 58.8933 174.954 59.4267 174.954 60.12V67H172.454Z" fill="#F92672"/>
</g>
<defs>
<filter id="filter0_dd_8_66" x="0.5" y="0.5" width="221" height="119" filterUnits="userSpaceOnUse" color-interpolation-filters="sRGB">
<feFlood flood-opacity="0" result="BackgroundImageFix"/>
<feColorMatrix in="SourceAlpha" type="matrix" values="0 0 0 0 0 0 0 0 0 0 0 0 0 0 0 0 0 0 127 0" result="hardAlpha"/>
<feMorphology radius="4" operator="dilate" in="SourceAlpha" result="effect1_dropShadow_8_66"/>
<feOffset/>
<feGaussianBlur stdDeviation="7.5"/>
<feComposite in2="hardAlpha" operator="out"/>
<feColorMatrix type="matrix" values="0 0 0 0 0.972549 0 0 0 0 0.972549 0 0 0 0 0.94902 0 0 0 0.6 0"/>
<feBlend mode="normal" in2="BackgroundImageFix" result="effect1_dropShadow_8_66"/>
<feColorMatrix in="SourceAlpha" type="matrix" values="0 0 0 0 0 0 0 0 0 0 0 0 0 0 0 0 0 0 127 0" result="hardAlpha"/>
<feOffset dx="-4" dy="4"/>
<feComposite in2="hardAlpha" operator="out"/>
<feColorMatrix type="matrix" values="0 0 0 0 0 0 0 0 0 0 0 0 0 0 0 0 0 0 0.5 0"/>
<feBlend mode="normal" in2="effect1_dropShadow_8_66" result="effect2_dropShadow_8_66"/>
<feBlend mode="normal" in="SourceGraphic" in2="effect2_dropShadow_8_66" result="shape"/>
</filter>
</defs>
</svg>
