<svg width="525" height="316" viewBox="0 0 525 316" fill="none" xmlns="http://www.w3.org/2000/svg">
<g filter="url(#filter0_dd_8_68)">
<rect x="21" y="21" width="483" height="274" rx="24" stroke="#A6E22E" stroke-width="3" shape-rendering="crispEdges"/>
<g filter="url(#filter1_d_8_68)">
<path d="M105.926 270V264.7L101.646 255.4H104.266L106.546 260.46C106.719 260.86 106.866 261.253 106.986 261.64C107.106 262.027 107.186 262.327 107.226 262.54C107.279 262.327 107.359 262.027 107.466 261.64C107.586 261.253 107.733 260.86 107.906 260.46L110.126 255.4H112.726L108.446 264.7V270H105.926ZM121.978 270.2C121.045 270.2 120.231 270.027 119.538 269.68C118.858 269.32 118.331 268.82 117.958 268.18C117.598 267.527 117.418 266.76 117.418 265.88V259.52C117.418 258.64 117.598 257.88 117.958 257.24C118.331 256.587 118.858 256.087 119.538 255.74C120.231 255.38 121.045 255.2 121.978 255.2C122.925 255.2 123.738 255.38 124.418 255.74C125.098 256.087 125.618 256.587 125.978 257.24C126.351 257.88 126.538 258.633 126.538 259.5V265.88C126.538 266.76 126.351 267.527 125.978 268.18C125.618 268.82 125.098 269.32 124.418 269.68C123.738 270.027 122.925 270.2 121.978 270.2ZM121.978 268C122.658 268 123.171 267.82 123.518 267.46C123.865 267.087 124.038 266.56 124.038 265.88V259.52C124.038 258.827 123.865 258.3 123.518 257.94C123.171 257.58 122.658 257.4 121.978 257.4C121.298 257.4 120.785 257.58 120.438 257.94C120.091 258.3 119.918 258.827 119.918 259.52V265.88C119.918 266.56 120.091 267.087 120.438 267.46C120.798 267.82 121.311 268 121.978 268ZM136.77 270.2C135.344 270.2 134.224 269.813 133.41 269.04C132.61 268.253 132.21 267.187 132.21 265.84V255.4H134.73V265.82C134.73 266.513 134.904 267.053 135.25 267.44C135.597 267.827 136.104 268.02 136.77 268.02C137.424 268.02 137.924 267.827 138.27 267.44C138.63 267.053 138.81 266.513 138.81 265.82V255.4H141.33V265.84C141.33 267.187 140.93 268.253 140.13 269.04C139.33 269.813 138.21 270.2 136.77 270.2ZM161.055 270L164.735 255.4H167.955L171.655 270H169.095L168.295 266.46H164.415L163.615 270H161.055ZM164.875 264.42H167.835L166.955 260.5C166.808 259.847 166.681 259.26 166.575 258.74C166.468 258.207 166.395 257.82 166.355 257.58C166.315 257.82 166.241 258.207 166.135 258.74C166.041 259.26 165.915 259.84 165.755 260.48L164.875 264.42ZM176.667 270V255.4H181.287C182.26 255.4 183.1 255.58 183.807 255.94C184.527 256.3 185.087 256.807 185.487 257.46C185.887 258.1 186.087 258.86 186.087 259.74C186.087 260.7 185.84 261.547 185.347 262.28C184.867 263.013 184.214 263.533 183.387 263.84L186.287 270H183.487L180.947 264.2H179.167V270H176.667ZM179.167 262H181.287C181.994 262 182.547 261.807 182.947 261.42C183.347 261.033 183.547 260.5 183.547 259.82C183.547 259.127 183.347 258.587 182.947 258.2C182.547 257.8 181.994 257.6 181.287 257.6H179.167V262ZM191.699 270V255.4H200.459V257.58H194.159V261.38H199.759V263.54H194.159V267.82H200.459V270H191.699ZM224.263 270V257.72H220.443V255.4H230.603V257.72H226.783V270H224.263ZM235.856 270V255.4H238.356V261.26H242.276V255.4H244.776V270H242.276V263.58H238.356V270H235.856ZM250.868 270V255.4H259.628V257.58H253.328V261.38H258.928V263.54H253.328V267.82H259.628V270H250.868ZM280.212 270V255.4H284.832C285.806 255.4 286.646 255.58 287.352 255.94C288.072 256.3 288.632 256.807 289.032 257.46C289.432 258.1 289.632 258.86 289.632 259.74C289.632 260.7 289.386 261.547 288.892 262.28C288.412 263.013 287.759 263.533 286.932 263.84L289.832 270H287.032L284.492 264.2H282.712V270H280.212ZM282.712 262H284.832C285.539 262 286.092 261.807 286.492 261.42C286.892 261.033 287.092 260.5 287.092 259.82C287.092 259.127 286.892 258.587 286.492 258.2C286.092 257.8 285.539 257.6 284.832 257.6H282.712V262ZM295.244 270V255.4H304.004V257.58H297.704V261.38H303.304V263.54H297.704V267.82H304.004V270H295.244ZM308.977 270L312.657 255.4H315.877L319.577 270H317.017L316.217 266.46H312.337L311.537 270H308.977ZM312.797 264.42H315.757L314.877 260.5C314.73 259.847 314.603 259.26 314.497 258.74C314.39 258.207 314.317 257.82 314.277 257.58C314.237 257.82 314.163 258.207 314.057 258.74C313.963 259.26 313.837 259.84 313.677 260.48L312.797 264.42ZM325.129 270V255.4H327.629V267.68H333.829V270H325.129ZM354.193 270V255.4H356.693V261.26H360.613V255.4H363.113V270H360.613V263.58H356.693V270H354.193ZM369.205 270V255.4H377.965V257.58H371.665V261.38H377.265V263.54H371.665V267.82H377.965V270H369.205ZM383.758 270V255.4H388.378C389.351 255.4 390.191 255.58 390.898 255.94C391.618 256.3 392.178 256.807 392.578 257.46C392.978 258.1 393.178 258.86 393.178 259.74C393.178 260.7 392.931 261.547 392.438 262.28C391.958 263.013 391.304 263.533 390.478 263.84L393.378 270H390.578L388.038 264.2H386.258V270H383.758ZM386.258 262H388.378C389.084 262 389.638 261.807 390.038 261.42C390.438 261.033 390.638 260.5 390.638 259.82C390.638 259.127 390.438 258.587 390.038 258.2C389.638 257.8 389.084 257.6 388.378 257.6H386.258V262ZM403.03 270.2C402.096 270.2 401.283 270.027 400.59 269.68C399.91 269.32 399.383 268.82 399.01 268.18C398.65 267.527 398.47 266.76 398.47 265.88V259.52C398.47 258.64 398.65 257.88 399.01 257.24C399.383 256.587 399.91 256.087 400.59 255.74C401.283 255.38 402.096 255.2 403.03 255.2C403.976 255.2 404.79 255.38 405.47 255.74C406.15 256.087 406.67 256.587 407.03 257.24C407.403 257.88 407.59 258.633 407.59 259.5V265.88C407.59 266.76 407.403 267.527 407.03 268.18C406.67 268.82 406.15 269.32 405.47 269.68C404.79 270.027 403.976 270.2 403.03 270.2ZM403.03 268C403.71 268 404.223 267.82 404.57 267.46C404.916 267.087 405.09 266.56 405.09 265.88V259.52C405.09 258.827 404.916 258.3 404.57 257.94C404.223 257.58 403.71 257.4 403.03 257.4C402.35 257.4 401.836 257.58 401.49 257.94C401.143 258.3 400.97 258.827 400.97 259.52V265.88C400.97 266.56 401.143 267.087 401.49 267.46C401.85 267.82 402.363 268 403.03 268ZM416.902 265.34L416.462 258.16V255.4H419.182V258.16L418.742 265.34H416.902ZM417.522 270.1C417.109 270.1 416.775 269.98 416.522 269.74C416.269 269.487 416.142 269.167 416.142 268.78C416.142 268.393 416.269 268.08 416.522 267.84C416.775 267.587 417.109 267.46 417.522 267.46H418.122C418.549 267.46 418.882 267.58 419.122 267.82C419.375 268.06 419.502 268.38 419.502 268.78C419.502 269.167 419.375 269.487 419.122 269.74C418.869 269.98 418.529 270.1 418.102 270.1H417.522Z" fill="#A6E22E"/>
</g>
</g>
<defs>
<filter id="filter0_dd_8_68" x="0.5" y="0.5" width="524" height="315" filterUnits="userSpaceOnUse" color-interpolation-filters="sRGB">
<feFlood flood-opacity="0" result="BackgroundImageFix"/>
<feColorMatrix in="SourceAlpha" type="matrix" values="0 0 0 0 0 0 0 0 0 0 0 0 0 0 0 0 0 0 127 0" result="hardAlpha"/>
<feMorphology radius="4" operator="dilate" in="SourceAlpha" result="effect1_dropShadow_8_68"/>
<feOffset/>
<feGaussianBlur stdDeviation="7.5"/>
<feComposite in2="hardAlpha" operator="out"/>
<feColorMatrix type="matrix" values="0 0 0 0 0.972549 0 0 0 0 0.972549 0 0 0 0 0.94902 0 0 0 0.6 0"/>
<feBlend mode="normal" in2="BackgroundImageFix" result="effect1_dropShadow_8_68"/>
<feColorMatrix in="SourceAlpha" type="matrix" values="0 0 0 0 0 0 0 0 0 0 0 0 0 0 0 0 0 0 127 0" result="hardAlpha"/>
<feOffset dx="-4" dy="4"/>
<feComposite in2="hardAlpha" operator="out"/>
<feColorMatrix type="matrix" values="0 0 0 0 0 0 0 0 0 0 0 0 0 0 0 0 0 0 0.5 0"/>
<feBlend mode="normal" in2="effect1_dropShadow_8_68" result="effect2_dropShadow_8_68"/>
<feBlend mode="normal" in="SourceGraphic" in2="effect2_dropShadow_8_68" result="shape"/>
</filter>
<filter id="filter1_d_8_68" x="82.6459" y="236.2" width="355.856" height="53" filterUnits="userSpaceOnUse" color-interpolation-filters="sRGB">
<feFlood flood-opacity="0" result="BackgroundImageFix"/>
<feColorMatrix in="SourceAlpha" type="matrix" values="0 0 0 0 0 0 0 0 0 0 0 0 0 0 0 0 0 0 127 0" result="hardAlpha"/>
<feMorphology radius="4" operator="dilate" in="SourceAlpha" result="effect1_dropShadow_8_68"/>
<feOffset/>
<feGaussianBlur stdDeviation="7.5"/>
<feComposite in2="hardAlpha" operator="out"/>
<feColorMatrix type="matrix" values="0 0 0 0 0.972549 0 0 0 0 0.972549 0 0 0 0 0.94902 0 0 0 0.6 0"/>
<feBlend mode="normal" in2="BackgroundImageFix" result="effect1_dropShadow_8_68"/>
<feBlend mode="normal" in="SourceGraphic" in2="effect1_dropShadow_8_68" result="shape"/>
</filter>
</defs>
</svg>
