<svg width="424" height="480" viewBox="0 0 424 480" fill="none" xmlns="http://www.w3.org/2000/svg">
<g clip-path="url(#clip0_8_64)">
<g filter="url(#filter0_dd_8_64)">
<rect x="33" y="30" width="358" height="178" rx="24" fill="#272822" fill-opacity="0.9" shape-rendering="crispEdges"/>
<rect x="33" y="30" width="358" height="178" rx="24" stroke="#A6E22E" stroke-width="3" shape-rendering="crispEdges"/>
<path d="M123.099 80V69H125.139V70.48H125.559L125.219 70.84C125.219 70.2267 125.392 69.7333 125.739 69.36C126.085 68.9867 126.532 68.8 127.079 68.8C127.665 68.8 128.119 69.04 128.439 69.52C128.772 70 128.939 70.6467 128.939 71.46L128.499 70.48H129.179L128.919 70.84C128.919 70.2267 129.092 69.7333 129.439 69.36C129.785 68.9867 130.245 68.8 130.819 68.8C131.499 68.8 132.039 69.0533 132.439 69.56C132.839 70.0667 133.039 70.7533 133.039 71.62V80H130.839V71.72C130.839 71.36 130.759 71.08 130.599 70.88C130.439 70.6667 130.205 70.56 129.899 70.56C129.605 70.56 129.372 70.66 129.199 70.86C129.039 71.06 128.959 71.3467 128.959 71.72V80H127.159V71.72C127.159 71.3467 127.079 71.06 126.919 70.86C126.759 70.66 126.525 70.56 126.219 70.56C125.912 70.56 125.679 70.66 125.519 70.86C125.372 71.06 125.299 71.3467 125.299 71.72V80H123.099ZM135.571 80V77.72H139.411V71.26H136.071V69H141.811V77.72H145.211V80H135.571ZM140.411 67.16C139.904 67.16 139.504 67.0333 139.211 66.78C138.917 66.5133 138.771 66.16 138.771 65.72C138.771 65.28 138.917 64.9333 139.211 64.68C139.504 64.4133 139.904 64.28 140.411 64.28C140.917 64.28 141.317 64.4133 141.611 64.68C141.904 64.9333 142.051 65.28 142.051 65.72C142.051 66.16 141.904 66.5133 141.611 66.78C141.317 67.0333 140.917 67.16 140.411 67.16ZM151.623 80.18C150.783 80.18 150.05 80.0467 149.423 79.78C148.796 79.5133 148.303 79.1467 147.943 78.68C147.596 78.2 147.41 77.64 147.383 77H149.883C149.91 77.3467 150.076 77.6267 150.383 77.84C150.703 78.0533 151.116 78.16 151.623 78.16H152.503C153.116 78.16 153.576 78.04 153.883 77.8C154.19 77.56 154.343 77.2333 154.343 76.82C154.343 76.4333 154.203 76.1333 153.923 75.92C153.656 75.6933 153.236 75.5467 152.663 75.48L151.303 75.28C150.05 75.1067 149.13 74.7733 148.543 74.28C147.956 73.7867 147.663 73.0467 147.663 72.06C147.663 71.0333 148.01 70.24 148.703 69.68C149.396 69.1067 150.416 68.82 151.763 68.82H152.523C153.75 68.82 154.73 69.0933 155.463 69.64C156.196 70.1867 156.59 70.92 156.643 71.84H154.143C154.103 71.5467 153.936 71.3067 153.643 71.12C153.363 70.9333 152.99 70.84 152.523 70.84H151.763C151.19 70.84 150.77 70.9467 150.503 71.16C150.25 71.36 150.123 71.66 150.123 72.06C150.123 72.4333 150.236 72.7133 150.463 72.9C150.69 73.0733 151.056 73.2 151.563 73.28L152.983 73.48C154.29 73.6667 155.25 74.02 155.863 74.54C156.49 75.0467 156.803 75.8 156.803 76.8C156.803 77.8667 156.436 78.7 155.703 79.3C154.983 79.8867 153.916 80.18 152.503 80.18H151.623ZM163.615 80.18C162.775 80.18 162.042 80.0467 161.415 79.78C160.788 79.5133 160.295 79.1467 159.935 78.68C159.588 78.2 159.402 77.64 159.375 77H161.875C161.902 77.3467 162.068 77.6267 162.375 77.84C162.695 78.0533 163.108 78.16 163.615 78.16H164.495C165.108 78.16 165.568 78.04 165.875 77.8C166.182 77.56 166.335 77.2333 166.335 76.82C166.335 76.4333 166.195 76.1333 165.915 75.92C165.648 75.6933 165.228 75.5467 164.655 75.48L163.295 75.28C162.042 75.1067 161.122 74.7733 160.535 74.28C159.948 73.7867 159.655 73.0467 159.655 72.06C159.655 71.0333 160.002 70.24 160.695 69.68C161.388 69.1067 162.408 68.82 163.755 68.82H164.515C165.742 68.82 166.722 69.0933 167.455 69.64C168.188 70.1867 168.582 70.92 168.635 71.84H166.135C166.095 71.5467 165.928 71.3067 165.635 71.12C165.355 70.9333 164.982 70.84 164.515 70.84H163.755C163.182 70.84 162.762 70.9467 162.495 71.16C162.242 71.36 162.115 71.66 162.115 72.06C162.115 72.4333 162.228 72.7133 162.455 72.9C162.682 73.0733 163.048 73.2 163.555 73.28L164.975 73.48C166.282 73.6667 167.242 74.02 167.855 74.54C168.482 75.0467 168.795 75.8 168.795 76.8C168.795 77.8667 168.428 78.7 167.695 79.3C166.975 79.8867 165.908 80.18 164.495 80.18H163.615ZM171.547 80V77.72H175.387V71.26H172.047V69H177.787V77.72H181.187V80H171.547ZM176.387 67.16C175.881 67.16 175.481 67.0333 175.187 66.78C174.894 66.5133 174.747 66.16 174.747 65.72C174.747 65.28 174.894 64.9333 175.187 64.68C175.481 64.4133 175.881 64.28 176.387 64.28C176.894 64.28 177.294 64.4133 177.587 64.68C177.881 64.9333 178.027 65.28 178.027 65.72C178.027 66.16 177.881 66.5133 177.587 66.78C177.294 67.0333 176.894 67.16 176.387 67.16ZM188.02 80.18C187.086 80.18 186.273 80.0067 185.58 79.66C184.9 79.3 184.366 78.8 183.98 78.16C183.606 77.5067 183.42 76.74 183.42 75.86V73.14C183.42 72.26 183.606 71.5 183.98 70.86C184.366 70.2067 184.9 69.7067 185.58 69.36C186.273 69 187.086 68.82 188.02 68.82C188.966 68.82 189.78 69 190.46 69.36C191.14 69.7067 191.666 70.2067 192.04 70.86C192.426 71.5 192.62 72.2533 192.62 73.12V75.86C192.62 76.74 192.426 77.5067 192.04 78.16C191.666 78.8 191.14 79.3 190.46 79.66C189.78 80.0067 188.966 80.18 188.02 80.18ZM188.02 78C188.686 78 189.2 77.82 189.56 77.46C189.933 77.0867 190.12 76.5533 190.12 75.86V73.14C190.12 72.4333 189.933 71.9 189.56 71.54C189.2 71.18 188.686 71 188.02 71C187.366 71 186.853 71.18 186.48 71.54C186.106 71.9 185.92 72.4333 185.92 73.14V75.86C185.92 76.5533 186.106 77.0867 186.48 77.46C186.853 77.82 187.366 78 188.02 78ZM195.552 80V69H197.992V71.1H198.672L197.992 71.68C197.992 70.7733 198.252 70.0667 198.772 69.56C199.305 69.0533 200.032 68.8 200.952 68.8C202.032 68.8 202.892 69.16 203.532 69.88C204.185 70.6 204.512 71.5667 204.512 72.78V80H202.012V73.04C202.012 72.3733 201.838 71.86 201.492 71.5C201.145 71.14 200.658 70.96 200.032 70.96C199.418 70.96 198.932 71.1467 198.572 71.52C198.225 71.8933 198.052 72.4267 198.052 73.12V80H195.552ZM224.056 80.2C223.123 80.2 222.303 80.0267 221.596 79.68C220.903 79.32 220.363 78.82 219.976 78.18C219.589 77.5267 219.396 76.76 219.396 75.88V73.12C219.396 72.2267 219.589 71.46 219.976 70.82C220.363 70.18 220.903 69.6867 221.596 69.34C222.303 68.98 223.123 68.8 224.056 68.8C225.443 68.8 226.549 69.16 227.376 69.88C228.203 70.5867 228.636 71.5533 228.676 72.78H226.176C226.136 72.2067 225.929 71.7667 225.556 71.46C225.196 71.14 224.696 70.98 224.056 70.98C223.389 70.98 222.863 71.1667 222.476 71.54C222.089 71.9 221.896 72.42 221.896 73.1V75.88C221.896 76.56 222.089 77.0867 222.476 77.46C222.863 77.8333 223.389 78.02 224.056 78.02C224.696 78.02 225.196 77.8667 225.556 77.56C225.929 77.24 226.136 76.7933 226.176 76.22H228.676C228.636 77.4467 228.203 78.42 227.376 79.14C226.549 79.8467 225.443 80.2 224.056 80.2ZM235.988 80.18C235.055 80.18 234.242 80.0067 233.548 79.66C232.868 79.3 232.335 78.8 231.948 78.16C231.575 77.5067 231.388 76.74 231.388 75.86V73.14C231.388 72.26 231.575 71.5 231.948 70.86C232.335 70.2067 232.868 69.7067 233.548 69.36C234.242 69 235.055 68.82 235.988 68.82C236.935 68.82 237.748 69 238.428 69.36C239.108 69.7067 239.635 70.2067 240.008 70.86C240.395 71.5 240.588 72.2533 240.588 73.12V75.86C240.588 76.74 240.395 77.5067 240.008 78.16C239.635 78.8 239.108 79.3 238.428 79.66C237.748 80.0067 236.935 80.18 235.988 80.18ZM235.988 78C236.655 78 237.168 77.82 237.528 77.46C237.902 77.0867 238.088 76.5533 238.088 75.86V73.14C238.088 72.4333 237.902 71.9 237.528 71.54C237.168 71.18 236.655 71 235.988 71C235.335 71 234.822 71.18 234.448 71.54C234.075 71.9 233.888 72.4333 233.888 73.14V75.86C233.888 76.5533 234.075 77.0867 234.448 77.46C234.822 77.82 235.335 78 235.988 78ZM243.52 80V69H245.96V71.1H246.64L245.96 71.68C245.96 70.7733 246.22 70.0667 246.74 69.56C247.274 69.0533 248 68.8 248.92 68.8C250 68.8 250.86 69.16 251.5 69.88C252.154 70.6 252.48 71.5667 252.48 72.78V80H249.98V73.04C249.98 72.3733 249.807 71.86 249.46 71.5C249.114 71.14 248.627 70.96 248 70.96C247.387 70.96 246.9 71.1467 246.54 71.52C246.194 71.8933 246.02 72.4267 246.02 73.12V80H243.52ZM261.173 80C260.119 80 259.293 79.7067 258.693 79.12C258.106 78.5333 257.813 77.7267 257.813 76.7V71.26H254.833V69H257.813V65.9H260.333V69H264.553V71.26H260.333V76.7C260.333 77.3933 260.673 77.74 261.353 77.74H264.353V80H261.173ZM267.845 80V69H270.205V71.1H270.825L270.085 72.38C270.085 71.1933 270.352 70.3 270.885 69.7C271.418 69.1 272.205 68.8 273.245 68.8C274.432 68.8 275.365 69.1667 276.045 69.9C276.725 70.6333 277.065 71.6467 277.065 72.94V73.74H274.445V73.12C274.445 72.4133 274.258 71.8667 273.885 71.48C273.525 71.0933 273.025 70.9 272.385 70.9C271.732 70.9 271.225 71.0933 270.865 71.48C270.518 71.8667 270.345 72.4133 270.345 73.12V80H267.845ZM283.957 80.18C283.024 80.18 282.21 80.0067 281.517 79.66C280.837 79.3 280.304 78.8 279.917 78.16C279.544 77.5067 279.357 76.74 279.357 75.86V73.14C279.357 72.26 279.544 71.5 279.917 70.86C280.304 70.2067 280.837 69.7067 281.517 69.36C282.21 69 283.024 68.82 283.957 68.82C284.904 68.82 285.717 69 286.397 69.36C287.077 69.7067 287.604 70.2067 287.977 70.86C288.364 71.5 288.557 72.2533 288.557 73.12V75.86C288.557 76.74 288.364 77.5067 287.977 78.16C287.604 78.8 287.077 79.3 286.397 79.66C285.717 80.0067 284.904 80.18 283.957 80.18ZM283.957 78C284.624 78 285.137 77.82 285.497 77.46C285.87 77.0867 286.057 76.5533 286.057 75.86V73.14C286.057 72.4333 285.87 71.9 285.497 71.54C285.137 71.18 284.624 71 283.957 71C283.304 71 282.79 71.18 282.417 71.54C282.044 71.9 281.857 72.4333 281.857 73.14V75.86C281.857 76.5533 282.044 77.0867 282.417 77.46C282.79 77.82 283.304 78 283.957 78ZM297.629 80C296.909 80 296.276 79.8533 295.729 79.56C295.196 79.2667 294.776 78.8533 294.469 78.32C294.163 77.7733 294.009 77.1467 294.009 76.44V67.66H290.489V65.4H296.509V76.44C296.509 76.84 296.623 77.16 296.849 77.4C297.089 77.6267 297.409 77.74 297.809 77.74H301.129V80H297.629Z" fill="#A6E22E"/>
<circle cx="74" cy="123" r="19.5" stroke="#F92672" stroke-width="3"/>
<circle cx="143" cy="123" r="19.5" stroke="#66D9EF" stroke-width="3"/>
<circle cx="212" cy="123" r="19.5" stroke="#A6E22E" stroke-width="3"/>
<circle cx="281" cy="123" r="19.5" stroke="#FD971F" stroke-width="3"/>
<circle cx="350" cy="123" r="19.5" stroke="#AE81FF" stroke-width="3"/>
<path d="M128.057 174.14C127.432 174.14 126.886 174.019 126.419 173.776C125.962 173.524 125.607 173.174 125.355 172.726C125.103 172.269 124.977 171.737 124.977 171.13V166.65C124.977 166.034 125.103 165.502 125.355 165.054C125.607 164.606 125.962 164.261 126.419 164.018C126.886 163.766 127.432 163.64 128.057 163.64C128.692 163.64 129.238 163.766 129.695 164.018C130.153 164.261 130.507 164.606 130.759 165.054C131.011 165.502 131.137 166.034 131.137 166.65V171.13C131.137 171.737 131.011 172.269 130.759 172.726C130.507 173.174 130.148 173.524 129.681 173.776C129.224 174.019 128.683 174.14 128.057 174.14ZM128.057 173.062C128.617 173.062 129.065 172.885 129.401 172.53C129.747 172.166 129.919 171.699 129.919 171.13V166.65C129.919 166.081 129.747 165.619 129.401 165.264C129.065 164.9 128.617 164.718 128.057 164.718C127.497 164.718 127.045 164.9 126.699 165.264C126.363 165.619 126.195 166.081 126.195 166.65V171.13C126.195 171.699 126.363 172.166 126.699 172.53C127.045 172.885 127.497 173.062 128.057 173.062ZM128.057 169.716C127.805 169.716 127.6 169.637 127.441 169.478C127.292 169.319 127.217 169.109 127.217 168.848C127.217 168.596 127.292 168.395 127.441 168.246C127.6 168.087 127.805 168.008 128.057 168.008C128.309 168.008 128.51 168.087 128.659 168.246C128.818 168.395 128.897 168.596 128.897 168.848C128.897 169.109 128.818 169.319 128.659 169.478C128.51 169.637 128.309 169.716 128.057 169.716ZM133.302 175.54L138.272 162.38H139.602L134.632 175.54H133.302ZM144.818 174.14C143.988 174.14 143.306 173.925 142.774 173.496C142.242 173.067 141.93 172.488 141.836 171.76H143.096C143.143 172.161 143.316 172.474 143.614 172.698C143.913 172.913 144.319 173.02 144.832 173.02C145.42 173.02 145.859 172.861 146.148 172.544C146.447 172.227 146.596 171.779 146.596 171.2V170.206C146.596 169.627 146.447 169.179 146.148 168.862C145.859 168.545 145.425 168.386 144.846 168.386C144.482 168.386 144.165 168.484 143.894 168.68C143.624 168.867 143.428 169.119 143.306 169.436H142.046L142.116 163.78H147.492V164.928H143.334L143.292 168.33H143.684L143.292 168.694C143.292 168.255 143.465 167.91 143.81 167.658C144.165 167.406 144.636 167.28 145.224 167.28C146.055 167.271 146.699 167.527 147.156 168.05C147.623 168.563 147.856 169.282 147.856 170.206V171.2C147.856 172.105 147.59 172.824 147.058 173.356C146.526 173.879 145.78 174.14 144.818 174.14ZM158.724 176.52V166.3H159.984V167.77H160.236L159.984 168.064C159.984 167.476 160.175 167.014 160.558 166.678C160.95 166.333 161.463 166.16 162.098 166.16C162.872 166.16 163.488 166.417 163.946 166.93C164.412 167.434 164.646 168.129 164.646 169.016V171.27C164.646 171.858 164.538 172.367 164.324 172.796C164.118 173.225 163.824 173.557 163.442 173.79C163.068 174.023 162.62 174.14 162.098 174.14C161.472 174.14 160.964 173.967 160.572 173.622C160.18 173.277 159.984 172.815 159.984 172.236L160.236 172.53H159.956L159.984 174.28V176.52H158.724ZM161.678 173.048C162.21 173.048 162.625 172.889 162.924 172.572C163.232 172.255 163.386 171.797 163.386 171.2V169.1C163.386 168.503 163.232 168.045 162.924 167.728C162.625 167.411 162.21 167.252 161.678 167.252C161.164 167.252 160.754 167.415 160.446 167.742C160.138 168.069 159.984 168.521 159.984 169.1V171.2C159.984 171.779 160.138 172.231 160.446 172.558C160.754 172.885 161.164 173.048 161.678 173.048ZM167.384 174V166.3H168.616V167.77H168.91L168.504 168.68C168.504 167.849 168.681 167.224 169.036 166.804C169.4 166.375 169.937 166.16 170.646 166.16C171.458 166.16 172.102 166.417 172.578 166.93C173.063 167.434 173.306 168.12 173.306 168.988V169.45H172.046V169.1C172.046 168.493 171.897 168.031 171.598 167.714C171.309 167.387 170.893 167.224 170.352 167.224C169.82 167.224 169.4 167.387 169.092 167.714C168.793 168.041 168.644 168.503 168.644 169.1V174H167.384ZM178.425 174.112C177.809 174.112 177.277 173.995 176.829 173.762C176.381 173.529 176.031 173.193 175.779 172.754C175.536 172.306 175.415 171.779 175.415 171.172V169.128C175.415 168.512 175.536 167.985 175.779 167.546C176.031 167.107 176.381 166.771 176.829 166.538C177.277 166.305 177.809 166.188 178.425 166.188C179.041 166.188 179.573 166.305 180.021 166.538C180.469 166.771 180.814 167.107 181.057 167.546C181.309 167.985 181.435 168.507 181.435 169.114V171.172C181.435 171.779 181.309 172.306 181.057 172.754C180.814 173.193 180.469 173.529 180.021 173.762C179.573 173.995 179.041 174.112 178.425 174.112ZM178.425 172.992C178.975 172.992 179.405 172.838 179.713 172.53C180.021 172.222 180.175 171.769 180.175 171.172V169.128C180.175 168.531 180.021 168.078 179.713 167.77C179.405 167.462 178.975 167.308 178.425 167.308C177.883 167.308 177.454 167.462 177.137 167.77C176.829 168.078 176.675 168.531 176.675 169.128V171.172C176.675 171.769 176.829 172.222 177.137 172.53C177.454 172.838 177.883 172.992 178.425 172.992ZM183.809 176.52V175.358H185.615C186.194 175.358 186.642 175.199 186.959 174.882C187.286 174.574 187.449 174.135 187.449 173.566V167.448H184.229V166.3H188.709V173.566C188.709 174.471 188.429 175.19 187.869 175.722C187.309 176.254 186.558 176.52 185.615 176.52H183.809ZM188.009 164.914C187.701 164.914 187.458 164.835 187.281 164.676C187.104 164.517 187.015 164.303 187.015 164.032C187.015 163.752 187.104 163.533 187.281 163.374C187.458 163.206 187.701 163.122 188.009 163.122C188.317 163.122 188.56 163.206 188.737 163.374C188.914 163.533 189.003 163.752 189.003 164.032C189.003 164.303 188.914 164.517 188.737 164.676C188.56 164.835 188.317 164.914 188.009 164.914ZM195.214 174.14C194.607 174.14 194.075 174.019 193.618 173.776C193.17 173.533 192.82 173.193 192.568 172.754C192.325 172.306 192.204 171.788 192.204 171.2V169.1C192.204 168.503 192.325 167.985 192.568 167.546C192.82 167.107 193.17 166.767 193.618 166.524C194.075 166.281 194.607 166.16 195.214 166.16C195.82 166.16 196.348 166.281 196.796 166.524C197.253 166.767 197.603 167.107 197.846 167.546C198.098 167.985 198.224 168.503 198.224 169.1V170.458H193.436V171.2C193.436 171.807 193.59 172.273 193.898 172.6C194.206 172.917 194.644 173.076 195.214 173.076C195.699 173.076 196.091 172.992 196.39 172.824C196.688 172.647 196.87 172.385 196.936 172.04H198.196C198.112 172.684 197.794 173.197 197.244 173.58C196.702 173.953 196.026 174.14 195.214 174.14ZM196.992 169.618V169.1C196.992 168.493 196.838 168.027 196.53 167.7C196.231 167.373 195.792 167.21 195.214 167.21C194.644 167.21 194.206 167.373 193.898 167.7C193.59 168.027 193.436 168.493 193.436 169.1V169.506H197.09L196.992 169.618ZM203.664 174.14C203.048 174.14 202.507 174.023 202.04 173.79C201.583 173.557 201.228 173.221 200.976 172.782C200.724 172.334 200.598 171.807 200.598 171.2V169.1C200.598 168.484 200.724 167.957 200.976 167.518C201.228 167.079 201.583 166.743 202.04 166.51C202.507 166.277 203.048 166.16 203.664 166.16C204.551 166.16 205.265 166.398 205.806 166.874C206.348 167.35 206.632 167.999 206.66 168.82H205.4C205.372 168.325 205.204 167.947 204.896 167.686C204.598 167.415 204.187 167.28 203.664 167.28C203.114 167.28 202.675 167.439 202.348 167.756C202.022 168.064 201.858 168.507 201.858 169.086V171.2C201.858 171.779 202.022 172.227 202.348 172.544C202.675 172.861 203.114 173.02 203.664 173.02C204.187 173.02 204.598 172.885 204.896 172.614C205.204 172.343 205.372 171.965 205.4 171.48H206.66C206.632 172.301 206.348 172.95 205.806 173.426C205.265 173.902 204.551 174.14 203.664 174.14ZM212.843 174C212.18 174 211.662 173.823 211.289 173.468C210.925 173.113 210.743 172.614 210.743 171.97V167.448H208.573V166.3H210.743V164.13H212.003V166.3H215.083V167.448H212.003V171.97C212.003 172.558 212.283 172.852 212.843 172.852H214.943V174H212.843ZM220.159 174.112C219.637 174.112 219.179 174.033 218.787 173.874C218.405 173.706 218.097 173.473 217.863 173.174C217.639 172.875 217.504 172.521 217.457 172.11H218.717C218.773 172.381 218.923 172.595 219.165 172.754C219.417 172.913 219.749 172.992 220.159 172.992H220.747C221.242 172.992 221.611 172.894 221.853 172.698C222.096 172.493 222.217 172.222 222.217 171.886C222.217 171.559 222.105 171.303 221.881 171.116C221.667 170.92 221.345 170.789 220.915 170.724L219.879 170.556C219.123 170.425 218.559 170.192 218.185 169.856C217.821 169.511 217.639 169.011 217.639 168.358C217.639 167.667 217.859 167.135 218.297 166.762C218.736 166.379 219.394 166.188 220.271 166.188H220.803C221.541 166.188 222.133 166.361 222.581 166.706C223.029 167.051 223.3 167.518 223.393 168.106H222.133C222.077 167.863 221.937 167.672 221.713 167.532C221.489 167.383 221.186 167.308 220.803 167.308H220.271C219.795 167.308 219.445 167.397 219.221 167.574C219.007 167.751 218.899 168.017 218.899 168.372C218.899 168.689 218.993 168.923 219.179 169.072C219.366 169.221 219.66 169.329 220.061 169.394L221.097 169.562C221.928 169.693 222.53 169.935 222.903 170.29C223.286 170.645 223.477 171.158 223.477 171.83C223.477 172.539 223.249 173.099 222.791 173.51C222.343 173.911 221.662 174.112 220.747 174.112H220.159ZM237.186 174.14C236.58 174.14 236.048 174.019 235.59 173.776C235.142 173.533 234.792 173.193 234.54 172.754C234.298 172.306 234.176 171.788 234.176 171.2V169.1C234.176 168.503 234.298 167.985 234.54 167.546C234.792 167.107 235.142 166.767 235.59 166.524C236.048 166.281 236.58 166.16 237.186 166.16C237.793 166.16 238.32 166.281 238.768 166.524C239.226 166.767 239.576 167.107 239.818 167.546C240.07 167.985 240.196 168.503 240.196 169.1V170.458H235.408V171.2C235.408 171.807 235.562 172.273 235.87 172.6C236.178 172.917 236.617 173.076 237.186 173.076C237.672 173.076 238.064 172.992 238.362 172.824C238.661 172.647 238.843 172.385 238.908 172.04H240.168C240.084 172.684 239.767 173.197 239.216 173.58C238.675 173.953 237.998 174.14 237.186 174.14ZM238.964 169.618V169.1C238.964 168.493 238.81 168.027 238.502 167.7C238.204 167.373 237.765 167.21 237.186 167.21C236.617 167.21 236.178 167.373 235.87 167.7C235.562 168.027 235.408 168.493 235.408 169.1V169.506H239.062L238.964 169.618ZM242.081 174L244.811 170.038L242.249 166.3H243.733L245.259 168.68C245.324 168.783 245.385 168.895 245.441 169.016C245.506 169.137 245.558 169.235 245.595 169.31C245.623 169.235 245.665 169.137 245.721 169.016C245.786 168.895 245.852 168.783 245.917 168.68L247.457 166.3H248.927L246.365 170.052L249.081 174H247.597L245.945 171.48C245.88 171.377 245.814 171.261 245.749 171.13C245.693 170.99 245.642 170.878 245.595 170.794C245.558 170.878 245.502 170.99 245.427 171.13C245.362 171.261 245.292 171.377 245.217 171.48L243.551 174H242.081ZM251.063 176.52V166.3H252.323V167.77H252.575L252.323 168.064C252.323 167.476 252.515 167.014 252.897 166.678C253.289 166.333 253.803 166.16 254.437 166.16C255.212 166.16 255.828 166.417 256.285 166.93C256.752 167.434 256.985 168.129 256.985 169.016V171.27C256.985 171.858 256.878 172.367 256.663 172.796C256.458 173.225 256.164 173.557 255.781 173.79C255.408 174.023 254.96 174.14 254.437 174.14C253.812 174.14 253.303 173.967 252.911 173.622C252.519 173.277 252.323 172.815 252.323 172.236L252.575 172.53H252.295L252.323 174.28V176.52H251.063ZM254.017 173.048C254.549 173.048 254.965 172.889 255.263 172.572C255.571 172.255 255.725 171.797 255.725 171.2V169.1C255.725 168.503 255.571 168.045 255.263 167.728C254.965 167.411 254.549 167.252 254.017 167.252C253.504 167.252 253.093 167.415 252.785 167.742C252.477 168.069 252.323 168.521 252.323 169.1V171.2C252.323 171.779 252.477 172.231 252.785 172.558C253.093 172.885 253.504 173.048 254.017 173.048ZM263.42 174C262.972 174 262.58 173.911 262.244 173.734C261.908 173.557 261.647 173.305 261.46 172.978C261.273 172.651 261.18 172.269 261.18 171.83V164.928H258.59V163.78H262.44V171.83C262.44 172.147 262.529 172.399 262.706 172.586C262.883 172.763 263.121 172.852 263.42 172.852H265.87V174H263.42ZM270.764 174.112C270.148 174.112 269.616 173.995 269.168 173.762C268.72 173.529 268.37 173.193 268.118 172.754C267.876 172.306 267.754 171.779 267.754 171.172V169.128C267.754 168.512 267.876 167.985 268.118 167.546C268.37 167.107 268.72 166.771 269.168 166.538C269.616 166.305 270.148 166.188 270.764 166.188C271.38 166.188 271.912 166.305 272.36 166.538C272.808 166.771 273.154 167.107 273.396 167.546C273.648 167.985 273.774 168.507 273.774 169.114V171.172C273.774 171.779 273.648 172.306 273.396 172.754C273.154 173.193 272.808 173.529 272.36 173.762C271.912 173.995 271.38 174.112 270.764 174.112ZM270.764 172.992C271.315 172.992 271.744 172.838 272.052 172.53C272.36 172.222 272.514 171.769 272.514 171.172V169.128C272.514 168.531 272.36 168.078 272.052 167.77C271.744 167.462 271.315 167.308 270.764 167.308C270.223 167.308 269.794 167.462 269.476 167.77C269.168 168.078 269.014 168.531 269.014 169.128V171.172C269.014 171.769 269.168 172.222 269.476 172.53C269.794 172.838 270.223 172.992 270.764 172.992ZM276.513 174V166.3H277.745V167.77H278.039L277.633 168.68C277.633 167.849 277.81 167.224 278.165 166.804C278.529 166.375 279.066 166.16 279.775 166.16C280.587 166.16 281.231 166.417 281.707 166.93C282.192 167.434 282.435 168.12 282.435 168.988V169.45H281.175V169.1C281.175 168.493 281.026 168.031 280.727 167.714C280.438 167.387 280.022 167.224 279.481 167.224C278.949 167.224 278.529 167.387 278.221 167.714C277.922 168.041 277.773 168.503 277.773 169.1V174H276.513ZM287.554 174.14C286.947 174.14 286.415 174.019 285.958 173.776C285.51 173.533 285.16 173.193 284.908 172.754C284.665 172.306 284.544 171.788 284.544 171.2V169.1C284.544 168.503 284.665 167.985 284.908 167.546C285.16 167.107 285.51 166.767 285.958 166.524C286.415 166.281 286.947 166.16 287.554 166.16C288.16 166.16 288.688 166.281 289.136 166.524C289.593 166.767 289.943 167.107 290.186 167.546C290.438 167.985 290.564 168.503 290.564 169.1V170.458H285.776V171.2C285.776 171.807 285.93 172.273 286.238 172.6C286.546 172.917 286.984 173.076 287.554 173.076C288.039 173.076 288.431 172.992 288.73 172.824C289.028 172.647 289.21 172.385 289.276 172.04H290.536C290.452 172.684 290.134 173.197 289.584 173.58C289.042 173.953 288.366 174.14 287.554 174.14ZM289.332 169.618V169.1C289.332 168.493 289.178 168.027 288.87 167.7C288.571 167.373 288.132 167.21 287.554 167.21C286.984 167.21 286.546 167.373 286.238 167.7C285.93 168.027 285.776 168.493 285.776 169.1V169.506H289.43L289.332 169.618ZM295.5 174.14C294.735 174.14 294.114 173.883 293.638 173.37C293.171 172.857 292.938 172.161 292.938 171.284V169.03C292.938 168.143 293.171 167.443 293.638 166.93C294.105 166.417 294.725 166.16 295.5 166.16C296.135 166.16 296.643 166.333 297.026 166.678C297.409 167.023 297.6 167.485 297.6 168.064L297.348 167.77H297.628L297.6 166.02V163.78H298.86V174H297.6V172.53H297.348L297.6 172.236C297.6 172.824 297.409 173.291 297.026 173.636C296.643 173.972 296.135 174.14 295.5 174.14ZM295.92 173.048C296.443 173.048 296.853 172.885 297.152 172.558C297.451 172.231 297.6 171.779 297.6 171.2V169.1C297.6 168.521 297.451 168.069 297.152 167.742C296.853 167.415 296.443 167.252 295.92 167.252C295.388 167.252 294.968 167.411 294.66 167.728C294.352 168.045 294.198 168.503 294.198 169.1V171.2C294.198 171.797 294.352 172.255 294.66 172.572C294.968 172.889 295.388 173.048 295.92 173.048Z" fill="#A6E22E"/>
</g>
<g filter="url(#filter1_dd_8_64)">
<rect x="20" y="272" width="384" height="178" rx="24" fill="#272822" fill-opacity="0.9" shape-rendering="crispEdges"/>
<rect x="20" y="272" width="384" height="178" rx="24" stroke="#A6E22E" stroke-width="3" shape-rendering="crispEdges"/>
<path d="M123.099 322V311H125.139V312.48H125.559L125.219 312.84C125.219 312.227 125.392 311.733 125.739 311.36C126.085 310.987 126.532 310.8 127.079 310.8C127.665 310.8 128.119 311.04 128.439 311.52C128.772 312 128.939 312.647 128.939 313.46L128.499 312.48H129.179L128.919 312.84C128.919 312.227 129.092 311.733 129.439 311.36C129.785 310.987 130.245 310.8 130.819 310.8C131.499 310.8 132.039 311.053 132.439 311.56C132.839 312.067 133.039 312.753 133.039 313.62V322H130.839V313.72C130.839 313.36 130.759 313.08 130.599 312.88C130.439 312.667 130.205 312.56 129.899 312.56C129.605 312.56 129.372 312.66 129.199 312.86C129.039 313.06 128.959 313.347 128.959 313.72V322H127.159V313.72C127.159 313.347 127.079 313.06 126.919 312.86C126.759 312.66 126.525 312.56 126.219 312.56C125.912 312.56 125.679 312.66 125.519 312.86C125.372 313.06 125.299 313.347 125.299 313.72V322H123.099ZM135.571 322V319.72H139.411V313.26H136.071V311H141.811V319.72H145.211V322H135.571ZM140.411 309.16C139.904 309.16 139.504 309.033 139.211 308.78C138.917 308.513 138.771 308.16 138.771 307.72C138.771 307.28 138.917 306.933 139.211 306.68C139.504 306.413 139.904 306.28 140.411 306.28C140.917 306.28 141.317 306.413 141.611 306.68C141.904 306.933 142.051 307.28 142.051 307.72C142.051 308.16 141.904 308.513 141.611 308.78C141.317 309.033 140.917 309.16 140.411 309.16ZM151.623 322.18C150.783 322.18 150.05 322.047 149.423 321.78C148.796 321.513 148.303 321.147 147.943 320.68C147.596 320.2 147.41 319.64 147.383 319H149.883C149.91 319.347 150.076 319.627 150.383 319.84C150.703 320.053 151.116 320.16 151.623 320.16H152.503C153.116 320.16 153.576 320.04 153.883 319.8C154.19 319.56 154.343 319.233 154.343 318.82C154.343 318.433 154.203 318.133 153.923 317.92C153.656 317.693 153.236 317.547 152.663 317.48L151.303 317.28C150.05 317.107 149.13 316.773 148.543 316.28C147.956 315.787 147.663 315.047 147.663 314.06C147.663 313.033 148.01 312.24 148.703 311.68C149.396 311.107 150.416 310.82 151.763 310.82H152.523C153.75 310.82 154.73 311.093 155.463 311.64C156.196 312.187 156.59 312.92 156.643 313.84H154.143C154.103 313.547 153.936 313.307 153.643 313.12C153.363 312.933 152.99 312.84 152.523 312.84H151.763C151.19 312.84 150.77 312.947 150.503 313.16C150.25 313.36 150.123 313.66 150.123 314.06C150.123 314.433 150.236 314.713 150.463 314.9C150.69 315.073 151.056 315.2 151.563 315.28L152.983 315.48C154.29 315.667 155.25 316.02 155.863 316.54C156.49 317.047 156.803 317.8 156.803 318.8C156.803 319.867 156.436 320.7 155.703 321.3C154.983 321.887 153.916 322.18 152.503 322.18H151.623ZM163.615 322.18C162.775 322.18 162.042 322.047 161.415 321.78C160.788 321.513 160.295 321.147 159.935 320.68C159.588 320.2 159.402 319.64 159.375 319H161.875C161.902 319.347 162.068 319.627 162.375 319.84C162.695 320.053 163.108 320.16 163.615 320.16H164.495C165.108 320.16 165.568 320.04 165.875 319.8C166.182 319.56 166.335 319.233 166.335 318.82C166.335 318.433 166.195 318.133 165.915 317.92C165.648 317.693 165.228 317.547 164.655 317.48L163.295 317.28C162.042 317.107 161.122 316.773 160.535 316.28C159.948 315.787 159.655 315.047 159.655 314.06C159.655 313.033 160.002 312.24 160.695 311.68C161.388 311.107 162.408 310.82 163.755 310.82H164.515C165.742 310.82 166.722 311.093 167.455 311.64C168.188 312.187 168.582 312.92 168.635 313.84H166.135C166.095 313.547 165.928 313.307 165.635 313.12C165.355 312.933 164.982 312.84 164.515 312.84H163.755C163.182 312.84 162.762 312.947 162.495 313.16C162.242 313.36 162.115 313.66 162.115 314.06C162.115 314.433 162.228 314.713 162.455 314.9C162.682 315.073 163.048 315.2 163.555 315.28L164.975 315.48C166.282 315.667 167.242 316.02 167.855 316.54C168.482 317.047 168.795 317.8 168.795 318.8C168.795 319.867 168.428 320.7 167.695 321.3C166.975 321.887 165.908 322.18 164.495 322.18H163.615ZM171.547 322V319.72H175.387V313.26H172.047V311H177.787V319.72H181.187V322H171.547ZM176.387 309.16C175.881 309.16 175.481 309.033 175.187 308.78C174.894 308.513 174.747 308.16 174.747 307.72C174.747 307.28 174.894 306.933 175.187 306.68C175.481 306.413 175.881 306.28 176.387 306.28C176.894 306.28 177.294 306.413 177.587 306.68C177.881 306.933 178.027 307.28 178.027 307.72C178.027 308.16 177.881 308.513 177.587 308.78C177.294 309.033 176.894 309.16 176.387 309.16ZM188.02 322.18C187.086 322.18 186.273 322.007 185.58 321.66C184.9 321.3 184.366 320.8 183.98 320.16C183.606 319.507 183.42 318.74 183.42 317.86V315.14C183.42 314.26 183.606 313.5 183.98 312.86C184.366 312.207 184.9 311.707 185.58 311.36C186.273 311 187.086 310.82 188.02 310.82C188.966 310.82 189.78 311 190.46 311.36C191.14 311.707 191.666 312.207 192.04 312.86C192.426 313.5 192.62 314.253 192.62 315.12V317.86C192.62 318.74 192.426 319.507 192.04 320.16C191.666 320.8 191.14 321.3 190.46 321.66C189.78 322.007 188.966 322.18 188.02 322.18ZM188.02 320C188.686 320 189.2 319.82 189.56 319.46C189.933 319.087 190.12 318.553 190.12 317.86V315.14C190.12 314.433 189.933 313.9 189.56 313.54C189.2 313.18 188.686 313 188.02 313C187.366 313 186.853 313.18 186.48 313.54C186.106 313.9 185.92 314.433 185.92 315.14V317.86C185.92 318.553 186.106 319.087 186.48 319.46C186.853 319.82 187.366 320 188.02 320ZM195.552 322V311H197.992V313.1H198.672L197.992 313.68C197.992 312.773 198.252 312.067 198.772 311.56C199.305 311.053 200.032 310.8 200.952 310.8C202.032 310.8 202.892 311.16 203.532 311.88C204.185 312.6 204.512 313.567 204.512 314.78V322H202.012V315.04C202.012 314.373 201.838 313.86 201.492 313.5C201.145 313.14 200.658 312.96 200.032 312.96C199.418 312.96 198.932 313.147 198.572 313.52C198.225 313.893 198.052 314.427 198.052 315.12V322H195.552ZM224.056 322.2C223.123 322.2 222.303 322.027 221.596 321.68C220.903 321.32 220.363 320.82 219.976 320.18C219.589 319.527 219.396 318.76 219.396 317.88V315.12C219.396 314.227 219.589 313.46 219.976 312.82C220.363 312.18 220.903 311.687 221.596 311.34C222.303 310.98 223.123 310.8 224.056 310.8C225.443 310.8 226.549 311.16 227.376 311.88C228.203 312.587 228.636 313.553 228.676 314.78H226.176C226.136 314.207 225.929 313.767 225.556 313.46C225.196 313.14 224.696 312.98 224.056 312.98C223.389 312.98 222.863 313.167 222.476 313.54C222.089 313.9 221.896 314.42 221.896 315.1V317.88C221.896 318.56 222.089 319.087 222.476 319.46C222.863 319.833 223.389 320.02 224.056 320.02C224.696 320.02 225.196 319.867 225.556 319.56C225.929 319.24 226.136 318.793 226.176 318.22H228.676C228.636 319.447 228.203 320.42 227.376 321.14C226.549 321.847 225.443 322.2 224.056 322.2ZM235.988 322.18C235.055 322.18 234.242 322.007 233.548 321.66C232.868 321.3 232.335 320.8 231.948 320.16C231.575 319.507 231.388 318.74 231.388 317.86V315.14C231.388 314.26 231.575 313.5 231.948 312.86C232.335 312.207 232.868 311.707 233.548 311.36C234.242 311 235.055 310.82 235.988 310.82C236.935 310.82 237.748 311 238.428 311.36C239.108 311.707 239.635 312.207 240.008 312.86C240.395 313.5 240.588 314.253 240.588 315.12V317.86C240.588 318.74 240.395 319.507 240.008 320.16C239.635 320.8 239.108 321.3 238.428 321.66C237.748 322.007 236.935 322.18 235.988 322.18ZM235.988 320C236.655 320 237.168 319.82 237.528 319.46C237.902 319.087 238.088 318.553 238.088 317.86V315.14C238.088 314.433 237.902 313.9 237.528 313.54C237.168 313.18 236.655 313 235.988 313C235.335 313 234.822 313.18 234.448 313.54C234.075 313.9 233.888 314.433 233.888 315.14V317.86C233.888 318.553 234.075 319.087 234.448 319.46C234.822 319.82 235.335 320 235.988 320ZM243.52 322V311H245.96V313.1H246.64L245.96 313.68C245.96 312.773 246.22 312.067 246.74 311.56C247.274 311.053 248 310.8 248.92 310.8C250 310.8 250.86 311.16 251.5 311.88C252.154 312.6 252.48 313.567 252.48 314.78V322H249.98V315.04C249.98 314.373 249.807 313.86 249.46 313.5C249.114 313.14 248.627 312.96 248 312.96C247.387 312.96 246.9 313.147 246.54 313.52C246.194 313.893 246.02 314.427 246.02 315.12V322H243.52ZM261.173 322C260.119 322 259.293 321.707 258.693 321.12C258.106 320.533 257.813 319.727 257.813 318.7V313.26H254.833V311H257.813V307.9H260.333V311H264.553V313.26H260.333V318.7C260.333 319.393 260.673 319.74 261.353 319.74H264.353V322H261.173ZM267.845 322V311H270.205V313.1H270.825L270.085 314.38C270.085 313.193 270.352 312.3 270.885 311.7C271.418 311.1 272.205 310.8 273.245 310.8C274.432 310.8 275.365 311.167 276.045 311.9C276.725 312.633 277.065 313.647 277.065 314.94V315.74H274.445V315.12C274.445 314.413 274.258 313.867 273.885 313.48C273.525 313.093 273.025 312.9 272.385 312.9C271.732 312.9 271.225 313.093 270.865 313.48C270.518 313.867 270.345 314.413 270.345 315.12V322H267.845ZM283.957 322.18C283.024 322.18 282.21 322.007 281.517 321.66C280.837 321.3 280.304 320.8 279.917 320.16C279.544 319.507 279.357 318.74 279.357 317.86V315.14C279.357 314.26 279.544 313.5 279.917 312.86C280.304 312.207 280.837 311.707 281.517 311.36C282.21 311 283.024 310.82 283.957 310.82C284.904 310.82 285.717 311 286.397 311.36C287.077 311.707 287.604 312.207 287.977 312.86C288.364 313.5 288.557 314.253 288.557 315.12V317.86C288.557 318.74 288.364 319.507 287.977 320.16C287.604 320.8 287.077 321.3 286.397 321.66C285.717 322.007 284.904 322.18 283.957 322.18ZM283.957 320C284.624 320 285.137 319.82 285.497 319.46C285.87 319.087 286.057 318.553 286.057 317.86V315.14C286.057 314.433 285.87 313.9 285.497 313.54C285.137 313.18 284.624 313 283.957 313C283.304 313 282.79 313.18 282.417 313.54C282.044 313.9 281.857 314.433 281.857 315.14V317.86C281.857 318.553 282.044 319.087 282.417 319.46C282.79 319.82 283.304 320 283.957 320ZM297.629 322C296.909 322 296.276 321.853 295.729 321.56C295.196 321.267 294.776 320.853 294.469 320.32C294.163 319.773 294.009 319.147 294.009 318.44V309.66H290.489V307.4H296.509V318.44C296.509 318.84 296.623 319.16 296.849 319.4C297.089 319.627 297.409 319.74 297.809 319.74H301.129V322H297.629Z" fill="#A6E22E"/>
<circle cx="74" cy="365" r="19.5" fill="#F92672" stroke="#F92672" stroke-width="3"/>
<circle cx="143" cy="365" r="19.5" fill="#66D9EF" stroke="#66D9EF" stroke-width="3"/>
<circle cx="212" cy="365" r="19.5" fill="#A6E22E" stroke="#A6E22E" stroke-width="3"/>
<circle cx="281" cy="365" r="19.5" fill="#FD971F" stroke="#FD971F" stroke-width="3"/>
<circle cx="350" cy="365" r="19.5" fill="#AE81FF" stroke="#AE81FF" stroke-width="3"/>
<path d="M128.029 416.14C127.199 416.14 126.517 415.925 125.985 415.496C125.453 415.067 125.141 414.488 125.047 413.76H126.307C126.354 414.161 126.527 414.474 126.825 414.698C127.124 414.913 127.53 415.02 128.043 415.02C128.631 415.02 129.07 414.861 129.359 414.544C129.658 414.227 129.807 413.779 129.807 413.2V412.206C129.807 411.627 129.658 411.179 129.359 410.862C129.07 410.545 128.636 410.386 128.057 410.386C127.693 410.386 127.376 410.484 127.105 410.68C126.835 410.867 126.639 411.119 126.517 411.436H125.257L125.327 405.78H130.703V406.928H126.545L126.503 410.33H126.895L126.503 410.694C126.503 410.255 126.676 409.91 127.021 409.658C127.376 409.406 127.847 409.28 128.435 409.28C129.266 409.271 129.91 409.527 130.367 410.05C130.834 410.563 131.067 411.282 131.067 412.206V413.2C131.067 414.105 130.801 414.824 130.269 415.356C129.737 415.879 128.991 416.14 128.029 416.14ZM133.302 417.54L138.272 404.38H139.602L134.632 417.54H133.302ZM144.818 416.14C143.988 416.14 143.306 415.925 142.774 415.496C142.242 415.067 141.93 414.488 141.836 413.76H143.096C143.143 414.161 143.316 414.474 143.614 414.698C143.913 414.913 144.319 415.02 144.832 415.02C145.42 415.02 145.859 414.861 146.148 414.544C146.447 414.227 146.596 413.779 146.596 413.2V412.206C146.596 411.627 146.447 411.179 146.148 410.862C145.859 410.545 145.425 410.386 144.846 410.386C144.482 410.386 144.165 410.484 143.894 410.68C143.624 410.867 143.428 411.119 143.306 411.436H142.046L142.116 405.78H147.492V406.928H143.334L143.292 410.33H143.684L143.292 410.694C143.292 410.255 143.465 409.91 143.81 409.658C144.165 409.406 144.636 409.28 145.224 409.28C146.055 409.271 146.699 409.527 147.156 410.05C147.623 410.563 147.856 411.282 147.856 412.206V413.2C147.856 414.105 147.59 414.824 147.058 415.356C146.526 415.879 145.78 416.14 144.818 416.14ZM158.724 418.52V408.3H159.984V409.77H160.236L159.984 410.064C159.984 409.476 160.175 409.014 160.558 408.678C160.95 408.333 161.463 408.16 162.098 408.16C162.872 408.16 163.488 408.417 163.946 408.93C164.412 409.434 164.646 410.129 164.646 411.016V413.27C164.646 413.858 164.538 414.367 164.324 414.796C164.118 415.225 163.824 415.557 163.442 415.79C163.068 416.023 162.62 416.14 162.098 416.14C161.472 416.14 160.964 415.967 160.572 415.622C160.18 415.277 159.984 414.815 159.984 414.236L160.236 414.53H159.956L159.984 416.28V418.52H158.724ZM161.678 415.048C162.21 415.048 162.625 414.889 162.924 414.572C163.232 414.255 163.386 413.797 163.386 413.2V411.1C163.386 410.503 163.232 410.045 162.924 409.728C162.625 409.411 162.21 409.252 161.678 409.252C161.164 409.252 160.754 409.415 160.446 409.742C160.138 410.069 159.984 410.521 159.984 411.1V413.2C159.984 413.779 160.138 414.231 160.446 414.558C160.754 414.885 161.164 415.048 161.678 415.048ZM167.384 416V408.3H168.616V409.77H168.91L168.504 410.68C168.504 409.849 168.681 409.224 169.036 408.804C169.4 408.375 169.937 408.16 170.646 408.16C171.458 408.16 172.102 408.417 172.578 408.93C173.063 409.434 173.306 410.12 173.306 410.988V411.45H172.046V411.1C172.046 410.493 171.897 410.031 171.598 409.714C171.309 409.387 170.893 409.224 170.352 409.224C169.82 409.224 169.4 409.387 169.092 409.714C168.793 410.041 168.644 410.503 168.644 411.1V416H167.384ZM178.425 416.112C177.809 416.112 177.277 415.995 176.829 415.762C176.381 415.529 176.031 415.193 175.779 414.754C175.536 414.306 175.415 413.779 175.415 413.172V411.128C175.415 410.512 175.536 409.985 175.779 409.546C176.031 409.107 176.381 408.771 176.829 408.538C177.277 408.305 177.809 408.188 178.425 408.188C179.041 408.188 179.573 408.305 180.021 408.538C180.469 408.771 180.814 409.107 181.057 409.546C181.309 409.985 181.435 410.507 181.435 411.114V413.172C181.435 413.779 181.309 414.306 181.057 414.754C180.814 415.193 180.469 415.529 180.021 415.762C179.573 415.995 179.041 416.112 178.425 416.112ZM178.425 414.992C178.975 414.992 179.405 414.838 179.713 414.53C180.021 414.222 180.175 413.769 180.175 413.172V411.128C180.175 410.531 180.021 410.078 179.713 409.77C179.405 409.462 178.975 409.308 178.425 409.308C177.883 409.308 177.454 409.462 177.137 409.77C176.829 410.078 176.675 410.531 176.675 411.128V413.172C176.675 413.769 176.829 414.222 177.137 414.53C177.454 414.838 177.883 414.992 178.425 414.992ZM183.809 418.52V417.358H185.615C186.194 417.358 186.642 417.199 186.959 416.882C187.286 416.574 187.449 416.135 187.449 415.566V409.448H184.229V408.3H188.709V415.566C188.709 416.471 188.429 417.19 187.869 417.722C187.309 418.254 186.558 418.52 185.615 418.52H183.809ZM188.009 406.914C187.701 406.914 187.458 406.835 187.281 406.676C187.104 406.517 187.015 406.303 187.015 406.032C187.015 405.752 187.104 405.533 187.281 405.374C187.458 405.206 187.701 405.122 188.009 405.122C188.317 405.122 188.56 405.206 188.737 405.374C188.914 405.533 189.003 405.752 189.003 406.032C189.003 406.303 188.914 406.517 188.737 406.676C188.56 406.835 188.317 406.914 188.009 406.914ZM195.214 416.14C194.607 416.14 194.075 416.019 193.618 415.776C193.17 415.533 192.82 415.193 192.568 414.754C192.325 414.306 192.204 413.788 192.204 413.2V411.1C192.204 410.503 192.325 409.985 192.568 409.546C192.82 409.107 193.17 408.767 193.618 408.524C194.075 408.281 194.607 408.16 195.214 408.16C195.82 408.16 196.348 408.281 196.796 408.524C197.253 408.767 197.603 409.107 197.846 409.546C198.098 409.985 198.224 410.503 198.224 411.1V412.458H193.436V413.2C193.436 413.807 193.59 414.273 193.898 414.6C194.206 414.917 194.644 415.076 195.214 415.076C195.699 415.076 196.091 414.992 196.39 414.824C196.688 414.647 196.87 414.385 196.936 414.04H198.196C198.112 414.684 197.794 415.197 197.244 415.58C196.702 415.953 196.026 416.14 195.214 416.14ZM196.992 411.618V411.1C196.992 410.493 196.838 410.027 196.53 409.7C196.231 409.373 195.792 409.21 195.214 409.21C194.644 409.21 194.206 409.373 193.898 409.7C193.59 410.027 193.436 410.493 193.436 411.1V411.506H197.09L196.992 411.618ZM203.664 416.14C203.048 416.14 202.507 416.023 202.04 415.79C201.583 415.557 201.228 415.221 200.976 414.782C200.724 414.334 200.598 413.807 200.598 413.2V411.1C200.598 410.484 200.724 409.957 200.976 409.518C201.228 409.079 201.583 408.743 202.04 408.51C202.507 408.277 203.048 408.16 203.664 408.16C204.551 408.16 205.265 408.398 205.806 408.874C206.348 409.35 206.632 409.999 206.66 410.82H205.4C205.372 410.325 205.204 409.947 204.896 409.686C204.598 409.415 204.187 409.28 203.664 409.28C203.114 409.28 202.675 409.439 202.348 409.756C202.022 410.064 201.858 410.507 201.858 411.086V413.2C201.858 413.779 202.022 414.227 202.348 414.544C202.675 414.861 203.114 415.02 203.664 415.02C204.187 415.02 204.598 414.885 204.896 414.614C205.204 414.343 205.372 413.965 205.4 413.48H206.66C206.632 414.301 206.348 414.95 205.806 415.426C205.265 415.902 204.551 416.14 203.664 416.14ZM212.843 416C212.18 416 211.662 415.823 211.289 415.468C210.925 415.113 210.743 414.614 210.743 413.97V409.448H208.573V408.3H210.743V406.13H212.003V408.3H215.083V409.448H212.003V413.97C212.003 414.558 212.283 414.852 212.843 414.852H214.943V416H212.843ZM220.159 416.112C219.637 416.112 219.179 416.033 218.787 415.874C218.405 415.706 218.097 415.473 217.863 415.174C217.639 414.875 217.504 414.521 217.457 414.11H218.717C218.773 414.381 218.923 414.595 219.165 414.754C219.417 414.913 219.749 414.992 220.159 414.992H220.747C221.242 414.992 221.611 414.894 221.853 414.698C222.096 414.493 222.217 414.222 222.217 413.886C222.217 413.559 222.105 413.303 221.881 413.116C221.667 412.92 221.345 412.789 220.915 412.724L219.879 412.556C219.123 412.425 218.559 412.192 218.185 411.856C217.821 411.511 217.639 411.011 217.639 410.358C217.639 409.667 217.859 409.135 218.297 408.762C218.736 408.379 219.394 408.188 220.271 408.188H220.803C221.541 408.188 222.133 408.361 222.581 408.706C223.029 409.051 223.3 409.518 223.393 410.106H222.133C222.077 409.863 221.937 409.672 221.713 409.532C221.489 409.383 221.186 409.308 220.803 409.308H220.271C219.795 409.308 219.445 409.397 219.221 409.574C219.007 409.751 218.899 410.017 218.899 410.372C218.899 410.689 218.993 410.923 219.179 411.072C219.366 411.221 219.66 411.329 220.061 411.394L221.097 411.562C221.928 411.693 222.53 411.935 222.903 412.29C223.286 412.645 223.477 413.158 223.477 413.83C223.477 414.539 223.249 415.099 222.791 415.51C222.343 415.911 221.662 416.112 220.747 416.112H220.159ZM237.186 416.14C236.58 416.14 236.048 416.019 235.59 415.776C235.142 415.533 234.792 415.193 234.54 414.754C234.298 414.306 234.176 413.788 234.176 413.2V411.1C234.176 410.503 234.298 409.985 234.54 409.546C234.792 409.107 235.142 408.767 235.59 408.524C236.048 408.281 236.58 408.16 237.186 408.16C237.793 408.16 238.32 408.281 238.768 408.524C239.226 408.767 239.576 409.107 239.818 409.546C240.07 409.985 240.196 410.503 240.196 411.1V412.458H235.408V413.2C235.408 413.807 235.562 414.273 235.87 414.6C236.178 414.917 236.617 415.076 237.186 415.076C237.672 415.076 238.064 414.992 238.362 414.824C238.661 414.647 238.843 414.385 238.908 414.04H240.168C240.084 414.684 239.767 415.197 239.216 415.58C238.675 415.953 237.998 416.14 237.186 416.14ZM238.964 411.618V411.1C238.964 410.493 238.81 410.027 238.502 409.7C238.204 409.373 237.765 409.21 237.186 409.21C236.617 409.21 236.178 409.373 235.87 409.7C235.562 410.027 235.408 410.493 235.408 411.1V411.506H239.062L238.964 411.618ZM242.081 416L244.811 412.038L242.249 408.3H243.733L245.259 410.68C245.324 410.783 245.385 410.895 245.441 411.016C245.506 411.137 245.558 411.235 245.595 411.31C245.623 411.235 245.665 411.137 245.721 411.016C245.786 410.895 245.852 410.783 245.917 410.68L247.457 408.3H248.927L246.365 412.052L249.081 416H247.597L245.945 413.48C245.88 413.377 245.814 413.261 245.749 413.13C245.693 412.99 245.642 412.878 245.595 412.794C245.558 412.878 245.502 412.99 245.427 413.13C245.362 413.261 245.292 413.377 245.217 413.48L243.551 416H242.081ZM251.063 418.52V408.3H252.323V409.77H252.575L252.323 410.064C252.323 409.476 252.515 409.014 252.897 408.678C253.289 408.333 253.803 408.16 254.437 408.16C255.212 408.16 255.828 408.417 256.285 408.93C256.752 409.434 256.985 410.129 256.985 411.016V413.27C256.985 413.858 256.878 414.367 256.663 414.796C256.458 415.225 256.164 415.557 255.781 415.79C255.408 416.023 254.96 416.14 254.437 416.14C253.812 416.14 253.303 415.967 252.911 415.622C252.519 415.277 252.323 414.815 252.323 414.236L252.575 414.53H252.295L252.323 416.28V418.52H251.063ZM254.017 415.048C254.549 415.048 254.965 414.889 255.263 414.572C255.571 414.255 255.725 413.797 255.725 413.2V411.1C255.725 410.503 255.571 410.045 255.263 409.728C254.965 409.411 254.549 409.252 254.017 409.252C253.504 409.252 253.093 409.415 252.785 409.742C252.477 410.069 252.323 410.521 252.323 411.1V413.2C252.323 413.779 252.477 414.231 252.785 414.558C253.093 414.885 253.504 415.048 254.017 415.048ZM263.42 416C262.972 416 262.58 415.911 262.244 415.734C261.908 415.557 261.647 415.305 261.46 414.978C261.273 414.651 261.18 414.269 261.18 413.83V406.928H258.59V405.78H262.44V413.83C262.44 414.147 262.529 414.399 262.706 414.586C262.883 414.763 263.121 414.852 263.42 414.852H265.87V416H263.42ZM270.764 416.112C270.148 416.112 269.616 415.995 269.168 415.762C268.72 415.529 268.37 415.193 268.118 414.754C267.876 414.306 267.754 413.779 267.754 413.172V411.128C267.754 410.512 267.876 409.985 268.118 409.546C268.37 409.107 268.72 408.771 269.168 408.538C269.616 408.305 270.148 408.188 270.764 408.188C271.38 408.188 271.912 408.305 272.36 408.538C272.808 408.771 273.154 409.107 273.396 409.546C273.648 409.985 273.774 410.507 273.774 411.114V413.172C273.774 413.779 273.648 414.306 273.396 414.754C273.154 415.193 272.808 415.529 272.36 415.762C271.912 415.995 271.38 416.112 270.764 416.112ZM270.764 414.992C271.315 414.992 271.744 414.838 272.052 414.53C272.36 414.222 272.514 413.769 272.514 413.172V411.128C272.514 410.531 272.36 410.078 272.052 409.77C271.744 409.462 271.315 409.308 270.764 409.308C270.223 409.308 269.794 409.462 269.476 409.77C269.168 410.078 269.014 410.531 269.014 411.128V413.172C269.014 413.769 269.168 414.222 269.476 414.53C269.794 414.838 270.223 414.992 270.764 414.992ZM276.513 416V408.3H277.745V409.77H278.039L277.633 410.68C277.633 409.849 277.81 409.224 278.165 408.804C278.529 408.375 279.066 408.16 279.775 408.16C280.587 408.16 281.231 408.417 281.707 408.93C282.192 409.434 282.435 410.12 282.435 410.988V411.45H281.175V411.1C281.175 410.493 281.026 410.031 280.727 409.714C280.438 409.387 280.022 409.224 279.481 409.224C278.949 409.224 278.529 409.387 278.221 409.714C277.922 410.041 277.773 410.503 277.773 411.1V416H276.513ZM287.554 416.14C286.947 416.14 286.415 416.019 285.958 415.776C285.51 415.533 285.16 415.193 284.908 414.754C284.665 414.306 284.544 413.788 284.544 413.2V411.1C284.544 410.503 284.665 409.985 284.908 409.546C285.16 409.107 285.51 408.767 285.958 408.524C286.415 408.281 286.947 408.16 287.554 408.16C288.16 408.16 288.688 408.281 289.136 408.524C289.593 408.767 289.943 409.107 290.186 409.546C290.438 409.985 290.564 410.503 290.564 411.1V412.458H285.776V413.2C285.776 413.807 285.93 414.273 286.238 414.6C286.546 414.917 286.984 415.076 287.554 415.076C288.039 415.076 288.431 414.992 288.73 414.824C289.028 414.647 289.21 414.385 289.276 414.04H290.536C290.452 414.684 290.134 415.197 289.584 415.58C289.042 415.953 288.366 416.14 287.554 416.14ZM289.332 411.618V411.1C289.332 410.493 289.178 410.027 288.87 409.7C288.571 409.373 288.132 409.21 287.554 409.21C286.984 409.21 286.546 409.373 286.238 409.7C285.93 410.027 285.776 410.493 285.776 411.1V411.506H289.43L289.332 411.618ZM295.5 416.14C294.735 416.14 294.114 415.883 293.638 415.37C293.171 414.857 292.938 414.161 292.938 413.284V411.03C292.938 410.143 293.171 409.443 293.638 408.93C294.105 408.417 294.725 408.16 295.5 408.16C296.135 408.16 296.643 408.333 297.026 408.678C297.409 409.023 297.6 409.485 297.6 410.064L297.348 409.77H297.628L297.6 408.02V405.78H298.86V416H297.6V414.53H297.348L297.6 414.236C297.6 414.824 297.409 415.291 297.026 415.636C296.643 415.972 296.135 416.14 295.5 416.14ZM295.92 415.048C296.443 415.048 296.853 414.885 297.152 414.558C297.451 414.231 297.6 413.779 297.6 413.2V411.1C297.6 410.521 297.451 410.069 297.152 409.742C296.853 409.415 296.443 409.252 295.92 409.252C295.388 409.252 294.968 409.411 294.66 409.728C294.352 410.045 294.198 410.503 294.198 411.1V413.2C294.198 413.797 294.352 414.255 294.66 414.572C294.968 414.889 295.388 415.048 295.92 415.048Z" fill="#A6E22E"/>
</g>
</g>
<rect x="0.5" y="0.5" width="423" height="479" rx="4.5" stroke="#8A38F5" stroke-dasharray="10 5"/>
<defs>
<filter id="filter0_dd_8_64" x="12.5" y="9.5" width="399" height="219" filterUnits="userSpaceOnUse" color-interpolation-filters="sRGB">
<feFlood flood-opacity="0" result="BackgroundImageFix"/>
<feColorMatrix in="SourceAlpha" type="matrix" values="0 0 0 0 0 0 0 0 0 0 0 0 0 0 0 0 0 0 127 0" result="hardAlpha"/>
<feMorphology radius="4" operator="dilate" in="SourceAlpha" result="effect1_dropShadow_8_64"/>
<feOffset/>
<feGaussianBlur stdDeviation="7.5"/>
<feComposite in2="hardAlpha" operator="out"/>
<feColorMatrix type="matrix" values="0 0 0 0 0.972549 0 0 0 0 0.972549 0 0 0 0 0.94902 0 0 0 0.6 0"/>
<feBlend mode="normal" in2="BackgroundImageFix" result="effect1_dropShadow_8_64"/>
<feColorMatrix in="SourceAlpha" type="matrix" values="0 0 0 0 0 0 0 0 0 0 0 0 0 0 0 0 0 0 127 0" result="hardAlpha"/>
<feOffset dx="-4" dy="4"/>
<feComposite in2="hardAlpha" operator="out"/>
<feColorMatrix type="matrix" values="0 0 0 0 0 0 0 0 0 0 0 0 0 0 0 0 0 0 0.5 0"/>
<feBlend mode="normal" in2="effect1_dropShadow_8_64" result="effect2_dropShadow_8_64"/>
<feBlend mode="normal" in="SourceGraphic" in2="effect2_dropShadow_8_64" result="shape"/>
</filter>
<filter id="filter1_dd_8_64" x="-0.5" y="251.5" width="425" height="219" filterUnits="userSpaceOnUse" color-interpolation-filters="sRGB">
<feFlood flood-opacity="0" result="BackgroundImageFix"/>
<feColorMatrix in="SourceAlpha" type="matrix" values="0 0 0 0 0 0 0 0 0 0 0 0 0 0 0 0 0 0 127 0" result="hardAlpha"/>
<feMorphology radius="4" operator="dilate" in="SourceAlpha" result="effect1_dropShadow_8_64"/>
<feOffset/>
<feGaussianBlur stdDeviation="7.5"/>
<feComposite in2="hardAlpha" operator="out"/>
<feColorMatrix type="matrix" values="0 0 0 0 0.972549 0 0 0 0 0.972549 0 0 0 0 0.94902 0 0 0 0.6 0"/>
<feBlend mode="normal" in2="BackgroundImageFix" result="effect1_dropShadow_8_64"/>
<feColorMatrix in="SourceAlpha" type="matrix" values="0 0 0 0 0 0 0 0 0 0 0 0 0 0 0 0 0 0 127 0" result="hardAlpha"/>
<feOffset dx="-4" dy="4"/>
<feComposite in2="hardAlpha" operator="out"/>
<feColorMatrix type="matrix" values="0 0 0 0 0 0 0 0 0 0 0 0 0 0 0 0 0 0 0.5 0"/>
<feBlend mode="normal" in2="effect1_dropShadow_8_64" result="effect2_dropShadow_8_64"/>
<feBlend mode="normal" in="SourceGraphic" in2="effect2_dropShadow_8_64" result="shape"/>
</filter>
<clipPath id="clip0_8_64">
<rect width="424" height="480" rx="5" fill="white"/>
</clipPath>
</defs>
</svg>
