<svg width="144" height="145" viewBox="0 0 144 145" fill="none" xmlns="http://www.w3.org/2000/svg">
<g filter="url(#filter0_dd_1_410)">
<rect x="20" y="20" width="104" height="104" rx="52" fill="#272822" fill-opacity="0.9" shape-rendering="crispEdges"/>
<rect x="20" y="20" width="104" height="104" rx="52" stroke="#66D9EF" stroke-width="3" shape-rendering="crispEdges"/>
<path d="M84.5 76H88.6667V80H92.8333V84H97V88H92.8333V92H88.6667V96H84.5V92H80.3333V88H76.1667V84H67.8333V88H63.6667V92H59.5V96H55.3333V92H51.1667V88H47V84H51.1667V80H55.3333V76H59.5V68H55.3333V64H51.1667V60H47V56H51.1667V52H55.3333V48H59.5V52H63.6667V56H67.8333V60H76.1667V56H80.3333V52H84.5V48H88.6667V52H92.8333V56H97V60H92.8333V64H88.6667V68H84.5V76Z" fill="#66D9EF"/>
</g>
<defs>
<filter id="filter0_dd_1_410" x="-0.5" y="-0.5" width="145" height="145" filterUnits="userSpaceOnUse" color-interpolation-filters="sRGB">
<feFlood flood-opacity="0" result="BackgroundImageFix"/>
<feColorMatrix in="SourceAlpha" type="matrix" values="0 0 0 0 0 0 0 0 0 0 0 0 0 0 0 0 0 0 127 0" result="hardAlpha"/>
<feMorphology radius="4" operator="dilate" in="SourceAlpha" result="effect1_dropShadow_1_410"/>
<feOffset/>
<feGaussianBlur stdDeviation="7.5"/>
<feComposite in2="hardAlpha" operator="out"/>
<feColorMatrix type="matrix" values="0 0 0 0 0.972549 0 0 0 0 0.972549 0 0 0 0 0.94902 0 0 0 0.6 0"/>
<feBlend mode="normal" in2="BackgroundImageFix" result="effect1_dropShadow_1_410"/>
<feColorMatrix in="SourceAlpha" type="matrix" values="0 0 0 0 0 0 0 0 0 0 0 0 0 0 0 0 0 0 127 0" result="hardAlpha"/>
<feOffset dx="-4" dy="4"/>
<feComposite in2="hardAlpha" operator="out"/>
<feColorMatrix type="matrix" values="0 0 0 0 0 0 0 0 0 0 0 0 0 0 0 0 0 0 0.5 0"/>
<feBlend mode="normal" in2="effect1_dropShadow_1_410" result="effect2_dropShadow_1_410"/>
<feBlend mode="normal" in="SourceGraphic" in2="effect2_dropShadow_1_410" result="shape"/>
</filter>
</defs>
</svg>
