<svg width="460" height="316" viewBox="0 0 460 316" fill="none" xmlns="http://www.w3.org/2000/svg">
<g filter="url(#filter0_dd_8_69)">
<rect x="21" y="21" width="418" height="274" rx="24" fill="#272822" fill-opacity="0.9" shape-rendering="crispEdges"/>
<rect x="21" y="21" width="418" height="274" rx="24" stroke="#66D9EF" stroke-width="3" shape-rendering="crispEdges"/>
<path d="M65.08 77.2C64.1467 77.2 63.3267 77.0267 62.62 76.68C61.9267 76.32 61.3867 75.82 61 75.18C60.6267 74.5267 60.44 73.76 60.44 72.88V66.52C60.44 65.6267 60.6267 64.86 61 64.22C61.3867 63.58 61.9267 63.0867 62.62 62.74C63.3267 62.38 64.1467 62.2 65.08 62.2C66.0267 62.2 66.84 62.38 67.52 62.74C68.2133 63.0867 68.7533 63.58 69.14 64.22C69.5267 64.86 69.72 65.6267 69.72 66.52H67.2C67.2 65.8267 67.0133 65.3 66.64 64.94C66.28 64.58 65.76 64.4 65.08 64.4C64.4 64.4 63.8733 64.58 63.5 64.94C63.1267 65.3 62.94 65.82 62.94 66.5V72.88C62.94 73.56 63.1267 74.0867 63.5 74.46C63.8733 74.82 64.4 75 65.08 75C65.76 75 66.28 74.82 66.64 74.46C67.0133 74.0867 67.2 73.56 67.2 72.88H69.72C69.72 73.7467 69.5267 74.5067 69.14 75.16C68.7533 75.8133 68.2133 76.32 67.52 76.68C66.84 77.0267 66.0267 77.2 65.08 77.2ZM76.9922 77.18C76.0589 77.18 75.2455 77.0067 74.5522 76.66C73.8722 76.3 73.3389 75.8 72.9522 75.16C72.5789 74.5067 72.3922 73.74 72.3922 72.86V70.14C72.3922 69.26 72.5789 68.5 72.9522 67.86C73.3389 67.2067 73.8722 66.7067 74.5522 66.36C75.2455 66 76.0589 65.82 76.9922 65.82C77.9389 65.82 78.7522 66 79.4322 66.36C80.1122 66.7067 80.6389 67.2067 81.0122 67.86C81.3989 68.5 81.5922 69.2533 81.5922 70.12V72.86C81.5922 73.74 81.3989 74.5067 81.0122 75.16C80.6389 75.8 80.1122 76.3 79.4322 76.66C78.7522 77.0067 77.9389 77.18 76.9922 77.18ZM76.9922 75C77.6589 75 78.1722 74.82 78.5322 74.46C78.9055 74.0867 79.0922 73.5533 79.0922 72.86V70.14C79.0922 69.4333 78.9055 68.9 78.5322 68.54C78.1722 68.18 77.6589 68 76.9922 68C76.3389 68 75.8255 68.18 75.4522 68.54C75.0789 68.9 74.8922 69.4333 74.8922 70.14V72.86C74.8922 73.5533 75.0789 74.0867 75.4522 74.46C75.8255 74.82 76.3389 75 76.9922 75ZM84.5244 77V66H86.9644V68.1H87.6444L86.9644 68.68C86.9644 67.7733 87.2244 67.0667 87.7444 66.56C88.2777 66.0533 89.0044 65.8 89.9244 65.8C91.0044 65.8 91.8644 66.16 92.5044 66.88C93.1577 67.6 93.4844 68.5667 93.4844 69.78V77H90.9844V70.04C90.9844 69.3733 90.811 68.86 90.4644 68.5C90.1177 68.14 89.631 67.96 89.0044 67.96C88.391 67.96 87.9044 68.1467 87.5444 68.52C87.1977 68.8933 87.0244 69.4267 87.0244 70.12V77H84.5244ZM102.177 77C101.123 77 100.297 76.7067 99.6966 76.12C99.1099 75.5333 98.8166 74.7267 98.8166 73.7V68.26H95.8366V66H98.8166V62.9H101.337V66H105.557V68.26H101.337V73.7C101.337 74.3933 101.677 74.74 102.357 74.74H105.357V77H102.177ZM111.749 77.2C110.615 77.2 109.722 76.9 109.069 76.3C108.415 75.7 108.089 74.8933 108.089 73.88C108.089 72.8 108.449 71.9667 109.169 71.38C109.889 70.7933 110.909 70.5 112.229 70.5H114.969V69.56C114.969 69.0267 114.795 68.6133 114.449 68.32C114.102 68.0133 113.629 67.86 113.029 67.86C112.482 67.86 112.029 67.98 111.669 68.22C111.309 68.46 111.095 68.7867 111.029 69.2H108.589C108.709 68.16 109.175 67.3333 109.989 66.72C110.802 66.1067 111.842 65.8 113.109 65.8C114.455 65.8 115.515 66.14 116.289 66.82C117.075 67.4867 117.469 68.3933 117.469 69.54V77H115.049V75.08H114.649L115.049 74.54C115.049 75.3533 114.749 76 114.149 76.48C113.549 76.96 112.749 77.2 111.749 77.2ZM112.569 75.32C113.275 75.32 113.849 75.14 114.289 74.78C114.742 74.42 114.969 73.9533 114.969 73.38V72.04H112.269C111.762 72.04 111.355 72.1867 111.049 72.48C110.742 72.7733 110.589 73.16 110.589 73.64C110.589 74.16 110.762 74.5733 111.109 74.88C111.469 75.1733 111.955 75.32 112.569 75.32ZM125.021 77.2C124.088 77.2 123.268 77.0267 122.561 76.68C121.868 76.32 121.328 75.82 120.941 75.18C120.554 74.5267 120.361 73.76 120.361 72.88V70.12C120.361 69.2267 120.554 68.46 120.941 67.82C121.328 67.18 121.868 66.6867 122.561 66.34C123.268 65.98 124.088 65.8 125.021 65.8C126.408 65.8 127.514 66.16 128.341 66.88C129.168 67.5867 129.601 68.5533 129.641 69.78H127.141C127.101 69.2067 126.894 68.7667 126.521 68.46C126.161 68.14 125.661 67.98 125.021 67.98C124.354 67.98 123.828 68.1667 123.441 68.54C123.054 68.9 122.861 69.42 122.861 70.1V72.88C122.861 73.56 123.054 74.0867 123.441 74.46C123.828 74.8333 124.354 75.02 125.021 75.02C125.661 75.02 126.161 74.8667 126.521 74.56C126.894 74.24 127.101 73.7933 127.141 73.22H129.641C129.601 74.4467 129.168 75.42 128.341 76.14C127.514 76.8467 126.408 77.2 125.021 77.2ZM138.153 77C137.1 77 136.273 76.7067 135.673 76.12C135.086 75.5333 134.793 74.7267 134.793 73.7V68.26H131.813V66H134.793V62.9H137.313V66H141.533V68.26H137.313V73.7C137.313 74.3933 137.653 74.74 138.333 74.74H141.333V77H138.153ZM156.058 77V62.4H159.018L160.438 67.04C160.584 67.5067 160.704 67.9333 160.798 68.32C160.891 68.7067 160.951 68.9867 160.978 69.16C161.004 68.9867 161.064 68.7067 161.158 68.32C161.251 67.9333 161.364 67.5067 161.498 67.04L162.858 62.4H165.818V77H163.478V72.46C163.478 71.7933 163.498 71.0667 163.538 70.28C163.578 69.4933 163.624 68.7067 163.678 67.92C163.731 67.1333 163.791 66.3867 163.858 65.68C163.938 64.9733 164.004 64.3533 164.058 63.82L162.098 70.72H159.818L157.798 63.82C157.864 64.3267 157.931 64.9267 157.998 65.62C158.064 66.3 158.124 67.0333 158.178 67.82C158.244 68.5933 158.298 69.38 158.338 70.18C158.378 70.98 158.398 71.74 158.398 72.46V77H156.058ZM172.95 77.2C172.016 77.2 171.203 77.02 170.51 76.66C169.816 76.3 169.276 75.8 168.89 75.16C168.516 74.5067 168.33 73.7467 168.33 72.88V70.12C168.33 69.2533 168.516 68.5 168.89 67.86C169.276 67.2067 169.816 66.7 170.51 66.34C171.203 65.98 172.016 65.8 172.95 65.8C173.87 65.8 174.67 65.98 175.35 66.34C176.043 66.7 176.576 67.2067 176.95 67.86C177.336 68.5 177.53 69.2533 177.53 70.12V72.1H170.75V72.88C170.75 73.6533 170.936 74.24 171.31 74.64C171.683 75.0267 172.236 75.22 172.97 75.22C173.53 75.22 173.983 75.1267 174.33 74.94C174.676 74.74 174.896 74.4533 174.99 74.08H177.45C177.263 75.0267 176.756 75.7867 175.93 76.36C175.116 76.92 174.123 77.2 172.95 77.2ZM175.11 70.7V70.1C175.11 69.34 174.93 68.76 174.57 68.36C174.21 67.9467 173.67 67.74 172.95 67.74C172.23 67.74 171.683 67.9467 171.31 68.36C170.936 68.7733 170.75 69.36 170.75 70.12V70.54L175.29 70.5L175.11 70.7Z" fill="#66D9EF"/>
<g filter="url(#filter1_d_8_69)">
<rect x="59" y="115" width="342" height="56" rx="12" fill="#395C5F" shape-rendering="crispEdges"/>
<rect x="59.5" y="115.5" width="341" height="55" rx="11.5" stroke="#66D9EF" shape-rendering="crispEdges"/>
<path d="M80.02 150.2C79.0867 150.2 78.2733 150.02 77.58 149.66C76.8867 149.3 76.3467 148.8 75.96 148.16C75.5867 147.507 75.4 146.747 75.4 145.88V143.12C75.4 142.253 75.5867 141.5 75.96 140.86C76.3467 140.207 76.8867 139.7 77.58 139.34C78.2733 138.98 79.0867 138.8 80.02 138.8C80.94 138.8 81.74 138.98 82.42 139.34C83.1133 139.7 83.6467 140.207 84.02 140.86C84.4067 141.5 84.6 142.253 84.6 143.12V145.1H77.82V145.88C77.82 146.653 78.0067 147.24 78.38 147.64C78.7533 148.027 79.3067 148.22 80.04 148.22C80.6 148.22 81.0533 148.127 81.4 147.94C81.7467 147.74 81.9667 147.453 82.06 147.08H84.52C84.3333 148.027 83.8267 148.787 83 149.36C82.1867 149.92 81.1933 150.2 80.02 150.2ZM82.18 143.7V143.1C82.18 142.34 82 141.76 81.64 141.36C81.28 140.947 80.74 140.74 80.02 140.74C79.3 140.74 78.7533 140.947 78.38 141.36C78.0067 141.773 77.82 142.36 77.82 143.12V143.54L82.36 143.5L82.18 143.7ZM87.0322 150V139H89.0722V140.48H89.4922L89.1522 140.84C89.1522 140.227 89.3255 139.733 89.6722 139.36C90.0189 138.987 90.4655 138.8 91.0122 138.8C91.5989 138.8 92.0522 139.04 92.3722 139.52C92.7055 140 92.8722 140.647 92.8722 141.46L92.4322 140.48H93.1122L92.8522 140.84C92.8522 140.227 93.0255 139.733 93.3722 139.36C93.7189 138.987 94.1789 138.8 94.7522 138.8C95.4322 138.8 95.9722 139.053 96.3722 139.56C96.7722 140.067 96.9722 140.753 96.9722 141.62V150H94.7722V141.72C94.7722 141.36 94.6922 141.08 94.5322 140.88C94.3722 140.667 94.1389 140.56 93.8322 140.56C93.5389 140.56 93.3055 140.66 93.1322 140.86C92.9722 141.06 92.8922 141.347 92.8922 141.72V150H91.0922V141.72C91.0922 141.347 91.0122 141.06 90.8522 140.86C90.6922 140.66 90.4589 140.56 90.1522 140.56C89.8455 140.56 89.6122 140.66 89.4522 140.86C89.3055 141.06 89.2322 141.347 89.2322 141.72V150H87.0322ZM102.764 150.2C101.631 150.2 100.738 149.9 100.084 149.3C99.431 148.7 99.1044 147.893 99.1044 146.88C99.1044 145.8 99.4644 144.967 100.184 144.38C100.904 143.793 101.924 143.5 103.244 143.5H105.984V142.56C105.984 142.027 105.811 141.613 105.464 141.32C105.118 141.013 104.644 140.86 104.044 140.86C103.498 140.86 103.044 140.98 102.684 141.22C102.324 141.46 102.111 141.787 102.044 142.2H99.6044C99.7244 141.16 100.191 140.333 101.004 139.72C101.818 139.107 102.858 138.8 104.124 138.8C105.471 138.8 106.531 139.14 107.304 139.82C108.091 140.487 108.484 141.393 108.484 142.54V150H106.064V148.08H105.664L106.064 147.54C106.064 148.353 105.764 149 105.164 149.48C104.564 149.96 103.764 150.2 102.764 150.2ZM103.584 148.32C104.291 148.32 104.864 148.14 105.304 147.78C105.758 147.42 105.984 146.953 105.984 146.38V145.04H103.284C102.778 145.04 102.371 145.187 102.064 145.48C101.758 145.773 101.604 146.16 101.604 146.64C101.604 147.16 101.778 147.573 102.124 147.88C102.484 148.173 102.971 148.32 103.584 148.32ZM111.497 150V147.72H115.337V141.26H111.997V139H117.737V147.72H121.137V150H111.497ZM116.337 137.16C115.83 137.16 115.43 137.033 115.137 136.78C114.843 136.513 114.697 136.16 114.697 135.72C114.697 135.28 114.843 134.933 115.137 134.68C115.43 134.413 115.83 134.28 116.337 134.28C116.843 134.28 117.243 134.413 117.537 134.68C117.83 134.933 117.977 135.28 117.977 135.72C117.977 136.16 117.83 136.513 117.537 136.78C117.243 137.033 116.843 137.16 116.337 137.16ZM129.649 150C128.929 150 128.295 149.853 127.749 149.56C127.215 149.267 126.795 148.853 126.489 148.32C126.182 147.773 126.029 147.147 126.029 146.44V137.66H122.509V135.4H128.529V146.44C128.529 146.84 128.642 147.16 128.869 147.4C129.109 147.627 129.429 147.74 129.829 147.74H133.149V150H129.649ZM146.993 150V139H149.033V140.48H149.453L149.113 140.84C149.113 140.227 149.286 139.733 149.633 139.36C149.98 138.987 150.426 138.8 150.973 138.8C151.56 138.8 152.013 139.04 152.333 139.52C152.666 140 152.833 140.647 152.833 141.46L152.393 140.48H153.073L152.813 140.84C152.813 140.227 152.986 139.733 153.333 139.36C153.68 138.987 154.14 138.8 154.713 138.8C155.393 138.8 155.933 139.053 156.333 139.56C156.733 140.067 156.933 140.753 156.933 141.62V150H154.733V141.72C154.733 141.36 154.653 141.08 154.493 140.88C154.333 140.667 154.1 140.56 153.793 140.56C153.5 140.56 153.266 140.66 153.093 140.86C152.933 141.06 152.853 141.347 152.853 141.72V150H151.053V141.72C151.053 141.347 150.973 141.06 150.813 140.86C150.653 140.66 150.42 140.56 150.113 140.56C149.806 140.56 149.573 140.66 149.413 140.86C149.266 141.06 149.193 141.347 149.193 141.72V150H146.993ZM163.965 150.2C163.032 150.2 162.219 150.02 161.525 149.66C160.832 149.3 160.292 148.8 159.905 148.16C159.532 147.507 159.345 146.747 159.345 145.88V143.12C159.345 142.253 159.532 141.5 159.905 140.86C160.292 140.207 160.832 139.7 161.525 139.34C162.219 138.98 163.032 138.8 163.965 138.8C164.885 138.8 165.685 138.98 166.365 139.34C167.059 139.7 167.592 140.207 167.965 140.86C168.352 141.5 168.545 142.253 168.545 143.12V145.1H161.765V145.88C161.765 146.653 161.952 147.24 162.325 147.64C162.699 148.027 163.252 148.22 163.985 148.22C164.545 148.22 164.999 148.127 165.345 147.94C165.692 147.74 165.912 147.453 166.005 147.08H168.465C168.279 148.027 167.772 148.787 166.945 149.36C166.132 149.92 165.139 150.2 163.965 150.2ZM166.125 143.7V143.1C166.125 142.34 165.945 141.76 165.585 141.36C165.225 140.947 164.685 140.74 163.965 140.74C163.245 140.74 162.699 140.947 162.325 141.36C161.952 141.773 161.765 142.36 161.765 143.12V143.54L166.305 143.5L166.125 143.7ZM175.018 145.34L174.578 138.16V135.4H177.298V138.16L176.858 145.34H175.018ZM175.638 150.1C175.224 150.1 174.891 149.98 174.638 149.74C174.384 149.487 174.258 149.167 174.258 148.78C174.258 148.393 174.384 148.08 174.638 147.84C174.891 147.587 175.224 147.46 175.638 147.46H176.238C176.664 147.46 176.998 147.58 177.238 147.82C177.491 148.06 177.618 148.38 177.618 148.78C177.618 149.167 177.491 149.487 177.238 149.74C176.984 149.98 176.644 150.1 176.218 150.1H175.638Z" fill="#F8F8F2"/>
</g>
<g filter="url(#filter2_d_8_69)">
<rect x="59" y="203" width="342" height="56" rx="12" fill="#395C5F" shape-rendering="crispEdges"/>
<rect x="59.5" y="203.5" width="341" height="55" rx="11.5" stroke="#66D9EF" shape-rendering="crispEdges"/>
<path d="M80.06 238.2C79.1267 238.2 78.3067 238.027 77.6 237.68C76.9067 237.32 76.3667 236.82 75.98 236.18C75.5933 235.527 75.4 234.76 75.4 233.88V231.12C75.4 230.227 75.5933 229.46 75.98 228.82C76.3667 228.18 76.9067 227.687 77.6 227.34C78.3067 226.98 79.1267 226.8 80.06 226.8C81.4467 226.8 82.5533 227.16 83.38 227.88C84.2067 228.587 84.64 229.553 84.68 230.78H82.18C82.14 230.207 81.9333 229.767 81.56 229.46C81.2 229.14 80.7 228.98 80.06 228.98C79.3933 228.98 78.8667 229.167 78.48 229.54C78.0933 229.9 77.9 230.42 77.9 231.1V233.88C77.9 234.56 78.0933 235.087 78.48 235.46C78.8667 235.833 79.3933 236.02 80.06 236.02C80.7 236.02 81.2 235.867 81.56 235.56C81.9333 235.24 82.14 234.793 82.18 234.22H84.68C84.64 235.447 84.2067 236.42 83.38 237.14C82.5533 237.847 81.4467 238.2 80.06 238.2ZM87.5322 238V223.4H90.0322V227L89.9722 229.1H90.6522L89.9722 229.68C89.9722 228.773 90.2322 228.067 90.7522 227.56C91.2855 227.053 92.0122 226.8 92.9322 226.8C94.0122 226.8 94.8722 227.16 95.5122 227.88C96.1655 228.6 96.4922 229.567 96.4922 230.78V238H93.9922V231.04C93.9922 230.373 93.8189 229.86 93.4722 229.5C93.1255 229.14 92.6389 228.96 92.0122 228.96C91.3989 228.96 90.9122 229.147 90.5522 229.52C90.2055 229.893 90.0322 230.427 90.0322 231.12V238H87.5322ZM104.004 238.2C103.071 238.2 102.258 238.02 101.564 237.66C100.871 237.3 100.331 236.8 99.9444 236.16C99.571 235.507 99.3844 234.747 99.3844 233.88V231.12C99.3844 230.253 99.571 229.5 99.9444 228.86C100.331 228.207 100.871 227.7 101.564 227.34C102.258 226.98 103.071 226.8 104.004 226.8C104.924 226.8 105.724 226.98 106.404 227.34C107.098 227.7 107.631 228.207 108.004 228.86C108.391 229.5 108.584 230.253 108.584 231.12V233.1H101.804V233.88C101.804 234.653 101.991 235.24 102.364 235.64C102.738 236.027 103.291 236.22 104.024 236.22C104.584 236.22 105.038 236.127 105.384 235.94C105.731 235.74 105.951 235.453 106.044 235.08H108.504C108.318 236.027 107.811 236.787 106.984 237.36C106.171 237.92 105.178 238.2 104.004 238.2ZM106.164 231.7V231.1C106.164 230.34 105.984 229.76 105.624 229.36C105.264 228.947 104.724 228.74 104.004 228.74C103.284 228.74 102.738 228.947 102.364 229.36C101.991 229.773 101.804 230.36 101.804 231.12V231.54L106.344 231.5L106.164 231.7ZM116.037 238.2C115.103 238.2 114.283 238.027 113.577 237.68C112.883 237.32 112.343 236.82 111.957 236.18C111.57 235.527 111.377 234.76 111.377 233.88V231.12C111.377 230.227 111.57 229.46 111.957 228.82C112.343 228.18 112.883 227.687 113.577 227.34C114.283 226.98 115.103 226.8 116.037 226.8C117.423 226.8 118.53 227.16 119.357 227.88C120.183 228.587 120.617 229.553 120.657 230.78H118.157C118.117 230.207 117.91 229.767 117.537 229.46C117.177 229.14 116.677 228.98 116.037 228.98C115.37 228.98 114.843 229.167 114.457 229.54C114.07 229.9 113.877 230.42 113.877 231.1V233.88C113.877 234.56 114.07 235.087 114.457 235.46C114.843 235.833 115.37 236.02 116.037 236.02C116.677 236.02 117.177 235.867 117.537 235.56C117.91 235.24 118.117 234.793 118.157 234.22H120.657C120.617 235.447 120.183 236.42 119.357 237.14C118.53 237.847 117.423 238.2 116.037 238.2ZM123.569 238V223.4H126.069V231.32H127.809L130.489 227H133.289L129.969 232.32L133.349 238H130.489L127.809 233.44H126.069V238H123.569ZM151.953 238.18C151.02 238.18 150.206 238.007 149.513 237.66C148.833 237.3 148.3 236.8 147.913 236.16C147.54 235.507 147.353 234.74 147.353 233.86V231.14C147.353 230.26 147.54 229.5 147.913 228.86C148.3 228.207 148.833 227.707 149.513 227.36C150.206 227 151.02 226.82 151.953 226.82C152.9 226.82 153.713 227 154.393 227.36C155.073 227.707 155.6 228.207 155.973 228.86C156.36 229.5 156.553 230.253 156.553 231.12V233.86C156.553 234.74 156.36 235.507 155.973 236.16C155.6 236.8 155.073 237.3 154.393 237.66C153.713 238.007 152.9 238.18 151.953 238.18ZM151.953 236C152.62 236 153.133 235.82 153.493 235.46C153.866 235.087 154.053 234.553 154.053 233.86V231.14C154.053 230.433 153.866 229.9 153.493 229.54C153.133 229.18 152.62 229 151.953 229C151.3 229 150.786 229.18 150.413 229.54C150.04 229.9 149.853 230.433 149.853 231.14V233.86C149.853 234.553 150.04 235.087 150.413 235.46C150.786 235.82 151.3 236 151.953 236ZM163.945 238.2C162.545 238.2 161.445 237.813 160.645 237.04C159.845 236.253 159.445 235.187 159.445 233.84V227H161.945V233.82C161.945 234.527 162.119 235.073 162.465 235.46C162.812 235.833 163.305 236.02 163.945 236.02C164.572 236.02 165.059 235.833 165.405 235.46C165.765 235.073 165.945 234.527 165.945 233.82V227H168.445V233.84C168.445 235.187 168.039 236.253 167.225 237.04C166.412 237.813 165.319 238.2 163.945 238.2ZM177.138 238C176.084 238 175.258 237.707 174.658 237.12C174.071 236.533 173.778 235.727 173.778 234.7V229.26H170.798V227H173.778V223.9H176.298V227H180.518V229.26H176.298V234.7C176.298 235.393 176.638 235.74 177.318 235.74H180.318V238H177.138ZM194.962 238V227H197.002V228.48H197.422L197.082 228.84C197.082 228.227 197.255 227.733 197.602 227.36C197.949 226.987 198.395 226.8 198.942 226.8C199.529 226.8 199.982 227.04 200.302 227.52C200.635 228 200.802 228.647 200.802 229.46L200.362 228.48H201.042L200.782 228.84C200.782 228.227 200.955 227.733 201.302 227.36C201.649 226.987 202.109 226.8 202.682 226.8C203.362 226.8 203.902 227.053 204.302 227.56C204.702 228.067 204.902 228.753 204.902 229.62V238H202.702V229.72C202.702 229.36 202.622 229.08 202.462 228.88C202.302 228.667 202.069 228.56 201.762 228.56C201.469 228.56 201.235 228.66 201.062 228.86C200.902 229.06 200.822 229.347 200.822 229.72V238H199.022V229.72C199.022 229.347 198.942 229.06 198.782 228.86C198.622 228.66 198.389 228.56 198.082 228.56C197.775 228.56 197.542 228.66 197.382 228.86C197.235 229.06 197.162 229.347 197.162 229.72V238H194.962ZM209.234 241.6L210.774 237.4L206.674 227H209.414L211.454 232.62C211.561 232.927 211.667 233.3 211.774 233.74C211.881 234.167 211.961 234.52 212.014 234.8C212.081 234.52 212.167 234.167 212.274 233.74C212.381 233.3 212.487 232.927 212.594 232.62L214.514 227H217.154L211.854 241.6H209.234ZM234.638 238V225.72H230.818V223.4H240.978V225.72H237.158V238H234.638ZM243.411 238V235.72H247.251V229.26H243.911V227H249.651V235.72H253.051V238H243.411ZM248.251 225.16C247.744 225.16 247.344 225.033 247.051 224.78C246.757 224.513 246.611 224.16 246.611 223.72C246.611 223.28 246.757 222.933 247.051 222.68C247.344 222.413 247.744 222.28 248.251 222.28C248.757 222.28 249.157 222.413 249.451 222.68C249.744 222.933 249.891 223.28 249.891 223.72C249.891 224.16 249.744 224.513 249.451 224.78C249.157 225.033 248.757 225.16 248.251 225.16ZM255.483 238V223.4H257.983V231.32H259.723L262.403 227H265.203L261.883 232.32L265.263 238H262.403L259.723 233.44H257.983V238H255.483ZM273.075 238C272.022 238 271.195 237.707 270.595 237.12C270.008 236.533 269.715 235.727 269.715 234.7V229.26H266.735V227H269.715V223.9H272.235V227H276.455V229.26H272.235V234.7C272.235 235.393 272.575 235.74 273.255 235.74H276.255V238H273.075ZM283.867 238.18C282.934 238.18 282.121 238.007 281.427 237.66C280.747 237.3 280.214 236.8 279.827 236.16C279.454 235.507 279.267 234.74 279.267 233.86V231.14C279.267 230.26 279.454 229.5 279.827 228.86C280.214 228.207 280.747 227.707 281.427 227.36C282.121 227 282.934 226.82 283.867 226.82C284.814 226.82 285.627 227 286.307 227.36C286.987 227.707 287.514 228.207 287.887 228.86C288.274 229.5 288.467 230.253 288.467 231.12V233.86C288.467 234.74 288.274 235.507 287.887 236.16C287.514 236.8 286.987 237.3 286.307 237.66C285.627 238.007 284.814 238.18 283.867 238.18ZM283.867 236C284.534 236 285.047 235.82 285.407 235.46C285.781 235.087 285.967 234.553 285.967 233.86V231.14C285.967 230.433 285.781 229.9 285.407 229.54C285.047 229.18 284.534 229 283.867 229C283.214 229 282.701 229.18 282.327 229.54C281.954 229.9 281.767 230.433 281.767 231.14V233.86C281.767 234.553 281.954 235.087 282.327 235.46C282.701 235.82 283.214 236 283.867 236ZM291.459 238V223.4H293.959V231.32H295.699L298.379 227H301.179L297.859 232.32L301.239 238H298.379L295.699 233.44H293.959V238H291.459Z" fill="#F8F8F2"/>
</g>
</g>
<defs>
<filter id="filter0_dd_8_69" x="0.5" y="0.5" width="459" height="315" filterUnits="userSpaceOnUse" color-interpolation-filters="sRGB">
<feFlood flood-opacity="0" result="BackgroundImageFix"/>
<feColorMatrix in="SourceAlpha" type="matrix" values="0 0 0 0 0 0 0 0 0 0 0 0 0 0 0 0 0 0 127 0" result="hardAlpha"/>
<feMorphology radius="4" operator="dilate" in="SourceAlpha" result="effect1_dropShadow_8_69"/>
<feOffset/>
<feGaussianBlur stdDeviation="7.5"/>
<feComposite in2="hardAlpha" operator="out"/>
<feColorMatrix type="matrix" values="0 0 0 0 0.972549 0 0 0 0 0.972549 0 0 0 0 0.94902 0 0 0 0.6 0"/>
<feBlend mode="normal" in2="BackgroundImageFix" result="effect1_dropShadow_8_69"/>
<feColorMatrix in="SourceAlpha" type="matrix" values="0 0 0 0 0 0 0 0 0 0 0 0 0 0 0 0 0 0 127 0" result="hardAlpha"/>
<feOffset dx="-4" dy="4"/>
<feComposite in2="hardAlpha" operator="out"/>
<feColorMatrix type="matrix" values="0 0 0 0 0 0 0 0 0 0 0 0 0 0 0 0 0 0 0.5 0"/>
<feBlend mode="normal" in2="effect1_dropShadow_8_69" result="effect2_dropShadow_8_69"/>
<feBlend mode="normal" in="SourceGraphic" in2="effect2_dropShadow_8_69" result="shape"/>
</filter>
<filter id="filter1_d_8_69" x="31" y="87" width="398" height="112" filterUnits="userSpaceOnUse" color-interpolation-filters="sRGB">
<feFlood flood-opacity="0" result="BackgroundImageFix"/>
<feColorMatrix in="SourceAlpha" type="matrix" values="0 0 0 0 0 0 0 0 0 0 0 0 0 0 0 0 0 0 127 0" result="hardAlpha"/>
<feMorphology radius="8" operator="dilate" in="SourceAlpha" result="effect1_dropShadow_8_69"/>
<feOffset/>
<feGaussianBlur stdDeviation="10"/>
<feComposite in2="hardAlpha" operator="out"/>
<feColorMatrix type="matrix" values="0 0 0 0 0.4 0 0 0 0 0.85098 0 0 0 0 0.937255 0 0 0 1 0"/>
<feBlend mode="normal" in2="BackgroundImageFix" result="effect1_dropShadow_8_69"/>
<feBlend mode="normal" in="SourceGraphic" in2="effect1_dropShadow_8_69" result="shape"/>
</filter>
<filter id="filter2_d_8_69" x="31" y="175" width="398" height="112" filterUnits="userSpaceOnUse" color-interpolation-filters="sRGB">
<feFlood flood-opacity="0" result="BackgroundImageFix"/>
<feColorMatrix in="SourceAlpha" type="matrix" values="0 0 0 0 0 0 0 0 0 0 0 0 0 0 0 0 0 0 127 0" result="hardAlpha"/>
<feMorphology radius="8" operator="dilate" in="SourceAlpha" result="effect1_dropShadow_8_69"/>
<feOffset/>
<feGaussianBlur stdDeviation="10"/>
<feComposite in2="hardAlpha" operator="out"/>
<feColorMatrix type="matrix" values="0 0 0 0 0.4 0 0 0 0 0.85098 0 0 0 0 0.937255 0 0 0 1 0"/>
<feBlend mode="normal" in2="BackgroundImageFix" result="effect1_dropShadow_8_69"/>
<feBlend mode="normal" in="SourceGraphic" in2="effect1_dropShadow_8_69" result="shape"/>
</filter>
</defs>
</svg>
