<svg width="144" height="640" viewBox="0 0 144 640" fill="none" xmlns="http://www.w3.org/2000/svg">
<g clip-path="url(#clip0_1_411)">
<g filter="url(#filter0_dd_1_411)">
<rect x="20" y="20" width="104" height="104" rx="52" fill="#272822" fill-opacity="0.9" shape-rendering="crispEdges"/>
<rect x="20" y="20" width="104" height="104" rx="52" stroke="#66D9EF" stroke-width="3" shape-rendering="crispEdges"/>
<path d="M84.5 76H88.6667V80H92.8333V84H97V88H92.8333V92H88.6667V96H84.5V92H80.3333V88H76.1667V84H67.8333V88H63.6667V92H59.5V96H55.3333V92H51.1667V88H47V84H51.1667V80H55.3333V76H59.5V68H55.3333V64H51.1667V60H47V56H51.1667V52H55.3333V48H59.5V52H63.6667V56H67.8333V60H76.1667V56H80.3333V52H84.5V48H88.6667V52H92.8333V56H97V60H92.8333V64H88.6667V68H84.5V76Z" fill="#66D9EF"/>
</g>
<g filter="url(#filter1_dd_1_411)">
<rect x="20" y="144" width="104" height="104" rx="52" fill="#272822" fill-opacity="0.9" shape-rendering="crispEdges"/>
<rect x="20" y="144" width="104" height="104" rx="52" stroke="#A6E22E" stroke-width="3" shape-rendering="crispEdges"/>
<path d="M84.5 200H88.6667V204H92.8333V208H97V212H92.8333V216H88.6667V220H84.5V216H80.3333V212H76.1667V208H67.8333V212H63.6667V216H59.5V220H55.3333V216H51.1667V212H47V208H51.1667V204H55.3333V200H59.5V192H55.3333V188H51.1667V184H47V180H51.1667V176H55.3333V172H59.5V176H63.6667V180H67.8333V184H76.1667V180H80.3333V176H84.5V172H88.6667V176H92.8333V180H97V184H92.8333V188H88.6667V192H84.5V200Z" fill="#A6E22E"/>
</g>
<g filter="url(#filter2_dd_1_411)">
<rect x="20" y="268" width="104" height="104" rx="52" fill="#272822" fill-opacity="0.9" shape-rendering="crispEdges"/>
<rect x="20" y="268" width="104" height="104" rx="52" stroke="#F92672" stroke-width="3" shape-rendering="crispEdges"/>
<path d="M84.5 324H88.6667V328H92.8333V332H97V336H92.8333V340H88.6667V344H84.5V340H80.3333V336H76.1667V332H67.8333V336H63.6667V340H59.5V344H55.3333V340H51.1667V336H47V332H51.1667V328H55.3333V324H59.5V316H55.3333V312H51.1667V308H47V304H51.1667V300H55.3333V296H59.5V300H63.6667V304H67.8333V308H76.1667V304H80.3333V300H84.5V296H88.6667V300H92.8333V304H97V308H92.8333V312H88.6667V316H84.5V324Z" fill="#F92672"/>
</g>
<g filter="url(#filter3_dd_1_411)">
<rect x="20" y="392" width="104" height="104" rx="52" fill="#272822" fill-opacity="0.9" shape-rendering="crispEdges"/>
<rect x="20" y="392" width="104" height="104" rx="52" stroke="#AE81FF" stroke-width="3" shape-rendering="crispEdges"/>
<path d="M84.5 448H88.6667V452H92.8333V456H97V460H92.8333V464H88.6667V468H84.5V464H80.3333V460H76.1667V456H67.8333V460H63.6667V464H59.5V468H55.3333V464H51.1667V460H47V456H51.1667V452H55.3333V448H59.5V440H55.3333V436H51.1667V432H47V428H51.1667V424H55.3333V420H59.5V424H63.6667V428H67.8333V432H76.1667V428H80.3333V424H84.5V420H88.6667V424H92.8333V428H97V432H92.8333V436H88.6667V440H84.5V448Z" fill="#AE81FF"/>
</g>
<g filter="url(#filter4_dd_1_411)">
<rect x="20" y="516" width="104" height="104" rx="52" fill="#272822" fill-opacity="0.9" shape-rendering="crispEdges"/>
<rect x="20" y="516" width="104" height="104" rx="52" stroke="#FD971F" stroke-width="3" shape-rendering="crispEdges"/>
<path d="M84.5 572H88.6667V576H92.8333V580H97V584H92.8333V588H88.6667V592H84.5V588H80.3333V584H76.1667V580H67.8333V584H63.6667V588H59.5V592H55.3333V588H51.1667V584H47V580H51.1667V576H55.3333V572H59.5V564H55.3333V560H51.1667V556H47V552H51.1667V548H55.3333V544H59.5V548H63.6667V552H67.8333V556H76.1667V552H80.3333V548H84.5V544H88.6667V548H92.8333V552H97V556H92.8333V560H88.6667V564H84.5V572Z" fill="#FD971F"/>
</g>
</g>
<rect x="0.5" y="0.5" width="143" height="639" rx="4.5" stroke="#8A38F5" stroke-dasharray="10 5"/>
<defs>
<filter id="filter0_dd_1_411" x="-0.5" y="-0.5" width="145" height="145" filterUnits="userSpaceOnUse" color-interpolation-filters="sRGB">
<feFlood flood-opacity="0" result="BackgroundImageFix"/>
<feColorMatrix in="SourceAlpha" type="matrix" values="0 0 0 0 0 0 0 0 0 0 0 0 0 0 0 0 0 0 127 0" result="hardAlpha"/>
<feMorphology radius="4" operator="dilate" in="SourceAlpha" result="effect1_dropShadow_1_411"/>
<feOffset/>
<feGaussianBlur stdDeviation="7.5"/>
<feComposite in2="hardAlpha" operator="out"/>
<feColorMatrix type="matrix" values="0 0 0 0 0.972549 0 0 0 0 0.972549 0 0 0 0 0.94902 0 0 0 0.6 0"/>
<feBlend mode="normal" in2="BackgroundImageFix" result="effect1_dropShadow_1_411"/>
<feColorMatrix in="SourceAlpha" type="matrix" values="0 0 0 0 0 0 0 0 0 0 0 0 0 0 0 0 0 0 127 0" result="hardAlpha"/>
<feOffset dx="-4" dy="4"/>
<feComposite in2="hardAlpha" operator="out"/>
<feColorMatrix type="matrix" values="0 0 0 0 0 0 0 0 0 0 0 0 0 0 0 0 0 0 0.5 0"/>
<feBlend mode="normal" in2="effect1_dropShadow_1_411" result="effect2_dropShadow_1_411"/>
<feBlend mode="normal" in="SourceGraphic" in2="effect2_dropShadow_1_411" result="shape"/>
</filter>
<filter id="filter1_dd_1_411" x="-0.5" y="123.5" width="145" height="145" filterUnits="userSpaceOnUse" color-interpolation-filters="sRGB">
<feFlood flood-opacity="0" result="BackgroundImageFix"/>
<feColorMatrix in="SourceAlpha" type="matrix" values="0 0 0 0 0 0 0 0 0 0 0 0 0 0 0 0 0 0 127 0" result="hardAlpha"/>
<feMorphology radius="4" operator="dilate" in="SourceAlpha" result="effect1_dropShadow_1_411"/>
<feOffset/>
<feGaussianBlur stdDeviation="7.5"/>
<feComposite in2="hardAlpha" operator="out"/>
<feColorMatrix type="matrix" values="0 0 0 0 0.972549 0 0 0 0 0.972549 0 0 0 0 0.94902 0 0 0 0.6 0"/>
<feBlend mode="normal" in2="BackgroundImageFix" result="effect1_dropShadow_1_411"/>
<feColorMatrix in="SourceAlpha" type="matrix" values="0 0 0 0 0 0 0 0 0 0 0 0 0 0 0 0 0 0 127 0" result="hardAlpha"/>
<feOffset dx="-4" dy="4"/>
<feComposite in2="hardAlpha" operator="out"/>
<feColorMatrix type="matrix" values="0 0 0 0 0 0 0 0 0 0 0 0 0 0 0 0 0 0 0.5 0"/>
<feBlend mode="normal" in2="effect1_dropShadow_1_411" result="effect2_dropShadow_1_411"/>
<feBlend mode="normal" in="SourceGraphic" in2="effect2_dropShadow_1_411" result="shape"/>
</filter>
<filter id="filter2_dd_1_411" x="-0.5" y="247.5" width="145" height="145" filterUnits="userSpaceOnUse" color-interpolation-filters="sRGB">
<feFlood flood-opacity="0" result="BackgroundImageFix"/>
<feColorMatrix in="SourceAlpha" type="matrix" values="0 0 0 0 0 0 0 0 0 0 0 0 0 0 0 0 0 0 127 0" result="hardAlpha"/>
<feMorphology radius="4" operator="dilate" in="SourceAlpha" result="effect1_dropShadow_1_411"/>
<feOffset/>
<feGaussianBlur stdDeviation="7.5"/>
<feComposite in2="hardAlpha" operator="out"/>
<feColorMatrix type="matrix" values="0 0 0 0 0.972549 0 0 0 0 0.972549 0 0 0 0 0.94902 0 0 0 0.6 0"/>
<feBlend mode="normal" in2="BackgroundImageFix" result="effect1_dropShadow_1_411"/>
<feColorMatrix in="SourceAlpha" type="matrix" values="0 0 0 0 0 0 0 0 0 0 0 0 0 0 0 0 0 0 127 0" result="hardAlpha"/>
<feOffset dx="-4" dy="4"/>
<feComposite in2="hardAlpha" operator="out"/>
<feColorMatrix type="matrix" values="0 0 0 0 0 0 0 0 0 0 0 0 0 0 0 0 0 0 0.5 0"/>
<feBlend mode="normal" in2="effect1_dropShadow_1_411" result="effect2_dropShadow_1_411"/>
<feBlend mode="normal" in="SourceGraphic" in2="effect2_dropShadow_1_411" result="shape"/>
</filter>
<filter id="filter3_dd_1_411" x="-0.5" y="371.5" width="145" height="145" filterUnits="userSpaceOnUse" color-interpolation-filters="sRGB">
<feFlood flood-opacity="0" result="BackgroundImageFix"/>
<feColorMatrix in="SourceAlpha" type="matrix" values="0 0 0 0 0 0 0 0 0 0 0 0 0 0 0 0 0 0 127 0" result="hardAlpha"/>
<feMorphology radius="4" operator="dilate" in="SourceAlpha" result="effect1_dropShadow_1_411"/>
<feOffset/>
<feGaussianBlur stdDeviation="7.5"/>
<feComposite in2="hardAlpha" operator="out"/>
<feColorMatrix type="matrix" values="0 0 0 0 0.972549 0 0 0 0 0.972549 0 0 0 0 0.94902 0 0 0 0.6 0"/>
<feBlend mode="normal" in2="BackgroundImageFix" result="effect1_dropShadow_1_411"/>
<feColorMatrix in="SourceAlpha" type="matrix" values="0 0 0 0 0 0 0 0 0 0 0 0 0 0 0 0 0 0 127 0" result="hardAlpha"/>
<feOffset dx="-4" dy="4"/>
<feComposite in2="hardAlpha" operator="out"/>
<feColorMatrix type="matrix" values="0 0 0 0 0 0 0 0 0 0 0 0 0 0 0 0 0 0 0.5 0"/>
<feBlend mode="normal" in2="effect1_dropShadow_1_411" result="effect2_dropShadow_1_411"/>
<feBlend mode="normal" in="SourceGraphic" in2="effect2_dropShadow_1_411" result="shape"/>
</filter>
<filter id="filter4_dd_1_411" x="-0.5" y="495.5" width="145" height="145" filterUnits="userSpaceOnUse" color-interpolation-filters="sRGB">
<feFlood flood-opacity="0" result="BackgroundImageFix"/>
<feColorMatrix in="SourceAlpha" type="matrix" values="0 0 0 0 0 0 0 0 0 0 0 0 0 0 0 0 0 0 127 0" result="hardAlpha"/>
<feMorphology radius="4" operator="dilate" in="SourceAlpha" result="effect1_dropShadow_1_411"/>
<feOffset/>
<feGaussianBlur stdDeviation="7.5"/>
<feComposite in2="hardAlpha" operator="out"/>
<feColorMatrix type="matrix" values="0 0 0 0 0.972549 0 0 0 0 0.972549 0 0 0 0 0.94902 0 0 0 0.6 0"/>
<feBlend mode="normal" in2="BackgroundImageFix" result="effect1_dropShadow_1_411"/>
<feColorMatrix in="SourceAlpha" type="matrix" values="0 0 0 0 0 0 0 0 0 0 0 0 0 0 0 0 0 0 127 0" result="hardAlpha"/>
<feOffset dx="-4" dy="4"/>
<feComposite in2="hardAlpha" operator="out"/>
<feColorMatrix type="matrix" values="0 0 0 0 0 0 0 0 0 0 0 0 0 0 0 0 0 0 0.5 0"/>
<feBlend mode="normal" in2="effect1_dropShadow_1_411" result="effect2_dropShadow_1_411"/>
<feBlend mode="normal" in="SourceGraphic" in2="effect2_dropShadow_1_411" result="shape"/>
</filter>
<clipPath id="clip0_1_411">
<rect width="144" height="640" rx="5" fill="white"/>
</clipPath>
</defs>
</svg>
