<svg width="400" height="220" viewBox="0 0 400 220" fill="none" xmlns="http://www.w3.org/2000/svg">
<g filter="url(#filter0_dd_8_63)">
<rect x="21" y="21" width="358" height="178" rx="24" fill="#272822" fill-opacity="0.9" shape-rendering="crispEdges"/>
<rect x="21" y="21" width="358" height="178" rx="24" stroke="#A6E22E" stroke-width="3" shape-rendering="crispEdges"/>
<path d="M111.099 71V60H113.139V61.48H113.559L113.219 61.84C113.219 61.2267 113.392 60.7333 113.739 60.36C114.085 59.9867 114.532 59.8 115.079 59.8C115.665 59.8 116.119 60.04 116.439 60.52C116.772 61 116.939 61.6467 116.939 62.46L116.499 61.48H117.179L116.919 61.84C116.919 61.2267 117.092 60.7333 117.439 60.36C117.785 59.9867 118.245 59.8 118.819 59.8C119.499 59.8 120.039 60.0533 120.439 60.56C120.839 61.0667 121.039 61.7533 121.039 62.62V71H118.839V62.72C118.839 62.36 118.759 62.08 118.599 61.88C118.439 61.6667 118.205 61.56 117.899 61.56C117.605 61.56 117.372 61.66 117.199 61.86C117.039 62.06 116.959 62.3467 116.959 62.72V71H115.159V62.72C115.159 62.3467 115.079 62.06 114.919 61.86C114.759 61.66 114.525 61.56 114.219 61.56C113.912 61.56 113.679 61.66 113.519 61.86C113.372 62.06 113.299 62.3467 113.299 62.72V71H111.099ZM123.571 71V68.72H127.411V62.26H124.071V60H129.811V68.72H133.211V71H123.571ZM128.411 58.16C127.904 58.16 127.504 58.0333 127.211 57.78C126.917 57.5133 126.771 57.16 126.771 56.72C126.771 56.28 126.917 55.9333 127.211 55.68C127.504 55.4133 127.904 55.28 128.411 55.28C128.917 55.28 129.317 55.4133 129.611 55.68C129.904 55.9333 130.051 56.28 130.051 56.72C130.051 57.16 129.904 57.5133 129.611 57.78C129.317 58.0333 128.917 58.16 128.411 58.16ZM139.623 71.18C138.783 71.18 138.05 71.0467 137.423 70.78C136.796 70.5133 136.303 70.1467 135.943 69.68C135.596 69.2 135.41 68.64 135.383 68H137.883C137.91 68.3467 138.076 68.6267 138.383 68.84C138.703 69.0533 139.116 69.16 139.623 69.16H140.503C141.116 69.16 141.576 69.04 141.883 68.8C142.19 68.56 142.343 68.2333 142.343 67.82C142.343 67.4333 142.203 67.1333 141.923 66.92C141.656 66.6933 141.236 66.5467 140.663 66.48L139.303 66.28C138.05 66.1067 137.13 65.7733 136.543 65.28C135.956 64.7867 135.663 64.0467 135.663 63.06C135.663 62.0333 136.01 61.24 136.703 60.68C137.396 60.1067 138.416 59.82 139.763 59.82H140.523C141.75 59.82 142.73 60.0933 143.463 60.64C144.196 61.1867 144.59 61.92 144.643 62.84H142.143C142.103 62.5467 141.936 62.3067 141.643 62.12C141.363 61.9333 140.99 61.84 140.523 61.84H139.763C139.19 61.84 138.77 61.9467 138.503 62.16C138.25 62.36 138.123 62.66 138.123 63.06C138.123 63.4333 138.236 63.7133 138.463 63.9C138.69 64.0733 139.056 64.2 139.563 64.28L140.983 64.48C142.29 64.6667 143.25 65.02 143.863 65.54C144.49 66.0467 144.803 66.8 144.803 67.8C144.803 68.8667 144.436 69.7 143.703 70.3C142.983 70.8867 141.916 71.18 140.503 71.18H139.623ZM151.615 71.18C150.775 71.18 150.042 71.0467 149.415 70.78C148.788 70.5133 148.295 70.1467 147.935 69.68C147.588 69.2 147.402 68.64 147.375 68H149.875C149.902 68.3467 150.068 68.6267 150.375 68.84C150.695 69.0533 151.108 69.16 151.615 69.16H152.495C153.108 69.16 153.568 69.04 153.875 68.8C154.182 68.56 154.335 68.2333 154.335 67.82C154.335 67.4333 154.195 67.1333 153.915 66.92C153.648 66.6933 153.228 66.5467 152.655 66.48L151.295 66.28C150.042 66.1067 149.122 65.7733 148.535 65.28C147.948 64.7867 147.655 64.0467 147.655 63.06C147.655 62.0333 148.002 61.24 148.695 60.68C149.388 60.1067 150.408 59.82 151.755 59.82H152.515C153.742 59.82 154.722 60.0933 155.455 60.64C156.188 61.1867 156.582 61.92 156.635 62.84H154.135C154.095 62.5467 153.928 62.3067 153.635 62.12C153.355 61.9333 152.982 61.84 152.515 61.84H151.755C151.182 61.84 150.762 61.9467 150.495 62.16C150.242 62.36 150.115 62.66 150.115 63.06C150.115 63.4333 150.228 63.7133 150.455 63.9C150.682 64.0733 151.048 64.2 151.555 64.28L152.975 64.48C154.282 64.6667 155.242 65.02 155.855 65.54C156.482 66.0467 156.795 66.8 156.795 67.8C156.795 68.8667 156.428 69.7 155.695 70.3C154.975 70.8867 153.908 71.18 152.495 71.18H151.615ZM159.547 71V68.72H163.387V62.26H160.047V60H165.787V68.72H169.187V71H159.547ZM164.387 58.16C163.881 58.16 163.481 58.0333 163.187 57.78C162.894 57.5133 162.747 57.16 162.747 56.72C162.747 56.28 162.894 55.9333 163.187 55.68C163.481 55.4133 163.881 55.28 164.387 55.28C164.894 55.28 165.294 55.4133 165.587 55.68C165.881 55.9333 166.027 56.28 166.027 56.72C166.027 57.16 165.881 57.5133 165.587 57.78C165.294 58.0333 164.894 58.16 164.387 58.16ZM176.02 71.18C175.086 71.18 174.273 71.0067 173.58 70.66C172.9 70.3 172.366 69.8 171.98 69.16C171.606 68.5067 171.42 67.74 171.42 66.86V64.14C171.42 63.26 171.606 62.5 171.98 61.86C172.366 61.2067 172.9 60.7067 173.58 60.36C174.273 60 175.086 59.82 176.02 59.82C176.966 59.82 177.78 60 178.46 60.36C179.14 60.7067 179.666 61.2067 180.04 61.86C180.426 62.5 180.62 63.2533 180.62 64.12V66.86C180.62 67.74 180.426 68.5067 180.04 69.16C179.666 69.8 179.14 70.3 178.46 70.66C177.78 71.0067 176.966 71.18 176.02 71.18ZM176.02 69C176.686 69 177.2 68.82 177.56 68.46C177.933 68.0867 178.12 67.5533 178.12 66.86V64.14C178.12 63.4333 177.933 62.9 177.56 62.54C177.2 62.18 176.686 62 176.02 62C175.366 62 174.853 62.18 174.48 62.54C174.106 62.9 173.92 63.4333 173.92 64.14V66.86C173.92 67.5533 174.106 68.0867 174.48 68.46C174.853 68.82 175.366 69 176.02 69ZM183.552 71V60H185.992V62.1H186.672L185.992 62.68C185.992 61.7733 186.252 61.0667 186.772 60.56C187.305 60.0533 188.032 59.8 188.952 59.8C190.032 59.8 190.892 60.16 191.532 60.88C192.185 61.6 192.512 62.5667 192.512 63.78V71H190.012V64.04C190.012 63.3733 189.838 62.86 189.492 62.5C189.145 62.14 188.658 61.96 188.032 61.96C187.418 61.96 186.932 62.1467 186.572 62.52C186.225 62.8933 186.052 63.4267 186.052 64.12V71H183.552ZM212.056 71.2C211.123 71.2 210.303 71.0267 209.596 70.68C208.903 70.32 208.363 69.82 207.976 69.18C207.589 68.5267 207.396 67.76 207.396 66.88V64.12C207.396 63.2267 207.589 62.46 207.976 61.82C208.363 61.18 208.903 60.6867 209.596 60.34C210.303 59.98 211.123 59.8 212.056 59.8C213.443 59.8 214.549 60.16 215.376 60.88C216.203 61.5867 216.636 62.5533 216.676 63.78H214.176C214.136 63.2067 213.929 62.7667 213.556 62.46C213.196 62.14 212.696 61.98 212.056 61.98C211.389 61.98 210.863 62.1667 210.476 62.54C210.089 62.9 209.896 63.42 209.896 64.1V66.88C209.896 67.56 210.089 68.0867 210.476 68.46C210.863 68.8333 211.389 69.02 212.056 69.02C212.696 69.02 213.196 68.8667 213.556 68.56C213.929 68.24 214.136 67.7933 214.176 67.22H216.676C216.636 68.4467 216.203 69.42 215.376 70.14C214.549 70.8467 213.443 71.2 212.056 71.2ZM223.988 71.18C223.055 71.18 222.242 71.0067 221.548 70.66C220.868 70.3 220.335 69.8 219.948 69.16C219.575 68.5067 219.388 67.74 219.388 66.86V64.14C219.388 63.26 219.575 62.5 219.948 61.86C220.335 61.2067 220.868 60.7067 221.548 60.36C222.242 60 223.055 59.82 223.988 59.82C224.935 59.82 225.748 60 226.428 60.36C227.108 60.7067 227.635 61.2067 228.008 61.86C228.395 62.5 228.588 63.2533 228.588 64.12V66.86C228.588 67.74 228.395 68.5067 228.008 69.16C227.635 69.8 227.108 70.3 226.428 70.66C225.748 71.0067 224.935 71.18 223.988 71.18ZM223.988 69C224.655 69 225.168 68.82 225.528 68.46C225.902 68.0867 226.088 67.5533 226.088 66.86V64.14C226.088 63.4333 225.902 62.9 225.528 62.54C225.168 62.18 224.655 62 223.988 62C223.335 62 222.822 62.18 222.448 62.54C222.075 62.9 221.888 63.4333 221.888 64.14V66.86C221.888 67.5533 222.075 68.0867 222.448 68.46C222.822 68.82 223.335 69 223.988 69ZM231.52 71V60H233.96V62.1H234.64L233.96 62.68C233.96 61.7733 234.22 61.0667 234.74 60.56C235.274 60.0533 236 59.8 236.92 59.8C238 59.8 238.86 60.16 239.5 60.88C240.154 61.6 240.48 62.5667 240.48 63.78V71H237.98V64.04C237.98 63.3733 237.807 62.86 237.46 62.5C237.114 62.14 236.627 61.96 236 61.96C235.387 61.96 234.9 62.1467 234.54 62.52C234.194 62.8933 234.02 63.4267 234.02 64.12V71H231.52ZM249.173 71C248.119 71 247.293 70.7067 246.693 70.12C246.106 69.5333 245.813 68.7267 245.813 67.7V62.26H242.833V60H245.813V56.9H248.333V60H252.553V62.26H248.333V67.7C248.333 68.3933 248.673 68.74 249.353 68.74H252.353V71H249.173ZM255.845 71V60H258.205V62.1H258.825L258.085 63.38C258.085 62.1933 258.352 61.3 258.885 60.7C259.418 60.1 260.205 59.8 261.245 59.8C262.432 59.8 263.365 60.1667 264.045 60.9C264.725 61.6333 265.065 62.6467 265.065 63.94V64.74H262.445V64.12C262.445 63.4133 262.258 62.8667 261.885 62.48C261.525 62.0933 261.025 61.9 260.385 61.9C259.732 61.9 259.225 62.0933 258.865 62.48C258.518 62.8667 258.345 63.4133 258.345 64.12V71H255.845ZM271.957 71.18C271.024 71.18 270.21 71.0067 269.517 70.66C268.837 70.3 268.304 69.8 267.917 69.16C267.544 68.5067 267.357 67.74 267.357 66.86V64.14C267.357 63.26 267.544 62.5 267.917 61.86C268.304 61.2067 268.837 60.7067 269.517 60.36C270.21 60 271.024 59.82 271.957 59.82C272.904 59.82 273.717 60 274.397 60.36C275.077 60.7067 275.604 61.2067 275.977 61.86C276.364 62.5 276.557 63.2533 276.557 64.12V66.86C276.557 67.74 276.364 68.5067 275.977 69.16C275.604 69.8 275.077 70.3 274.397 70.66C273.717 71.0067 272.904 71.18 271.957 71.18ZM271.957 69C272.624 69 273.137 68.82 273.497 68.46C273.87 68.0867 274.057 67.5533 274.057 66.86V64.14C274.057 63.4333 273.87 62.9 273.497 62.54C273.137 62.18 272.624 62 271.957 62C271.304 62 270.79 62.18 270.417 62.54C270.044 62.9 269.857 63.4333 269.857 64.14V66.86C269.857 67.5533 270.044 68.0867 270.417 68.46C270.79 68.82 271.304 69 271.957 69ZM285.629 71C284.909 71 284.276 70.8533 283.729 70.56C283.196 70.2667 282.776 69.8533 282.469 69.32C282.163 68.7733 282.009 68.1467 282.009 67.44V58.66H278.489V56.4H284.509V67.44C284.509 67.84 284.623 68.16 284.849 68.4C285.089 68.6267 285.409 68.74 285.809 68.74H289.129V71H285.629Z" fill="#A6E22E"/>
<circle cx="62" cy="114" r="19.5" stroke="#F92672" stroke-width="3"/>
<circle cx="131" cy="114" r="19.5" stroke="#66D9EF" stroke-width="3"/>
<circle cx="200" cy="114" r="19.5" stroke="#A6E22E" stroke-width="3"/>
<circle cx="269" cy="114" r="19.5" stroke="#FD971F" stroke-width="3"/>
<circle cx="338" cy="114" r="19.5" stroke="#AE81FF" stroke-width="3"/>
<path d="M116.057 165.14C115.432 165.14 114.886 165.019 114.419 164.776C113.962 164.524 113.607 164.174 113.355 163.726C113.103 163.269 112.977 162.737 112.977 162.13V157.65C112.977 157.034 113.103 156.502 113.355 156.054C113.607 155.606 113.962 155.261 114.419 155.018C114.886 154.766 115.432 154.64 116.057 154.64C116.692 154.64 117.238 154.766 117.695 155.018C118.153 155.261 118.507 155.606 118.759 156.054C119.011 156.502 119.137 157.034 119.137 157.65V162.13C119.137 162.737 119.011 163.269 118.759 163.726C118.507 164.174 118.148 164.524 117.681 164.776C117.224 165.019 116.683 165.14 116.057 165.14ZM116.057 164.062C116.617 164.062 117.065 163.885 117.401 163.53C117.747 163.166 117.919 162.699 117.919 162.13V157.65C117.919 157.081 117.747 156.619 117.401 156.264C117.065 155.9 116.617 155.718 116.057 155.718C115.497 155.718 115.045 155.9 114.699 156.264C114.363 156.619 114.195 157.081 114.195 157.65V162.13C114.195 162.699 114.363 163.166 114.699 163.53C115.045 163.885 115.497 164.062 116.057 164.062ZM116.057 160.716C115.805 160.716 115.6 160.637 115.441 160.478C115.292 160.319 115.217 160.109 115.217 159.848C115.217 159.596 115.292 159.395 115.441 159.246C115.6 159.087 115.805 159.008 116.057 159.008C116.309 159.008 116.51 159.087 116.659 159.246C116.818 159.395 116.897 159.596 116.897 159.848C116.897 160.109 116.818 160.319 116.659 160.478C116.51 160.637 116.309 160.716 116.057 160.716ZM121.302 166.54L126.272 153.38H127.602L122.632 166.54H121.302ZM132.818 165.14C131.988 165.14 131.306 164.925 130.774 164.496C130.242 164.067 129.93 163.488 129.836 162.76H131.096C131.143 163.161 131.316 163.474 131.614 163.698C131.913 163.913 132.319 164.02 132.832 164.02C133.42 164.02 133.859 163.861 134.148 163.544C134.447 163.227 134.596 162.779 134.596 162.2V161.206C134.596 160.627 134.447 160.179 134.148 159.862C133.859 159.545 133.425 159.386 132.846 159.386C132.482 159.386 132.165 159.484 131.894 159.68C131.624 159.867 131.428 160.119 131.306 160.436H130.046L130.116 154.78H135.492V155.928H131.334L131.292 159.33H131.684L131.292 159.694C131.292 159.255 131.465 158.91 131.81 158.658C132.165 158.406 132.636 158.28 133.224 158.28C134.055 158.271 134.699 158.527 135.156 159.05C135.623 159.563 135.856 160.282 135.856 161.206V162.2C135.856 163.105 135.59 163.824 135.058 164.356C134.526 164.879 133.78 165.14 132.818 165.14ZM146.724 167.52V157.3H147.984V158.77H148.236L147.984 159.064C147.984 158.476 148.175 158.014 148.558 157.678C148.95 157.333 149.463 157.16 150.098 157.16C150.872 157.16 151.488 157.417 151.946 157.93C152.412 158.434 152.646 159.129 152.646 160.016V162.27C152.646 162.858 152.538 163.367 152.324 163.796C152.118 164.225 151.824 164.557 151.442 164.79C151.068 165.023 150.62 165.14 150.098 165.14C149.472 165.14 148.964 164.967 148.572 164.622C148.18 164.277 147.984 163.815 147.984 163.236L148.236 163.53H147.956L147.984 165.28V167.52H146.724ZM149.678 164.048C150.21 164.048 150.625 163.889 150.924 163.572C151.232 163.255 151.386 162.797 151.386 162.2V160.1C151.386 159.503 151.232 159.045 150.924 158.728C150.625 158.411 150.21 158.252 149.678 158.252C149.164 158.252 148.754 158.415 148.446 158.742C148.138 159.069 147.984 159.521 147.984 160.1V162.2C147.984 162.779 148.138 163.231 148.446 163.558C148.754 163.885 149.164 164.048 149.678 164.048ZM155.384 165V157.3H156.616V158.77H156.91L156.504 159.68C156.504 158.849 156.681 158.224 157.036 157.804C157.4 157.375 157.937 157.16 158.646 157.16C159.458 157.16 160.102 157.417 160.578 157.93C161.063 158.434 161.306 159.12 161.306 159.988V160.45H160.046V160.1C160.046 159.493 159.897 159.031 159.598 158.714C159.309 158.387 158.893 158.224 158.352 158.224C157.82 158.224 157.4 158.387 157.092 158.714C156.793 159.041 156.644 159.503 156.644 160.1V165H155.384ZM166.425 165.112C165.809 165.112 165.277 164.995 164.829 164.762C164.381 164.529 164.031 164.193 163.779 163.754C163.536 163.306 163.415 162.779 163.415 162.172V160.128C163.415 159.512 163.536 158.985 163.779 158.546C164.031 158.107 164.381 157.771 164.829 157.538C165.277 157.305 165.809 157.188 166.425 157.188C167.041 157.188 167.573 157.305 168.021 157.538C168.469 157.771 168.814 158.107 169.057 158.546C169.309 158.985 169.435 159.507 169.435 160.114V162.172C169.435 162.779 169.309 163.306 169.057 163.754C168.814 164.193 168.469 164.529 168.021 164.762C167.573 164.995 167.041 165.112 166.425 165.112ZM166.425 163.992C166.975 163.992 167.405 163.838 167.713 163.53C168.021 163.222 168.175 162.769 168.175 162.172V160.128C168.175 159.531 168.021 159.078 167.713 158.77C167.405 158.462 166.975 158.308 166.425 158.308C165.883 158.308 165.454 158.462 165.137 158.77C164.829 159.078 164.675 159.531 164.675 160.128V162.172C164.675 162.769 164.829 163.222 165.137 163.53C165.454 163.838 165.883 163.992 166.425 163.992ZM171.809 167.52V166.358H173.615C174.194 166.358 174.642 166.199 174.959 165.882C175.286 165.574 175.449 165.135 175.449 164.566V158.448H172.229V157.3H176.709V164.566C176.709 165.471 176.429 166.19 175.869 166.722C175.309 167.254 174.558 167.52 173.615 167.52H171.809ZM176.009 155.914C175.701 155.914 175.458 155.835 175.281 155.676C175.104 155.517 175.015 155.303 175.015 155.032C175.015 154.752 175.104 154.533 175.281 154.374C175.458 154.206 175.701 154.122 176.009 154.122C176.317 154.122 176.56 154.206 176.737 154.374C176.914 154.533 177.003 154.752 177.003 155.032C177.003 155.303 176.914 155.517 176.737 155.676C176.56 155.835 176.317 155.914 176.009 155.914ZM183.214 165.14C182.607 165.14 182.075 165.019 181.618 164.776C181.17 164.533 180.82 164.193 180.568 163.754C180.325 163.306 180.204 162.788 180.204 162.2V160.1C180.204 159.503 180.325 158.985 180.568 158.546C180.82 158.107 181.17 157.767 181.618 157.524C182.075 157.281 182.607 157.16 183.214 157.16C183.82 157.16 184.348 157.281 184.796 157.524C185.253 157.767 185.603 158.107 185.846 158.546C186.098 158.985 186.224 159.503 186.224 160.1V161.458H181.436V162.2C181.436 162.807 181.59 163.273 181.898 163.6C182.206 163.917 182.644 164.076 183.214 164.076C183.699 164.076 184.091 163.992 184.39 163.824C184.688 163.647 184.87 163.385 184.936 163.04H186.196C186.112 163.684 185.794 164.197 185.244 164.58C184.702 164.953 184.026 165.14 183.214 165.14ZM184.992 160.618V160.1C184.992 159.493 184.838 159.027 184.53 158.7C184.231 158.373 183.792 158.21 183.214 158.21C182.644 158.21 182.206 158.373 181.898 158.7C181.59 159.027 181.436 159.493 181.436 160.1V160.506H185.09L184.992 160.618ZM191.664 165.14C191.048 165.14 190.507 165.023 190.04 164.79C189.583 164.557 189.228 164.221 188.976 163.782C188.724 163.334 188.598 162.807 188.598 162.2V160.1C188.598 159.484 188.724 158.957 188.976 158.518C189.228 158.079 189.583 157.743 190.04 157.51C190.507 157.277 191.048 157.16 191.664 157.16C192.551 157.16 193.265 157.398 193.806 157.874C194.348 158.35 194.632 158.999 194.66 159.82H193.4C193.372 159.325 193.204 158.947 192.896 158.686C192.598 158.415 192.187 158.28 191.664 158.28C191.114 158.28 190.675 158.439 190.348 158.756C190.022 159.064 189.858 159.507 189.858 160.086V162.2C189.858 162.779 190.022 163.227 190.348 163.544C190.675 163.861 191.114 164.02 191.664 164.02C192.187 164.02 192.598 163.885 192.896 163.614C193.204 163.343 193.372 162.965 193.4 162.48H194.66C194.632 163.301 194.348 163.95 193.806 164.426C193.265 164.902 192.551 165.14 191.664 165.14ZM200.843 165C200.18 165 199.662 164.823 199.289 164.468C198.925 164.113 198.743 163.614 198.743 162.97V158.448H196.573V157.3H198.743V155.13H200.003V157.3H203.083V158.448H200.003V162.97C200.003 163.558 200.283 163.852 200.843 163.852H202.943V165H200.843ZM208.159 165.112C207.637 165.112 207.179 165.033 206.787 164.874C206.405 164.706 206.097 164.473 205.863 164.174C205.639 163.875 205.504 163.521 205.457 163.11H206.717C206.773 163.381 206.923 163.595 207.165 163.754C207.417 163.913 207.749 163.992 208.159 163.992H208.747C209.242 163.992 209.611 163.894 209.853 163.698C210.096 163.493 210.217 163.222 210.217 162.886C210.217 162.559 210.105 162.303 209.881 162.116C209.667 161.92 209.345 161.789 208.915 161.724L207.879 161.556C207.123 161.425 206.559 161.192 206.185 160.856C205.821 160.511 205.639 160.011 205.639 159.358C205.639 158.667 205.859 158.135 206.297 157.762C206.736 157.379 207.394 157.188 208.271 157.188H208.803C209.541 157.188 210.133 157.361 210.581 157.706C211.029 158.051 211.3 158.518 211.393 159.106H210.133C210.077 158.863 209.937 158.672 209.713 158.532C209.489 158.383 209.186 158.308 208.803 158.308H208.271C207.795 158.308 207.445 158.397 207.221 158.574C207.007 158.751 206.899 159.017 206.899 159.372C206.899 159.689 206.993 159.923 207.179 160.072C207.366 160.221 207.66 160.329 208.061 160.394L209.097 160.562C209.928 160.693 210.53 160.935 210.903 161.29C211.286 161.645 211.477 162.158 211.477 162.83C211.477 163.539 211.249 164.099 210.791 164.51C210.343 164.911 209.662 165.112 208.747 165.112H208.159ZM225.186 165.14C224.58 165.14 224.048 165.019 223.59 164.776C223.142 164.533 222.792 164.193 222.54 163.754C222.298 163.306 222.176 162.788 222.176 162.2V160.1C222.176 159.503 222.298 158.985 222.54 158.546C222.792 158.107 223.142 157.767 223.59 157.524C224.048 157.281 224.58 157.16 225.186 157.16C225.793 157.16 226.32 157.281 226.768 157.524C227.226 157.767 227.576 158.107 227.818 158.546C228.07 158.985 228.196 159.503 228.196 160.1V161.458H223.408V162.2C223.408 162.807 223.562 163.273 223.87 163.6C224.178 163.917 224.617 164.076 225.186 164.076C225.672 164.076 226.064 163.992 226.362 163.824C226.661 163.647 226.843 163.385 226.908 163.04H228.168C228.084 163.684 227.767 164.197 227.216 164.58C226.675 164.953 225.998 165.14 225.186 165.14ZM226.964 160.618V160.1C226.964 159.493 226.81 159.027 226.502 158.7C226.204 158.373 225.765 158.21 225.186 158.21C224.617 158.21 224.178 158.373 223.87 158.7C223.562 159.027 223.408 159.493 223.408 160.1V160.506H227.062L226.964 160.618ZM230.081 165L232.811 161.038L230.249 157.3H231.733L233.259 159.68C233.324 159.783 233.385 159.895 233.441 160.016C233.506 160.137 233.558 160.235 233.595 160.31C233.623 160.235 233.665 160.137 233.721 160.016C233.786 159.895 233.852 159.783 233.917 159.68L235.457 157.3H236.927L234.365 161.052L237.081 165H235.597L233.945 162.48C233.88 162.377 233.814 162.261 233.749 162.13C233.693 161.99 233.642 161.878 233.595 161.794C233.558 161.878 233.502 161.99 233.427 162.13C233.362 162.261 233.292 162.377 233.217 162.48L231.551 165H230.081ZM239.063 167.52V157.3H240.323V158.77H240.575L240.323 159.064C240.323 158.476 240.515 158.014 240.897 157.678C241.289 157.333 241.803 157.16 242.437 157.16C243.212 157.16 243.828 157.417 244.285 157.93C244.752 158.434 244.985 159.129 244.985 160.016V162.27C244.985 162.858 244.878 163.367 244.663 163.796C244.458 164.225 244.164 164.557 243.781 164.79C243.408 165.023 242.96 165.14 242.437 165.14C241.812 165.14 241.303 164.967 240.911 164.622C240.519 164.277 240.323 163.815 240.323 163.236L240.575 163.53H240.295L240.323 165.28V167.52H239.063ZM242.017 164.048C242.549 164.048 242.965 163.889 243.263 163.572C243.571 163.255 243.725 162.797 243.725 162.2V160.1C243.725 159.503 243.571 159.045 243.263 158.728C242.965 158.411 242.549 158.252 242.017 158.252C241.504 158.252 241.093 158.415 240.785 158.742C240.477 159.069 240.323 159.521 240.323 160.1V162.2C240.323 162.779 240.477 163.231 240.785 163.558C241.093 163.885 241.504 164.048 242.017 164.048ZM251.42 165C250.972 165 250.58 164.911 250.244 164.734C249.908 164.557 249.647 164.305 249.46 163.978C249.273 163.651 249.18 163.269 249.18 162.83V155.928H246.59V154.78H250.44V162.83C250.44 163.147 250.529 163.399 250.706 163.586C250.883 163.763 251.121 163.852 251.42 163.852H253.87V165H251.42ZM258.764 165.112C258.148 165.112 257.616 164.995 257.168 164.762C256.72 164.529 256.37 164.193 256.118 163.754C255.876 163.306 255.754 162.779 255.754 162.172V160.128C255.754 159.512 255.876 158.985 256.118 158.546C256.37 158.107 256.72 157.771 257.168 157.538C257.616 157.305 258.148 157.188 258.764 157.188C259.38 157.188 259.912 157.305 260.36 157.538C260.808 157.771 261.154 158.107 261.396 158.546C261.648 158.985 261.774 159.507 261.774 160.114V162.172C261.774 162.779 261.648 163.306 261.396 163.754C261.154 164.193 260.808 164.529 260.36 164.762C259.912 164.995 259.38 165.112 258.764 165.112ZM258.764 163.992C259.315 163.992 259.744 163.838 260.052 163.53C260.36 163.222 260.514 162.769 260.514 162.172V160.128C260.514 159.531 260.36 159.078 260.052 158.77C259.744 158.462 259.315 158.308 258.764 158.308C258.223 158.308 257.794 158.462 257.476 158.77C257.168 159.078 257.014 159.531 257.014 160.128V162.172C257.014 162.769 257.168 163.222 257.476 163.53C257.794 163.838 258.223 163.992 258.764 163.992ZM264.513 165V157.3H265.745V158.77H266.039L265.633 159.68C265.633 158.849 265.81 158.224 266.165 157.804C266.529 157.375 267.066 157.16 267.775 157.16C268.587 157.16 269.231 157.417 269.707 157.93C270.192 158.434 270.435 159.12 270.435 159.988V160.45H269.175V160.1C269.175 159.493 269.026 159.031 268.727 158.714C268.438 158.387 268.022 158.224 267.481 158.224C266.949 158.224 266.529 158.387 266.221 158.714C265.922 159.041 265.773 159.503 265.773 160.1V165H264.513ZM275.554 165.14C274.947 165.14 274.415 165.019 273.958 164.776C273.51 164.533 273.16 164.193 272.908 163.754C272.665 163.306 272.544 162.788 272.544 162.2V160.1C272.544 159.503 272.665 158.985 272.908 158.546C273.16 158.107 273.51 157.767 273.958 157.524C274.415 157.281 274.947 157.16 275.554 157.16C276.16 157.16 276.688 157.281 277.136 157.524C277.593 157.767 277.943 158.107 278.186 158.546C278.438 158.985 278.564 159.503 278.564 160.1V161.458H273.776V162.2C273.776 162.807 273.93 163.273 274.238 163.6C274.546 163.917 274.984 164.076 275.554 164.076C276.039 164.076 276.431 163.992 276.73 163.824C277.028 163.647 277.21 163.385 277.276 163.04H278.536C278.452 163.684 278.134 164.197 277.584 164.58C277.042 164.953 276.366 165.14 275.554 165.14ZM277.332 160.618V160.1C277.332 159.493 277.178 159.027 276.87 158.7C276.571 158.373 276.132 158.21 275.554 158.21C274.984 158.21 274.546 158.373 274.238 158.7C273.93 159.027 273.776 159.493 273.776 160.1V160.506H277.43L277.332 160.618ZM283.5 165.14C282.735 165.14 282.114 164.883 281.638 164.37C281.171 163.857 280.938 163.161 280.938 162.284V160.03C280.938 159.143 281.171 158.443 281.638 157.93C282.105 157.417 282.725 157.16 283.5 157.16C284.135 157.16 284.643 157.333 285.026 157.678C285.409 158.023 285.6 158.485 285.6 159.064L285.348 158.77H285.628L285.6 157.02V154.78H286.86V165H285.6V163.53H285.348L285.6 163.236C285.6 163.824 285.409 164.291 285.026 164.636C284.643 164.972 284.135 165.14 283.5 165.14ZM283.92 164.048C284.443 164.048 284.853 163.885 285.152 163.558C285.451 163.231 285.6 162.779 285.6 162.2V160.1C285.6 159.521 285.451 159.069 285.152 158.742C284.853 158.415 284.443 158.252 283.92 158.252C283.388 158.252 282.968 158.411 282.66 158.728C282.352 159.045 282.198 159.503 282.198 160.1V162.2C282.198 162.797 282.352 163.255 282.66 163.572C282.968 163.889 283.388 164.048 283.92 164.048Z" fill="#A6E22E"/>
</g>
<defs>
<filter id="filter0_dd_8_63" x="0.5" y="0.5" width="399" height="219" filterUnits="userSpaceOnUse" color-interpolation-filters="sRGB">
<feFlood flood-opacity="0" result="BackgroundImageFix"/>
<feColorMatrix in="SourceAlpha" type="matrix" values="0 0 0 0 0 0 0 0 0 0 0 0 0 0 0 0 0 0 127 0" result="hardAlpha"/>
<feMorphology radius="4" operator="dilate" in="SourceAlpha" result="effect1_dropShadow_8_63"/>
<feOffset/>
<feGaussianBlur stdDeviation="7.5"/>
<feComposite in2="hardAlpha" operator="out"/>
<feColorMatrix type="matrix" values="0 0 0 0 0.972549 0 0 0 0 0.972549 0 0 0 0 0.94902 0 0 0 0.6 0"/>
<feBlend mode="normal" in2="BackgroundImageFix" result="effect1_dropShadow_8_63"/>
<feColorMatrix in="SourceAlpha" type="matrix" values="0 0 0 0 0 0 0 0 0 0 0 0 0 0 0 0 0 0 127 0" result="hardAlpha"/>
<feOffset dx="-4" dy="4"/>
<feComposite in2="hardAlpha" operator="out"/>
<feColorMatrix type="matrix" values="0 0 0 0 0 0 0 0 0 0 0 0 0 0 0 0 0 0 0.5 0"/>
<feBlend mode="normal" in2="effect1_dropShadow_8_63" result="effect2_dropShadow_8_63"/>
<feBlend mode="normal" in="SourceGraphic" in2="effect2_dropShadow_8_63" result="shape"/>
</filter>
</defs>
</svg>
