<svg width="424" height="220" viewBox="0 0 424 220" fill="none" xmlns="http://www.w3.org/2000/svg">
<g filter="url(#filter0_dd_8_62)">
<rect x="20" y="21" width="384" height="178" rx="24" fill="#272822" fill-opacity="0.9" shape-rendering="crispEdges"/>
<rect x="20" y="21" width="384" height="178" rx="24" stroke="#A6E22E" stroke-width="3" shape-rendering="crispEdges"/>
<path d="M123.099 71V60H125.139V61.48H125.559L125.219 61.84C125.219 61.2267 125.392 60.7333 125.739 60.36C126.085 59.9867 126.532 59.8 127.079 59.8C127.665 59.8 128.119 60.04 128.439 60.52C128.772 61 128.939 61.6467 128.939 62.46L128.499 61.48H129.179L128.919 61.84C128.919 61.2267 129.092 60.7333 129.439 60.36C129.785 59.9867 130.245 59.8 130.819 59.8C131.499 59.8 132.039 60.0533 132.439 60.56C132.839 61.0667 133.039 61.7533 133.039 62.62V71H130.839V62.72C130.839 62.36 130.759 62.08 130.599 61.88C130.439 61.6667 130.205 61.56 129.899 61.56C129.605 61.56 129.372 61.66 129.199 61.86C129.039 62.06 128.959 62.3467 128.959 62.72V71H127.159V62.72C127.159 62.3467 127.079 62.06 126.919 61.86C126.759 61.66 126.525 61.56 126.219 61.56C125.912 61.56 125.679 61.66 125.519 61.86C125.372 62.06 125.299 62.3467 125.299 62.72V71H123.099ZM135.571 71V68.72H139.411V62.26H136.071V60H141.811V68.72H145.211V71H135.571ZM140.411 58.16C139.904 58.16 139.504 58.0333 139.211 57.78C138.917 57.5133 138.771 57.16 138.771 56.72C138.771 56.28 138.917 55.9333 139.211 55.68C139.504 55.4133 139.904 55.28 140.411 55.28C140.917 55.28 141.317 55.4133 141.611 55.68C141.904 55.9333 142.051 56.28 142.051 56.72C142.051 57.16 141.904 57.5133 141.611 57.78C141.317 58.0333 140.917 58.16 140.411 58.16ZM151.623 71.18C150.783 71.18 150.05 71.0467 149.423 70.78C148.796 70.5133 148.303 70.1467 147.943 69.68C147.596 69.2 147.41 68.64 147.383 68H149.883C149.91 68.3467 150.076 68.6267 150.383 68.84C150.703 69.0533 151.116 69.16 151.623 69.16H152.503C153.116 69.16 153.576 69.04 153.883 68.8C154.19 68.56 154.343 68.2333 154.343 67.82C154.343 67.4333 154.203 67.1333 153.923 66.92C153.656 66.6933 153.236 66.5467 152.663 66.48L151.303 66.28C150.05 66.1067 149.13 65.7733 148.543 65.28C147.956 64.7867 147.663 64.0467 147.663 63.06C147.663 62.0333 148.01 61.24 148.703 60.68C149.396 60.1067 150.416 59.82 151.763 59.82H152.523C153.75 59.82 154.73 60.0933 155.463 60.64C156.196 61.1867 156.59 61.92 156.643 62.84H154.143C154.103 62.5467 153.936 62.3067 153.643 62.12C153.363 61.9333 152.99 61.84 152.523 61.84H151.763C151.19 61.84 150.77 61.9467 150.503 62.16C150.25 62.36 150.123 62.66 150.123 63.06C150.123 63.4333 150.236 63.7133 150.463 63.9C150.69 64.0733 151.056 64.2 151.563 64.28L152.983 64.48C154.29 64.6667 155.25 65.02 155.863 65.54C156.49 66.0467 156.803 66.8 156.803 67.8C156.803 68.8667 156.436 69.7 155.703 70.3C154.983 70.8867 153.916 71.18 152.503 71.18H151.623ZM163.615 71.18C162.775 71.18 162.042 71.0467 161.415 70.78C160.788 70.5133 160.295 70.1467 159.935 69.68C159.588 69.2 159.402 68.64 159.375 68H161.875C161.902 68.3467 162.068 68.6267 162.375 68.84C162.695 69.0533 163.108 69.16 163.615 69.16H164.495C165.108 69.16 165.568 69.04 165.875 68.8C166.182 68.56 166.335 68.2333 166.335 67.82C166.335 67.4333 166.195 67.1333 165.915 66.92C165.648 66.6933 165.228 66.5467 164.655 66.48L163.295 66.28C162.042 66.1067 161.122 65.7733 160.535 65.28C159.948 64.7867 159.655 64.0467 159.655 63.06C159.655 62.0333 160.002 61.24 160.695 60.68C161.388 60.1067 162.408 59.82 163.755 59.82H164.515C165.742 59.82 166.722 60.0933 167.455 60.64C168.188 61.1867 168.582 61.92 168.635 62.84H166.135C166.095 62.5467 165.928 62.3067 165.635 62.12C165.355 61.9333 164.982 61.84 164.515 61.84H163.755C163.182 61.84 162.762 61.9467 162.495 62.16C162.242 62.36 162.115 62.66 162.115 63.06C162.115 63.4333 162.228 63.7133 162.455 63.9C162.682 64.0733 163.048 64.2 163.555 64.28L164.975 64.48C166.282 64.6667 167.242 65.02 167.855 65.54C168.482 66.0467 168.795 66.8 168.795 67.8C168.795 68.8667 168.428 69.7 167.695 70.3C166.975 70.8867 165.908 71.18 164.495 71.18H163.615ZM171.547 71V68.72H175.387V62.26H172.047V60H177.787V68.72H181.187V71H171.547ZM176.387 58.16C175.881 58.16 175.481 58.0333 175.187 57.78C174.894 57.5133 174.747 57.16 174.747 56.72C174.747 56.28 174.894 55.9333 175.187 55.68C175.481 55.4133 175.881 55.28 176.387 55.28C176.894 55.28 177.294 55.4133 177.587 55.68C177.881 55.9333 178.027 56.28 178.027 56.72C178.027 57.16 177.881 57.5133 177.587 57.78C177.294 58.0333 176.894 58.16 176.387 58.16ZM188.02 71.18C187.086 71.18 186.273 71.0067 185.58 70.66C184.9 70.3 184.366 69.8 183.98 69.16C183.606 68.5067 183.42 67.74 183.42 66.86V64.14C183.42 63.26 183.606 62.5 183.98 61.86C184.366 61.2067 184.9 60.7067 185.58 60.36C186.273 60 187.086 59.82 188.02 59.82C188.966 59.82 189.78 60 190.46 60.36C191.14 60.7067 191.666 61.2067 192.04 61.86C192.426 62.5 192.62 63.2533 192.62 64.12V66.86C192.62 67.74 192.426 68.5067 192.04 69.16C191.666 69.8 191.14 70.3 190.46 70.66C189.78 71.0067 188.966 71.18 188.02 71.18ZM188.02 69C188.686 69 189.2 68.82 189.56 68.46C189.933 68.0867 190.12 67.5533 190.12 66.86V64.14C190.12 63.4333 189.933 62.9 189.56 62.54C189.2 62.18 188.686 62 188.02 62C187.366 62 186.853 62.18 186.48 62.54C186.106 62.9 185.92 63.4333 185.92 64.14V66.86C185.92 67.5533 186.106 68.0867 186.48 68.46C186.853 68.82 187.366 69 188.02 69ZM195.552 71V60H197.992V62.1H198.672L197.992 62.68C197.992 61.7733 198.252 61.0667 198.772 60.56C199.305 60.0533 200.032 59.8 200.952 59.8C202.032 59.8 202.892 60.16 203.532 60.88C204.185 61.6 204.512 62.5667 204.512 63.78V71H202.012V64.04C202.012 63.3733 201.838 62.86 201.492 62.5C201.145 62.14 200.658 61.96 200.032 61.96C199.418 61.96 198.932 62.1467 198.572 62.52C198.225 62.8933 198.052 63.4267 198.052 64.12V71H195.552ZM224.056 71.2C223.123 71.2 222.303 71.0267 221.596 70.68C220.903 70.32 220.363 69.82 219.976 69.18C219.589 68.5267 219.396 67.76 219.396 66.88V64.12C219.396 63.2267 219.589 62.46 219.976 61.82C220.363 61.18 220.903 60.6867 221.596 60.34C222.303 59.98 223.123 59.8 224.056 59.8C225.443 59.8 226.549 60.16 227.376 60.88C228.203 61.5867 228.636 62.5533 228.676 63.78H226.176C226.136 63.2067 225.929 62.7667 225.556 62.46C225.196 62.14 224.696 61.98 224.056 61.98C223.389 61.98 222.863 62.1667 222.476 62.54C222.089 62.9 221.896 63.42 221.896 64.1V66.88C221.896 67.56 222.089 68.0867 222.476 68.46C222.863 68.8333 223.389 69.02 224.056 69.02C224.696 69.02 225.196 68.8667 225.556 68.56C225.929 68.24 226.136 67.7933 226.176 67.22H228.676C228.636 68.4467 228.203 69.42 227.376 70.14C226.549 70.8467 225.443 71.2 224.056 71.2ZM235.988 71.18C235.055 71.18 234.242 71.0067 233.548 70.66C232.868 70.3 232.335 69.8 231.948 69.16C231.575 68.5067 231.388 67.74 231.388 66.86V64.14C231.388 63.26 231.575 62.5 231.948 61.86C232.335 61.2067 232.868 60.7067 233.548 60.36C234.242 60 235.055 59.82 235.988 59.82C236.935 59.82 237.748 60 238.428 60.36C239.108 60.7067 239.635 61.2067 240.008 61.86C240.395 62.5 240.588 63.2533 240.588 64.12V66.86C240.588 67.74 240.395 68.5067 240.008 69.16C239.635 69.8 239.108 70.3 238.428 70.66C237.748 71.0067 236.935 71.18 235.988 71.18ZM235.988 69C236.655 69 237.168 68.82 237.528 68.46C237.902 68.0867 238.088 67.5533 238.088 66.86V64.14C238.088 63.4333 237.902 62.9 237.528 62.54C237.168 62.18 236.655 62 235.988 62C235.335 62 234.822 62.18 234.448 62.54C234.075 62.9 233.888 63.4333 233.888 64.14V66.86C233.888 67.5533 234.075 68.0867 234.448 68.46C234.822 68.82 235.335 69 235.988 69ZM243.52 71V60H245.96V62.1H246.64L245.96 62.68C245.96 61.7733 246.22 61.0667 246.74 60.56C247.274 60.0533 248 59.8 248.92 59.8C250 59.8 250.86 60.16 251.5 60.88C252.154 61.6 252.48 62.5667 252.48 63.78V71H249.98V64.04C249.98 63.3733 249.807 62.86 249.46 62.5C249.114 62.14 248.627 61.96 248 61.96C247.387 61.96 246.9 62.1467 246.54 62.52C246.194 62.8933 246.02 63.4267 246.02 64.12V71H243.52ZM261.173 71C260.119 71 259.293 70.7067 258.693 70.12C258.106 69.5333 257.813 68.7267 257.813 67.7V62.26H254.833V60H257.813V56.9H260.333V60H264.553V62.26H260.333V67.7C260.333 68.3933 260.673 68.74 261.353 68.74H264.353V71H261.173ZM267.845 71V60H270.205V62.1H270.825L270.085 63.38C270.085 62.1933 270.352 61.3 270.885 60.7C271.418 60.1 272.205 59.8 273.245 59.8C274.432 59.8 275.365 60.1667 276.045 60.9C276.725 61.6333 277.065 62.6467 277.065 63.94V64.74H274.445V64.12C274.445 63.4133 274.258 62.8667 273.885 62.48C273.525 62.0933 273.025 61.9 272.385 61.9C271.732 61.9 271.225 62.0933 270.865 62.48C270.518 62.8667 270.345 63.4133 270.345 64.12V71H267.845ZM283.957 71.18C283.024 71.18 282.21 71.0067 281.517 70.66C280.837 70.3 280.304 69.8 279.917 69.16C279.544 68.5067 279.357 67.74 279.357 66.86V64.14C279.357 63.26 279.544 62.5 279.917 61.86C280.304 61.2067 280.837 60.7067 281.517 60.36C282.21 60 283.024 59.82 283.957 59.82C284.904 59.82 285.717 60 286.397 60.36C287.077 60.7067 287.604 61.2067 287.977 61.86C288.364 62.5 288.557 63.2533 288.557 64.12V66.86C288.557 67.74 288.364 68.5067 287.977 69.16C287.604 69.8 287.077 70.3 286.397 70.66C285.717 71.0067 284.904 71.18 283.957 71.18ZM283.957 69C284.624 69 285.137 68.82 285.497 68.46C285.87 68.0867 286.057 67.5533 286.057 66.86V64.14C286.057 63.4333 285.87 62.9 285.497 62.54C285.137 62.18 284.624 62 283.957 62C283.304 62 282.79 62.18 282.417 62.54C282.044 62.9 281.857 63.4333 281.857 64.14V66.86C281.857 67.5533 282.044 68.0867 282.417 68.46C282.79 68.82 283.304 69 283.957 69ZM297.629 71C296.909 71 296.276 70.8533 295.729 70.56C295.196 70.2667 294.776 69.8533 294.469 69.32C294.163 68.7733 294.009 68.1467 294.009 67.44V58.66H290.489V56.4H296.509V67.44C296.509 67.84 296.623 68.16 296.849 68.4C297.089 68.6267 297.409 68.74 297.809 68.74H301.129V71H297.629Z" fill="#A6E22E"/>
<circle cx="74" cy="114" r="19.5" fill="#F92672" stroke="#F92672" stroke-width="3"/>
<circle cx="143" cy="114" r="19.5" fill="#66D9EF" stroke="#66D9EF" stroke-width="3"/>
<circle cx="212" cy="114" r="19.5" fill="#A6E22E" stroke="#A6E22E" stroke-width="3"/>
<circle cx="281" cy="114" r="19.5" fill="#FD971F" stroke="#FD971F" stroke-width="3"/>
<circle cx="350" cy="114" r="19.5" fill="#AE81FF" stroke="#AE81FF" stroke-width="3"/>
<path d="M128.029 165.14C127.199 165.14 126.517 164.925 125.985 164.496C125.453 164.067 125.141 163.488 125.047 162.76H126.307C126.354 163.161 126.527 163.474 126.825 163.698C127.124 163.913 127.53 164.02 128.043 164.02C128.631 164.02 129.07 163.861 129.359 163.544C129.658 163.227 129.807 162.779 129.807 162.2V161.206C129.807 160.627 129.658 160.179 129.359 159.862C129.07 159.545 128.636 159.386 128.057 159.386C127.693 159.386 127.376 159.484 127.105 159.68C126.835 159.867 126.639 160.119 126.517 160.436H125.257L125.327 154.78H130.703V155.928H126.545L126.503 159.33H126.895L126.503 159.694C126.503 159.255 126.676 158.91 127.021 158.658C127.376 158.406 127.847 158.28 128.435 158.28C129.266 158.271 129.91 158.527 130.367 159.05C130.834 159.563 131.067 160.282 131.067 161.206V162.2C131.067 163.105 130.801 163.824 130.269 164.356C129.737 164.879 128.991 165.14 128.029 165.14ZM133.302 166.54L138.272 153.38H139.602L134.632 166.54H133.302ZM144.818 165.14C143.988 165.14 143.306 164.925 142.774 164.496C142.242 164.067 141.93 163.488 141.836 162.76H143.096C143.143 163.161 143.316 163.474 143.614 163.698C143.913 163.913 144.319 164.02 144.832 164.02C145.42 164.02 145.859 163.861 146.148 163.544C146.447 163.227 146.596 162.779 146.596 162.2V161.206C146.596 160.627 146.447 160.179 146.148 159.862C145.859 159.545 145.425 159.386 144.846 159.386C144.482 159.386 144.165 159.484 143.894 159.68C143.624 159.867 143.428 160.119 143.306 160.436H142.046L142.116 154.78H147.492V155.928H143.334L143.292 159.33H143.684L143.292 159.694C143.292 159.255 143.465 158.91 143.81 158.658C144.165 158.406 144.636 158.28 145.224 158.28C146.055 158.271 146.699 158.527 147.156 159.05C147.623 159.563 147.856 160.282 147.856 161.206V162.2C147.856 163.105 147.59 163.824 147.058 164.356C146.526 164.879 145.78 165.14 144.818 165.14ZM158.724 167.52V157.3H159.984V158.77H160.236L159.984 159.064C159.984 158.476 160.175 158.014 160.558 157.678C160.95 157.333 161.463 157.16 162.098 157.16C162.872 157.16 163.488 157.417 163.946 157.93C164.412 158.434 164.646 159.129 164.646 160.016V162.27C164.646 162.858 164.538 163.367 164.324 163.796C164.118 164.225 163.824 164.557 163.442 164.79C163.068 165.023 162.62 165.14 162.098 165.14C161.472 165.14 160.964 164.967 160.572 164.622C160.18 164.277 159.984 163.815 159.984 163.236L160.236 163.53H159.956L159.984 165.28V167.52H158.724ZM161.678 164.048C162.21 164.048 162.625 163.889 162.924 163.572C163.232 163.255 163.386 162.797 163.386 162.2V160.1C163.386 159.503 163.232 159.045 162.924 158.728C162.625 158.411 162.21 158.252 161.678 158.252C161.164 158.252 160.754 158.415 160.446 158.742C160.138 159.069 159.984 159.521 159.984 160.1V162.2C159.984 162.779 160.138 163.231 160.446 163.558C160.754 163.885 161.164 164.048 161.678 164.048ZM167.384 165V157.3H168.616V158.77H168.91L168.504 159.68C168.504 158.849 168.681 158.224 169.036 157.804C169.4 157.375 169.937 157.16 170.646 157.16C171.458 157.16 172.102 157.417 172.578 157.93C173.063 158.434 173.306 159.12 173.306 159.988V160.45H172.046V160.1C172.046 159.493 171.897 159.031 171.598 158.714C171.309 158.387 170.893 158.224 170.352 158.224C169.82 158.224 169.4 158.387 169.092 158.714C168.793 159.041 168.644 159.503 168.644 160.1V165H167.384ZM178.425 165.112C177.809 165.112 177.277 164.995 176.829 164.762C176.381 164.529 176.031 164.193 175.779 163.754C175.536 163.306 175.415 162.779 175.415 162.172V160.128C175.415 159.512 175.536 158.985 175.779 158.546C176.031 158.107 176.381 157.771 176.829 157.538C177.277 157.305 177.809 157.188 178.425 157.188C179.041 157.188 179.573 157.305 180.021 157.538C180.469 157.771 180.814 158.107 181.057 158.546C181.309 158.985 181.435 159.507 181.435 160.114V162.172C181.435 162.779 181.309 163.306 181.057 163.754C180.814 164.193 180.469 164.529 180.021 164.762C179.573 164.995 179.041 165.112 178.425 165.112ZM178.425 163.992C178.975 163.992 179.405 163.838 179.713 163.53C180.021 163.222 180.175 162.769 180.175 162.172V160.128C180.175 159.531 180.021 159.078 179.713 158.77C179.405 158.462 178.975 158.308 178.425 158.308C177.883 158.308 177.454 158.462 177.137 158.77C176.829 159.078 176.675 159.531 176.675 160.128V162.172C176.675 162.769 176.829 163.222 177.137 163.53C177.454 163.838 177.883 163.992 178.425 163.992ZM183.809 167.52V166.358H185.615C186.194 166.358 186.642 166.199 186.959 165.882C187.286 165.574 187.449 165.135 187.449 164.566V158.448H184.229V157.3H188.709V164.566C188.709 165.471 188.429 166.19 187.869 166.722C187.309 167.254 186.558 167.52 185.615 167.52H183.809ZM188.009 155.914C187.701 155.914 187.458 155.835 187.281 155.676C187.104 155.517 187.015 155.303 187.015 155.032C187.015 154.752 187.104 154.533 187.281 154.374C187.458 154.206 187.701 154.122 188.009 154.122C188.317 154.122 188.56 154.206 188.737 154.374C188.914 154.533 189.003 154.752 189.003 155.032C189.003 155.303 188.914 155.517 188.737 155.676C188.56 155.835 188.317 155.914 188.009 155.914ZM195.214 165.14C194.607 165.14 194.075 165.019 193.618 164.776C193.17 164.533 192.82 164.193 192.568 163.754C192.325 163.306 192.204 162.788 192.204 162.2V160.1C192.204 159.503 192.325 158.985 192.568 158.546C192.82 158.107 193.17 157.767 193.618 157.524C194.075 157.281 194.607 157.16 195.214 157.16C195.82 157.16 196.348 157.281 196.796 157.524C197.253 157.767 197.603 158.107 197.846 158.546C198.098 158.985 198.224 159.503 198.224 160.1V161.458H193.436V162.2C193.436 162.807 193.59 163.273 193.898 163.6C194.206 163.917 194.644 164.076 195.214 164.076C195.699 164.076 196.091 163.992 196.39 163.824C196.688 163.647 196.87 163.385 196.936 163.04H198.196C198.112 163.684 197.794 164.197 197.244 164.58C196.702 164.953 196.026 165.14 195.214 165.14ZM196.992 160.618V160.1C196.992 159.493 196.838 159.027 196.53 158.7C196.231 158.373 195.792 158.21 195.214 158.21C194.644 158.21 194.206 158.373 193.898 158.7C193.59 159.027 193.436 159.493 193.436 160.1V160.506H197.09L196.992 160.618ZM203.664 165.14C203.048 165.14 202.507 165.023 202.04 164.79C201.583 164.557 201.228 164.221 200.976 163.782C200.724 163.334 200.598 162.807 200.598 162.2V160.1C200.598 159.484 200.724 158.957 200.976 158.518C201.228 158.079 201.583 157.743 202.04 157.51C202.507 157.277 203.048 157.16 203.664 157.16C204.551 157.16 205.265 157.398 205.806 157.874C206.348 158.35 206.632 158.999 206.66 159.82H205.4C205.372 159.325 205.204 158.947 204.896 158.686C204.598 158.415 204.187 158.28 203.664 158.28C203.114 158.28 202.675 158.439 202.348 158.756C202.022 159.064 201.858 159.507 201.858 160.086V162.2C201.858 162.779 202.022 163.227 202.348 163.544C202.675 163.861 203.114 164.02 203.664 164.02C204.187 164.02 204.598 163.885 204.896 163.614C205.204 163.343 205.372 162.965 205.4 162.48H206.66C206.632 163.301 206.348 163.95 205.806 164.426C205.265 164.902 204.551 165.14 203.664 165.14ZM212.843 165C212.18 165 211.662 164.823 211.289 164.468C210.925 164.113 210.743 163.614 210.743 162.97V158.448H208.573V157.3H210.743V155.13H212.003V157.3H215.083V158.448H212.003V162.97C212.003 163.558 212.283 163.852 212.843 163.852H214.943V165H212.843ZM220.159 165.112C219.637 165.112 219.179 165.033 218.787 164.874C218.405 164.706 218.097 164.473 217.863 164.174C217.639 163.875 217.504 163.521 217.457 163.11H218.717C218.773 163.381 218.923 163.595 219.165 163.754C219.417 163.913 219.749 163.992 220.159 163.992H220.747C221.242 163.992 221.611 163.894 221.853 163.698C222.096 163.493 222.217 163.222 222.217 162.886C222.217 162.559 222.105 162.303 221.881 162.116C221.667 161.92 221.345 161.789 220.915 161.724L219.879 161.556C219.123 161.425 218.559 161.192 218.185 160.856C217.821 160.511 217.639 160.011 217.639 159.358C217.639 158.667 217.859 158.135 218.297 157.762C218.736 157.379 219.394 157.188 220.271 157.188H220.803C221.541 157.188 222.133 157.361 222.581 157.706C223.029 158.051 223.3 158.518 223.393 159.106H222.133C222.077 158.863 221.937 158.672 221.713 158.532C221.489 158.383 221.186 158.308 220.803 158.308H220.271C219.795 158.308 219.445 158.397 219.221 158.574C219.007 158.751 218.899 159.017 218.899 159.372C218.899 159.689 218.993 159.923 219.179 160.072C219.366 160.221 219.66 160.329 220.061 160.394L221.097 160.562C221.928 160.693 222.53 160.935 222.903 161.29C223.286 161.645 223.477 162.158 223.477 162.83C223.477 163.539 223.249 164.099 222.791 164.51C222.343 164.911 221.662 165.112 220.747 165.112H220.159ZM237.186 165.14C236.58 165.14 236.048 165.019 235.59 164.776C235.142 164.533 234.792 164.193 234.54 163.754C234.298 163.306 234.176 162.788 234.176 162.2V160.1C234.176 159.503 234.298 158.985 234.54 158.546C234.792 158.107 235.142 157.767 235.59 157.524C236.048 157.281 236.58 157.16 237.186 157.16C237.793 157.16 238.32 157.281 238.768 157.524C239.226 157.767 239.576 158.107 239.818 158.546C240.07 158.985 240.196 159.503 240.196 160.1V161.458H235.408V162.2C235.408 162.807 235.562 163.273 235.87 163.6C236.178 163.917 236.617 164.076 237.186 164.076C237.672 164.076 238.064 163.992 238.362 163.824C238.661 163.647 238.843 163.385 238.908 163.04H240.168C240.084 163.684 239.767 164.197 239.216 164.58C238.675 164.953 237.998 165.14 237.186 165.14ZM238.964 160.618V160.1C238.964 159.493 238.81 159.027 238.502 158.7C238.204 158.373 237.765 158.21 237.186 158.21C236.617 158.21 236.178 158.373 235.87 158.7C235.562 159.027 235.408 159.493 235.408 160.1V160.506H239.062L238.964 160.618ZM242.081 165L244.811 161.038L242.249 157.3H243.733L245.259 159.68C245.324 159.783 245.385 159.895 245.441 160.016C245.506 160.137 245.558 160.235 245.595 160.31C245.623 160.235 245.665 160.137 245.721 160.016C245.786 159.895 245.852 159.783 245.917 159.68L247.457 157.3H248.927L246.365 161.052L249.081 165H247.597L245.945 162.48C245.88 162.377 245.814 162.261 245.749 162.13C245.693 161.99 245.642 161.878 245.595 161.794C245.558 161.878 245.502 161.99 245.427 162.13C245.362 162.261 245.292 162.377 245.217 162.48L243.551 165H242.081ZM251.063 167.52V157.3H252.323V158.77H252.575L252.323 159.064C252.323 158.476 252.515 158.014 252.897 157.678C253.289 157.333 253.803 157.16 254.437 157.16C255.212 157.16 255.828 157.417 256.285 157.93C256.752 158.434 256.985 159.129 256.985 160.016V162.27C256.985 162.858 256.878 163.367 256.663 163.796C256.458 164.225 256.164 164.557 255.781 164.79C255.408 165.023 254.96 165.14 254.437 165.14C253.812 165.14 253.303 164.967 252.911 164.622C252.519 164.277 252.323 163.815 252.323 163.236L252.575 163.53H252.295L252.323 165.28V167.52H251.063ZM254.017 164.048C254.549 164.048 254.965 163.889 255.263 163.572C255.571 163.255 255.725 162.797 255.725 162.2V160.1C255.725 159.503 255.571 159.045 255.263 158.728C254.965 158.411 254.549 158.252 254.017 158.252C253.504 158.252 253.093 158.415 252.785 158.742C252.477 159.069 252.323 159.521 252.323 160.1V162.2C252.323 162.779 252.477 163.231 252.785 163.558C253.093 163.885 253.504 164.048 254.017 164.048ZM263.42 165C262.972 165 262.58 164.911 262.244 164.734C261.908 164.557 261.647 164.305 261.46 163.978C261.273 163.651 261.18 163.269 261.18 162.83V155.928H258.59V154.78H262.44V162.83C262.44 163.147 262.529 163.399 262.706 163.586C262.883 163.763 263.121 163.852 263.42 163.852H265.87V165H263.42ZM270.764 165.112C270.148 165.112 269.616 164.995 269.168 164.762C268.72 164.529 268.37 164.193 268.118 163.754C267.876 163.306 267.754 162.779 267.754 162.172V160.128C267.754 159.512 267.876 158.985 268.118 158.546C268.37 158.107 268.72 157.771 269.168 157.538C269.616 157.305 270.148 157.188 270.764 157.188C271.38 157.188 271.912 157.305 272.36 157.538C272.808 157.771 273.154 158.107 273.396 158.546C273.648 158.985 273.774 159.507 273.774 160.114V162.172C273.774 162.779 273.648 163.306 273.396 163.754C273.154 164.193 272.808 164.529 272.36 164.762C271.912 164.995 271.38 165.112 270.764 165.112ZM270.764 163.992C271.315 163.992 271.744 163.838 272.052 163.53C272.36 163.222 272.514 162.769 272.514 162.172V160.128C272.514 159.531 272.36 159.078 272.052 158.77C271.744 158.462 271.315 158.308 270.764 158.308C270.223 158.308 269.794 158.462 269.476 158.77C269.168 159.078 269.014 159.531 269.014 160.128V162.172C269.014 162.769 269.168 163.222 269.476 163.53C269.794 163.838 270.223 163.992 270.764 163.992ZM276.513 165V157.3H277.745V158.77H278.039L277.633 159.68C277.633 158.849 277.81 158.224 278.165 157.804C278.529 157.375 279.066 157.16 279.775 157.16C280.587 157.16 281.231 157.417 281.707 157.93C282.192 158.434 282.435 159.12 282.435 159.988V160.45H281.175V160.1C281.175 159.493 281.026 159.031 280.727 158.714C280.438 158.387 280.022 158.224 279.481 158.224C278.949 158.224 278.529 158.387 278.221 158.714C277.922 159.041 277.773 159.503 277.773 160.1V165H276.513ZM287.554 165.14C286.947 165.14 286.415 165.019 285.958 164.776C285.51 164.533 285.16 164.193 284.908 163.754C284.665 163.306 284.544 162.788 284.544 162.2V160.1C284.544 159.503 284.665 158.985 284.908 158.546C285.16 158.107 285.51 157.767 285.958 157.524C286.415 157.281 286.947 157.16 287.554 157.16C288.16 157.16 288.688 157.281 289.136 157.524C289.593 157.767 289.943 158.107 290.186 158.546C290.438 158.985 290.564 159.503 290.564 160.1V161.458H285.776V162.2C285.776 162.807 285.93 163.273 286.238 163.6C286.546 163.917 286.984 164.076 287.554 164.076C288.039 164.076 288.431 163.992 288.73 163.824C289.028 163.647 289.21 163.385 289.276 163.04H290.536C290.452 163.684 290.134 164.197 289.584 164.58C289.042 164.953 288.366 165.14 287.554 165.14ZM289.332 160.618V160.1C289.332 159.493 289.178 159.027 288.87 158.7C288.571 158.373 288.132 158.21 287.554 158.21C286.984 158.21 286.546 158.373 286.238 158.7C285.93 159.027 285.776 159.493 285.776 160.1V160.506H289.43L289.332 160.618ZM295.5 165.14C294.735 165.14 294.114 164.883 293.638 164.37C293.171 163.857 292.938 163.161 292.938 162.284V160.03C292.938 159.143 293.171 158.443 293.638 157.93C294.105 157.417 294.725 157.16 295.5 157.16C296.135 157.16 296.643 157.333 297.026 157.678C297.409 158.023 297.6 158.485 297.6 159.064L297.348 158.77H297.628L297.6 157.02V154.78H298.86V165H297.6V163.53H297.348L297.6 163.236C297.6 163.824 297.409 164.291 297.026 164.636C296.643 164.972 296.135 165.14 295.5 165.14ZM295.92 164.048C296.443 164.048 296.853 163.885 297.152 163.558C297.451 163.231 297.6 162.779 297.6 162.2V160.1C297.6 159.521 297.451 159.069 297.152 158.742C296.853 158.415 296.443 158.252 295.92 158.252C295.388 158.252 294.968 158.411 294.66 158.728C294.352 159.045 294.198 159.503 294.198 160.1V162.2C294.198 162.797 294.352 163.255 294.66 163.572C294.968 163.889 295.388 164.048 295.92 164.048Z" fill="#A6E22E"/>
</g>
<defs>
<filter id="filter0_dd_8_62" x="-0.5" y="0.5" width="425" height="219" filterUnits="userSpaceOnUse" color-interpolation-filters="sRGB">
<feFlood flood-opacity="0" result="BackgroundImageFix"/>
<feColorMatrix in="SourceAlpha" type="matrix" values="0 0 0 0 0 0 0 0 0 0 0 0 0 0 0 0 0 0 127 0" result="hardAlpha"/>
<feMorphology radius="4" operator="dilate" in="SourceAlpha" result="effect1_dropShadow_8_62"/>
<feOffset/>
<feGaussianBlur stdDeviation="7.5"/>
<feComposite in2="hardAlpha" operator="out"/>
<feColorMatrix type="matrix" values="0 0 0 0 0.972549 0 0 0 0 0.972549 0 0 0 0 0.94902 0 0 0 0.6 0"/>
<feBlend mode="normal" in2="BackgroundImageFix" result="effect1_dropShadow_8_62"/>
<feColorMatrix in="SourceAlpha" type="matrix" values="0 0 0 0 0 0 0 0 0 0 0 0 0 0 0 0 0 0 127 0" result="hardAlpha"/>
<feOffset dx="-4" dy="4"/>
<feComposite in2="hardAlpha" operator="out"/>
<feColorMatrix type="matrix" values="0 0 0 0 0 0 0 0 0 0 0 0 0 0 0 0 0 0 0.5 0"/>
<feBlend mode="normal" in2="effect1_dropShadow_8_62" result="effect2_dropShadow_8_62"/>
<feBlend mode="normal" in="SourceGraphic" in2="effect2_dropShadow_8_62" result="shape"/>
</filter>
</defs>
</svg>
