<svg width="171" height="491" viewBox="0 0 171 491" fill="none" xmlns="http://www.w3.org/2000/svg">
<rect x="0.5" y="0.5" width="170" height="490" rx="4.5" stroke="#8A38F5" stroke-dasharray="10 5"/>
<rect x="20" y="20" width="131" height="131" rx="65.5" fill="#272822" fill-opacity="0.9"/>
<rect x="20" y="20" width="131" height="131" rx="65.5" stroke="#F8F8F2" stroke-width="3"/>
<path d="M74.5417 89.9583H79V94.4167H83.4584V98.875H87.9167V103.333H92.375V107.792H96.8334V112.25H101.292V116.708H96.8334V121.167H92.375V116.708H87.9167V112.25H83.4584V107.792H79V103.333H74.5417V98.875H70.0834V94.4167H65.625V89.9583H61.1667V81.0417H65.625V76.5833H70.0834V72.125H74.5417V67.6667H79V63.2083H83.4584V58.75H87.9167V54.2917H92.375V49.8333H96.8334V54.2917H101.292V58.75H96.8334V63.2083H92.375V67.6667H87.9167V72.125H83.4584V76.5833H79V81.0417H74.5417V89.9583Z" fill="#F8F8F2"/>
<rect x="20" y="180" width="131" height="131" rx="65.5" fill="#F8F8F2" fill-opacity="0.34"/>
<rect x="20" y="180" width="131" height="131" rx="65.5" stroke="#F8F8F2" stroke-width="3"/>
<path d="M74.5417 249.958H79V254.417H83.4584V258.875H87.9167V263.333H92.375V267.792H96.8334V272.25H101.292V276.708H96.8334V281.167H92.375V276.708H87.9167V272.25H83.4584V267.792H79V263.333H74.5417V258.875H70.0834V254.417H65.625V249.958H61.1667V241.042H65.625V236.583H70.0834V232.125H74.5417V227.667H79V223.208H83.4584V218.75H87.9167V214.292H92.375V209.833H96.8334V214.292H101.292V218.75H96.8334V223.208H92.375V227.667H87.9167V232.125H83.4584V236.583H79V241.042H74.5417V249.958Z" fill="#050301"/>
<rect x="20" y="340" width="131" height="131" rx="65.5" fill="#272822" fill-opacity="0.9"/>
<rect x="20" y="340" width="131" height="131" rx="65.5" stroke="#050301" stroke-width="3"/>
<path d="M74.5417 409.958H79V414.417H83.4584V418.875H87.9167V423.333H92.375V427.792H96.8334V432.25H101.292V436.708H96.8334V441.167H92.375V436.708H87.9167V432.25H83.4584V427.792H79V423.333H74.5417V418.875H70.0834V414.417H65.625V409.958H61.1667V401.042H65.625V396.583H70.0834V392.125H74.5417V387.667H79V383.208H83.4584V378.75H87.9167V374.292H92.375V369.833H96.8334V374.292H101.292V378.75H96.8334V383.208H92.375V387.667H87.9167V392.125H83.4584V396.583H79V401.042H74.5417V409.958Z" fill="#050301"/>
</svg>
