<svg width="72" height="28" viewBox="0 0 72 28" fill="none" xmlns="http://www.w3.org/2000/svg">
<rect x="1" y="0.961548" width="69.7044" height="25.6806" rx="12.8403" fill="#272822" fill-opacity="0.9"/>
<rect x="1" y="0.961548" width="69.7044" height="25.6806" rx="12.8403" stroke="#FFAA00" stroke-width="0.75"/>
<path d="M19.5943 18.8787V17.8258H22.1366V10.4683L19.5943 12.3686V11.0846L21.7129 9.50525H23.2923V17.8258H25.3724V18.8787H19.5943ZM34.8 20.2911L39.3583 8.22123H40.5781L36.0198 20.2911H34.8ZM50.4166 18.8787V17.6974L53.2799 14.6542C53.7679 14.132 54.1231 13.6698 54.3457 13.2675C54.5683 12.8566 54.6795 12.4628 54.6795 12.0862C54.6795 11.564 54.534 11.1531 54.243 10.8535C53.9605 10.5539 53.571 10.4041 53.0745 10.4041C52.5267 10.4041 52.0944 10.5582 51.7776 10.8663C51.4695 11.1745 51.3154 11.5982 51.3154 12.1375H50.1598C50.1769 11.5725 50.3053 11.0846 50.545 10.6737C50.7932 10.2543 51.1313 9.93326 51.5594 9.7107C51.9959 9.48813 52.501 9.37685 53.0745 9.37685C53.6395 9.37685 54.1274 9.48813 54.5383 9.7107C54.9577 9.9247 55.2788 10.2329 55.5013 10.6352C55.7239 11.0375 55.8352 11.5169 55.8352 12.0733C55.8352 12.604 55.6939 13.1305 55.4114 13.6527C55.129 14.1748 54.6667 14.7698 54.0247 15.4375L51.7134 17.8258H55.9892V18.8787H50.4166Z" fill="#FFAA00"/>
</svg>
