<svg width="277" height="139" viewBox="0 0 277 139" fill="none" xmlns="http://www.w3.org/2000/svg">
<rect x="0.5" y="0.5" width="276" height="138" rx="4.5" stroke="#8A38F5" stroke-dasharray="10 5"/>
<path d="M69.5 48.875V40.625H81.875V44.75H86V48.875H90.125V53H94.25V57.125H98.375V69.5H90.125V61.25H86V57.125H81.875V53H77.75V48.875H69.5Z" fill="#66D9EF"/>
<path d="M77.75 61.25H69.5V69.5H77.75V61.25Z" fill="#66D9EF"/>
<path d="M114.875 53V69.5H106.625V53H102.5V48.875H98.375V44.75H94.25V40.625H90.125V36.5H86V32.375H69.5V24.125H86V28.25H94.25V32.375H98.375V36.5H102.5V40.625H106.625V44.75H110.75V53H114.875Z" fill="#66D9EF"/>
<path d="M110.75 90.125H114.875V102.5H110.75V110.75H106.625V114.875H86V110.75H69.5V106.625H61.25V102.5H57.125V98.375H53V94.25H48.875V90.125H44.75V86H40.625V81.875H36.5V77.75H32.375V69.5H28.25V53H24.125V32.375H28.25V28.25H36.5V24.125H48.875V28.25H53V32.375H57.125V40.625H61.25V53H57.125V57.125H53V69.5H57.125V73.625H61.25V77.75H65.375V81.875H69.5V86H81.875V81.875H86V77.75H98.375V81.875H106.625V86H110.75V90.125Z" fill="#66D9EF"/>
<path d="M207.5 48.875V40.625H219.875V44.75H224V48.875H228.125V53H232.25V57.125H236.375V69.5H228.125V61.25H224V57.125H219.875V53H215.75V48.875H207.5Z" fill="#66D9EF"/>
<path d="M252.875 90.125V102.5H248.75V110.75H244.625V114.875H224V110.75H207.5V106.625H199.25V102.5H195.125V98.375H191V94.25H186.875V90.125H182.75V86H178.625V81.875H174.5V77.75H170.375V69.5H166.25V53H162.125V32.375H166.25V28.25H174.5V24.125H186.875V28.25H191V32.375H195.125V40.625H199.25V53H195.125V57.125H191V69.5H195.125V73.625H199.25V77.75H203.375V81.875H207.5V86H219.875V81.875H224V77.75H236.375V81.875H244.625V86H248.75V90.125H252.875Z" fill="#66D9EF"/>
</svg>
