<svg width="132" height="84" viewBox="0 0 132 84" fill="none" xmlns="http://www.w3.org/2000/svg">
<rect x="2" y="2" width="128" height="80" rx="24" fill="#272822" fill-opacity="0.9"/>
<rect x="2" y="2" width="128" height="80" rx="24" stroke="#66D9EF" stroke-width="3"/>
<path d="M36.94 49.2C36.0333 49.2 35.3133 48.9467 34.78 48.44C34.2467 47.92 33.98 47.2133 33.98 46.32L34.54 46.9H33.98V49H31.54V34.4H34.04V37.48L33.96 40.1H34.54L33.98 40.68C33.98 39.7867 34.2467 39.0867 34.78 38.58C35.3133 38.06 36.0333 37.8 36.94 37.8C38.0467 37.8 38.9333 38.18 39.6 38.94C40.2667 39.7 40.6 40.7267 40.6 42.02V45C40.6 46.28 40.2667 47.3 39.6 48.06C38.9333 48.82 38.0467 49.2 36.94 49.2ZM36.06 47.04C36.7 47.04 37.2 46.8533 37.56 46.48C37.92 46.1067 38.1 45.5733 38.1 44.88V42.12C38.1 41.4267 37.92 40.8933 37.56 40.52C37.2 40.1467 36.7 39.96 36.06 39.96C35.4333 39.96 34.94 40.1533 34.58 40.54C34.22 40.9133 34.04 41.44 34.04 42.12V44.88C34.04 45.56 34.22 46.0933 34.58 46.48C34.94 46.8533 35.4333 47.04 36.06 47.04ZM47.9922 49.2C46.5922 49.2 45.4922 48.8133 44.6922 48.04C43.8922 47.2533 43.4922 46.1867 43.4922 44.84V38H45.9922V44.82C45.9922 45.5267 46.1655 46.0733 46.5122 46.46C46.8589 46.8333 47.3522 47.02 47.9922 47.02C48.6189 47.02 49.1055 46.8333 49.4522 46.46C49.8122 46.0733 49.9922 45.5267 49.9922 44.82V38H52.4922V44.84C52.4922 46.1867 52.0855 47.2533 51.2722 48.04C50.4589 48.8133 49.3655 49.2 47.9922 49.2ZM61.1844 49C60.131 49 59.3044 48.7067 58.7044 48.12C58.1177 47.5333 57.8244 46.7267 57.8244 45.7V40.26H54.8444V38H57.8244V34.9H60.3444V38H64.5644V40.26H60.3444V45.7C60.3444 46.3933 60.6844 46.74 61.3644 46.74H64.3644V49H61.1844ZM73.1766 49C72.1232 49 71.2966 48.7067 70.6966 48.12C70.1099 47.5333 69.8166 46.7267 69.8166 45.7V40.26H66.8366V38H69.8166V34.9H72.3366V38H76.5566V40.26H72.3366V45.7C72.3366 46.3933 72.6766 46.74 73.3566 46.74H76.3566V49H73.1766ZM83.9688 49.18C83.0354 49.18 82.2221 49.0067 81.5288 48.66C80.8488 48.3 80.3154 47.8 79.9288 47.16C79.5554 46.5067 79.3688 45.74 79.3688 44.86V42.14C79.3688 41.26 79.5554 40.5 79.9288 39.86C80.3154 39.2067 80.8488 38.7067 81.5288 38.36C82.2221 38 83.0354 37.82 83.9688 37.82C84.9154 37.82 85.7288 38 86.4088 38.36C87.0888 38.7067 87.6154 39.2067 87.9888 39.86C88.3754 40.5 88.5688 41.2533 88.5688 42.12V44.86C88.5688 45.74 88.3754 46.5067 87.9888 47.16C87.6154 47.8 87.0888 48.3 86.4088 48.66C85.7288 49.0067 84.9154 49.18 83.9688 49.18ZM83.9688 47C84.6354 47 85.1488 46.82 85.5088 46.46C85.8821 46.0867 86.0688 45.5533 86.0688 44.86V42.14C86.0688 41.4333 85.8821 40.9 85.5088 40.54C85.1488 40.18 84.6354 40 83.9688 40C83.3154 40 82.8021 40.18 82.4288 40.54C82.0554 40.9 81.8688 41.4333 81.8688 42.14V44.86C81.8688 45.5533 82.0554 46.0867 82.4288 46.46C82.8021 46.82 83.3154 47 83.9688 47ZM91.5009 49V38H93.9409V40.1H94.6209L93.9409 40.68C93.9409 39.7733 94.2009 39.0667 94.7209 38.56C95.2543 38.0533 95.9809 37.8 96.9009 37.8C97.9809 37.8 98.8409 38.16 99.4809 38.88C100.134 39.6 100.461 40.5667 100.461 41.78V49H97.9609V42.04C97.9609 41.3733 97.7876 40.86 97.4409 40.5C97.0943 40.14 96.6076 39.96 95.9809 39.96C95.3676 39.96 94.8809 40.1467 94.5209 40.52C94.1743 40.8933 94.0009 41.4267 94.0009 42.12V49H91.5009Z" fill="#66D9EF"/>
</svg>
