<svg width="168" height="508" viewBox="0 0 168 508" fill="none" xmlns="http://www.w3.org/2000/svg">
<rect x="0.5" y="0.5" width="167" height="507" rx="4.5" stroke="#8A38F5" stroke-dasharray="10 5"/>
<rect x="20" y="18" width="128" height="80" rx="24" fill="#272822" fill-opacity="0.9"/>
<rect x="20" y="18" width="128" height="80" rx="24" stroke="#F92672" stroke-width="3"/>
<path d="M54.94 65.2C54.0333 65.2 53.3133 64.9467 52.78 64.44C52.2467 63.92 51.98 63.2133 51.98 62.32L52.54 62.9H51.98V65H49.54V50.4H52.04V53.48L51.96 56.1H52.54L51.98 56.68C51.98 55.7867 52.2467 55.0867 52.78 54.58C53.3133 54.06 54.0333 53.8 54.94 53.8C56.0467 53.8 56.9333 54.18 57.6 54.94C58.2667 55.7 58.6 56.7267 58.6 58.02V61C58.6 62.28 58.2667 63.3 57.6 64.06C56.9333 64.82 56.0467 65.2 54.94 65.2ZM54.06 63.04C54.7 63.04 55.2 62.8533 55.56 62.48C55.92 62.1067 56.1 61.5733 56.1 60.88V58.12C56.1 57.4267 55.92 56.8933 55.56 56.52C55.2 56.1467 54.7 55.96 54.06 55.96C53.4333 55.96 52.94 56.1533 52.58 56.54C52.22 56.9133 52.04 57.44 52.04 58.12V60.88C52.04 61.56 52.22 62.0933 52.58 62.48C52.94 62.8533 53.4333 63.04 54.06 63.04ZM65.9922 65.2C64.5922 65.2 63.4922 64.8133 62.6922 64.04C61.8922 63.2533 61.4922 62.1867 61.4922 60.84V54H63.9922V60.82C63.9922 61.5267 64.1655 62.0733 64.5122 62.46C64.8589 62.8333 65.3522 63.02 65.9922 63.02C66.6189 63.02 67.1055 62.8333 67.4522 62.46C67.8122 62.0733 67.9922 61.5267 67.9922 60.82V54H70.4922V60.84C70.4922 62.1867 70.0855 63.2533 69.2722 64.04C68.4589 64.8133 67.3655 65.2 65.9922 65.2ZM79.1844 65C78.131 65 77.3044 64.7067 76.7044 64.12C76.1177 63.5333 75.8244 62.7267 75.8244 61.7V56.26H72.8444V54H75.8244V50.9H78.3444V54H82.5644V56.26H78.3444V61.7C78.3444 62.3933 78.6844 62.74 79.3644 62.74H82.3644V65H79.1844ZM91.1766 65C90.1232 65 89.2966 64.7067 88.6966 64.12C88.1099 63.5333 87.8166 62.7267 87.8166 61.7V56.26H84.8366V54H87.8166V50.9H90.3366V54H94.5566V56.26H90.3366V61.7C90.3366 62.3933 90.6766 62.74 91.3566 62.74H94.3566V65H91.1766ZM101.969 65.18C101.035 65.18 100.222 65.0067 99.5288 64.66C98.8488 64.3 98.3154 63.8 97.9288 63.16C97.5554 62.5067 97.3688 61.74 97.3688 60.86V58.14C97.3688 57.26 97.5554 56.5 97.9288 55.86C98.3154 55.2067 98.8488 54.7067 99.5288 54.36C100.222 54 101.035 53.82 101.969 53.82C102.915 53.82 103.729 54 104.409 54.36C105.089 54.7067 105.615 55.2067 105.989 55.86C106.375 56.5 106.569 57.2533 106.569 58.12V60.86C106.569 61.74 106.375 62.5067 105.989 63.16C105.615 63.8 105.089 64.3 104.409 64.66C103.729 65.0067 102.915 65.18 101.969 65.18ZM101.969 63C102.635 63 103.149 62.82 103.509 62.46C103.882 62.0867 104.069 61.5533 104.069 60.86V58.14C104.069 57.4333 103.882 56.9 103.509 56.54C103.149 56.18 102.635 56 101.969 56C101.315 56 100.802 56.18 100.429 56.54C100.055 56.9 99.8688 57.4333 99.8688 58.14V60.86C99.8688 61.5533 100.055 62.0867 100.429 62.46C100.802 62.82 101.315 63 101.969 63ZM109.501 65V54H111.941V56.1H112.621L111.941 56.68C111.941 55.7733 112.201 55.0667 112.721 54.56C113.254 54.0533 113.981 53.8 114.901 53.8C115.981 53.8 116.841 54.16 117.481 54.88C118.134 55.6 118.461 56.5667 118.461 57.78V65H115.961V58.04C115.961 57.3733 115.788 56.86 115.441 56.5C115.094 56.14 114.608 55.96 113.981 55.96C113.368 55.96 112.881 56.1467 112.521 56.52C112.174 56.8933 112.001 57.4267 112.001 58.12V65H109.501Z" fill="#F92672"/>
<rect x="20" y="116" width="128" height="80" rx="24" fill="#272822" fill-opacity="0.9"/>
<rect x="20" y="116" width="128" height="80" rx="24" stroke="#66D9EF" stroke-width="3"/>
<path d="M54.94 163.2C54.0333 163.2 53.3133 162.947 52.78 162.44C52.2467 161.92 51.98 161.213 51.98 160.32L52.54 160.9H51.98V163H49.54V148.4H52.04V151.48L51.96 154.1H52.54L51.98 154.68C51.98 153.787 52.2467 153.087 52.78 152.58C53.3133 152.06 54.0333 151.8 54.94 151.8C56.0467 151.8 56.9333 152.18 57.6 152.94C58.2667 153.7 58.6 154.727 58.6 156.02V159C58.6 160.28 58.2667 161.3 57.6 162.06C56.9333 162.82 56.0467 163.2 54.94 163.2ZM54.06 161.04C54.7 161.04 55.2 160.853 55.56 160.48C55.92 160.107 56.1 159.573 56.1 158.88V156.12C56.1 155.427 55.92 154.893 55.56 154.52C55.2 154.147 54.7 153.96 54.06 153.96C53.4333 153.96 52.94 154.153 52.58 154.54C52.22 154.913 52.04 155.44 52.04 156.12V158.88C52.04 159.56 52.22 160.093 52.58 160.48C52.94 160.853 53.4333 161.04 54.06 161.04ZM65.9922 163.2C64.5922 163.2 63.4922 162.813 62.6922 162.04C61.8922 161.253 61.4922 160.187 61.4922 158.84V152H63.9922V158.82C63.9922 159.527 64.1655 160.073 64.5122 160.46C64.8589 160.833 65.3522 161.02 65.9922 161.02C66.6189 161.02 67.1055 160.833 67.4522 160.46C67.8122 160.073 67.9922 159.527 67.9922 158.82V152H70.4922V158.84C70.4922 160.187 70.0855 161.253 69.2722 162.04C68.4589 162.813 67.3655 163.2 65.9922 163.2ZM79.1844 163C78.131 163 77.3044 162.707 76.7044 162.12C76.1177 161.533 75.8244 160.727 75.8244 159.7V154.26H72.8444V152H75.8244V148.9H78.3444V152H82.5644V154.26H78.3444V159.7C78.3444 160.393 78.6844 160.74 79.3644 160.74H82.3644V163H79.1844ZM91.1766 163C90.1232 163 89.2966 162.707 88.6966 162.12C88.1099 161.533 87.8166 160.727 87.8166 159.7V154.26H84.8366V152H87.8166V148.9H90.3366V152H94.5566V154.26H90.3366V159.7C90.3366 160.393 90.6766 160.74 91.3566 160.74H94.3566V163H91.1766ZM101.969 163.18C101.035 163.18 100.222 163.007 99.5288 162.66C98.8488 162.3 98.3154 161.8 97.9288 161.16C97.5554 160.507 97.3688 159.74 97.3688 158.86V156.14C97.3688 155.26 97.5554 154.5 97.9288 153.86C98.3154 153.207 98.8488 152.707 99.5288 152.36C100.222 152 101.035 151.82 101.969 151.82C102.915 151.82 103.729 152 104.409 152.36C105.089 152.707 105.615 153.207 105.989 153.86C106.375 154.5 106.569 155.253 106.569 156.12V158.86C106.569 159.74 106.375 160.507 105.989 161.16C105.615 161.8 105.089 162.3 104.409 162.66C103.729 163.007 102.915 163.18 101.969 163.18ZM101.969 161C102.635 161 103.149 160.82 103.509 160.46C103.882 160.087 104.069 159.553 104.069 158.86V156.14C104.069 155.433 103.882 154.9 103.509 154.54C103.149 154.18 102.635 154 101.969 154C101.315 154 100.802 154.18 100.429 154.54C100.055 154.9 99.8688 155.433 99.8688 156.14V158.86C99.8688 159.553 100.055 160.087 100.429 160.46C100.802 160.82 101.315 161 101.969 161ZM109.501 163V152H111.941V154.1H112.621L111.941 154.68C111.941 153.773 112.201 153.067 112.721 152.56C113.254 152.053 113.981 151.8 114.901 151.8C115.981 151.8 116.841 152.16 117.481 152.88C118.134 153.6 118.461 154.567 118.461 155.78V163H115.961V156.04C115.961 155.373 115.788 154.86 115.441 154.5C115.094 154.14 114.608 153.96 113.981 153.96C113.368 153.96 112.881 154.147 112.521 154.52C112.174 154.893 112.001 155.427 112.001 156.12V163H109.501Z" fill="#66D9EF"/>
<rect x="20" y="214" width="128" height="80" rx="24" fill="#272822" fill-opacity="0.9"/>
<rect x="20" y="214" width="128" height="80" rx="24" stroke="#A6E22E" stroke-width="3"/>
<path d="M54.94 261.2C54.0333 261.2 53.3133 260.947 52.78 260.44C52.2467 259.92 51.98 259.213 51.98 258.32L52.54 258.9H51.98V261H49.54V246.4H52.04V249.48L51.96 252.1H52.54L51.98 252.68C51.98 251.787 52.2467 251.087 52.78 250.58C53.3133 250.06 54.0333 249.8 54.94 249.8C56.0467 249.8 56.9333 250.18 57.6 250.94C58.2667 251.7 58.6 252.727 58.6 254.02V257C58.6 258.28 58.2667 259.3 57.6 260.06C56.9333 260.82 56.0467 261.2 54.94 261.2ZM54.06 259.04C54.7 259.04 55.2 258.853 55.56 258.48C55.92 258.107 56.1 257.573 56.1 256.88V254.12C56.1 253.427 55.92 252.893 55.56 252.52C55.2 252.147 54.7 251.96 54.06 251.96C53.4333 251.96 52.94 252.153 52.58 252.54C52.22 252.913 52.04 253.44 52.04 254.12V256.88C52.04 257.56 52.22 258.093 52.58 258.48C52.94 258.853 53.4333 259.04 54.06 259.04ZM65.9922 261.2C64.5922 261.2 63.4922 260.813 62.6922 260.04C61.8922 259.253 61.4922 258.187 61.4922 256.84V250H63.9922V256.82C63.9922 257.527 64.1655 258.073 64.5122 258.46C64.8589 258.833 65.3522 259.02 65.9922 259.02C66.6189 259.02 67.1055 258.833 67.4522 258.46C67.8122 258.073 67.9922 257.527 67.9922 256.82V250H70.4922V256.84C70.4922 258.187 70.0855 259.253 69.2722 260.04C68.4589 260.813 67.3655 261.2 65.9922 261.2ZM79.1844 261C78.131 261 77.3044 260.707 76.7044 260.12C76.1177 259.533 75.8244 258.727 75.8244 257.7V252.26H72.8444V250H75.8244V246.9H78.3444V250H82.5644V252.26H78.3444V257.7C78.3444 258.393 78.6844 258.74 79.3644 258.74H82.3644V261H79.1844ZM91.1766 261C90.1232 261 89.2966 260.707 88.6966 260.12C88.1099 259.533 87.8166 258.727 87.8166 257.7V252.26H84.8366V250H87.8166V246.9H90.3366V250H94.5566V252.26H90.3366V257.7C90.3366 258.393 90.6766 258.74 91.3566 258.74H94.3566V261H91.1766ZM101.969 261.18C101.035 261.18 100.222 261.007 99.5288 260.66C98.8488 260.3 98.3154 259.8 97.9288 259.16C97.5554 258.507 97.3688 257.74 97.3688 256.86V254.14C97.3688 253.26 97.5554 252.5 97.9288 251.86C98.3154 251.207 98.8488 250.707 99.5288 250.36C100.222 250 101.035 249.82 101.969 249.82C102.915 249.82 103.729 250 104.409 250.36C105.089 250.707 105.615 251.207 105.989 251.86C106.375 252.5 106.569 253.253 106.569 254.12V256.86C106.569 257.74 106.375 258.507 105.989 259.16C105.615 259.8 105.089 260.3 104.409 260.66C103.729 261.007 102.915 261.18 101.969 261.18ZM101.969 259C102.635 259 103.149 258.82 103.509 258.46C103.882 258.087 104.069 257.553 104.069 256.86V254.14C104.069 253.433 103.882 252.9 103.509 252.54C103.149 252.18 102.635 252 101.969 252C101.315 252 100.802 252.18 100.429 252.54C100.055 252.9 99.8688 253.433 99.8688 254.14V256.86C99.8688 257.553 100.055 258.087 100.429 258.46C100.802 258.82 101.315 259 101.969 259ZM109.501 261V250H111.941V252.1H112.621L111.941 252.68C111.941 251.773 112.201 251.067 112.721 250.56C113.254 250.053 113.981 249.8 114.901 249.8C115.981 249.8 116.841 250.16 117.481 250.88C118.134 251.6 118.461 252.567 118.461 253.78V261H115.961V254.04C115.961 253.373 115.788 252.86 115.441 252.5C115.094 252.14 114.608 251.96 113.981 251.96C113.368 251.96 112.881 252.147 112.521 252.52C112.174 252.893 112.001 253.427 112.001 254.12V261H109.501Z" fill="#A6E22E"/>
<rect x="20" y="312" width="128" height="80" rx="24" fill="#272822" fill-opacity="0.9"/>
<rect x="20" y="312" width="128" height="80" rx="24" stroke="#FD971F" stroke-width="3"/>
<path d="M54.94 359.2C54.0333 359.2 53.3133 358.947 52.78 358.44C52.2467 357.92 51.98 357.213 51.98 356.32L52.54 356.9H51.98V359H49.54V344.4H52.04V347.48L51.96 350.1H52.54L51.98 350.68C51.98 349.787 52.2467 349.087 52.78 348.58C53.3133 348.06 54.0333 347.8 54.94 347.8C56.0467 347.8 56.9333 348.18 57.6 348.94C58.2667 349.7 58.6 350.727 58.6 352.02V355C58.6 356.28 58.2667 357.3 57.6 358.06C56.9333 358.82 56.0467 359.2 54.94 359.2ZM54.06 357.04C54.7 357.04 55.2 356.853 55.56 356.48C55.92 356.107 56.1 355.573 56.1 354.88V352.12C56.1 351.427 55.92 350.893 55.56 350.52C55.2 350.147 54.7 349.96 54.06 349.96C53.4333 349.96 52.94 350.153 52.58 350.54C52.22 350.913 52.04 351.44 52.04 352.12V354.88C52.04 355.56 52.22 356.093 52.58 356.48C52.94 356.853 53.4333 357.04 54.06 357.04ZM65.9922 359.2C64.5922 359.2 63.4922 358.813 62.6922 358.04C61.8922 357.253 61.4922 356.187 61.4922 354.84V348H63.9922V354.82C63.9922 355.527 64.1655 356.073 64.5122 356.46C64.8589 356.833 65.3522 357.02 65.9922 357.02C66.6189 357.02 67.1055 356.833 67.4522 356.46C67.8122 356.073 67.9922 355.527 67.9922 354.82V348H70.4922V354.84C70.4922 356.187 70.0855 357.253 69.2722 358.04C68.4589 358.813 67.3655 359.2 65.9922 359.2ZM79.1844 359C78.131 359 77.3044 358.707 76.7044 358.12C76.1177 357.533 75.8244 356.727 75.8244 355.7V350.26H72.8444V348H75.8244V344.9H78.3444V348H82.5644V350.26H78.3444V355.7C78.3444 356.393 78.6844 356.74 79.3644 356.74H82.3644V359H79.1844ZM91.1766 359C90.1232 359 89.2966 358.707 88.6966 358.12C88.1099 357.533 87.8166 356.727 87.8166 355.7V350.26H84.8366V348H87.8166V344.9H90.3366V348H94.5566V350.26H90.3366V355.7C90.3366 356.393 90.6766 356.74 91.3566 356.74H94.3566V359H91.1766ZM101.969 359.18C101.035 359.18 100.222 359.007 99.5288 358.66C98.8488 358.3 98.3154 357.8 97.9288 357.16C97.5554 356.507 97.3688 355.74 97.3688 354.86V352.14C97.3688 351.26 97.5554 350.5 97.9288 349.86C98.3154 349.207 98.8488 348.707 99.5288 348.36C100.222 348 101.035 347.82 101.969 347.82C102.915 347.82 103.729 348 104.409 348.36C105.089 348.707 105.615 349.207 105.989 349.86C106.375 350.5 106.569 351.253 106.569 352.12V354.86C106.569 355.74 106.375 356.507 105.989 357.16C105.615 357.8 105.089 358.3 104.409 358.66C103.729 359.007 102.915 359.18 101.969 359.18ZM101.969 357C102.635 357 103.149 356.82 103.509 356.46C103.882 356.087 104.069 355.553 104.069 354.86V352.14C104.069 351.433 103.882 350.9 103.509 350.54C103.149 350.18 102.635 350 101.969 350C101.315 350 100.802 350.18 100.429 350.54C100.055 350.9 99.8688 351.433 99.8688 352.14V354.86C99.8688 355.553 100.055 356.087 100.429 356.46C100.802 356.82 101.315 357 101.969 357ZM109.501 359V348H111.941V350.1H112.621L111.941 350.68C111.941 349.773 112.201 349.067 112.721 348.56C113.254 348.053 113.981 347.8 114.901 347.8C115.981 347.8 116.841 348.16 117.481 348.88C118.134 349.6 118.461 350.567 118.461 351.78V359H115.961V352.04C115.961 351.373 115.788 350.86 115.441 350.5C115.094 350.14 114.608 349.96 113.981 349.96C113.368 349.96 112.881 350.147 112.521 350.52C112.174 350.893 112.001 351.427 112.001 352.12V359H109.501Z" fill="#FD971F"/>
<rect x="20" y="410" width="128" height="80" rx="24" fill="#272822" fill-opacity="0.9"/>
<rect x="20" y="410" width="128" height="80" rx="24" stroke="#AE81FF" stroke-width="3"/>
<path d="M54.94 457.2C54.0333 457.2 53.3133 456.947 52.78 456.44C52.2467 455.92 51.98 455.213 51.98 454.32L52.54 454.9H51.98V457H49.54V442.4H52.04V445.48L51.96 448.1H52.54L51.98 448.68C51.98 447.787 52.2467 447.087 52.78 446.58C53.3133 446.06 54.0333 445.8 54.94 445.8C56.0467 445.8 56.9333 446.18 57.6 446.94C58.2667 447.7 58.6 448.727 58.6 450.02V453C58.6 454.28 58.2667 455.3 57.6 456.06C56.9333 456.82 56.0467 457.2 54.94 457.2ZM54.06 455.04C54.7 455.04 55.2 454.853 55.56 454.48C55.92 454.107 56.1 453.573 56.1 452.88V450.12C56.1 449.427 55.92 448.893 55.56 448.52C55.2 448.147 54.7 447.96 54.06 447.96C53.4333 447.96 52.94 448.153 52.58 448.54C52.22 448.913 52.04 449.44 52.04 450.12V452.88C52.04 453.56 52.22 454.093 52.58 454.48C52.94 454.853 53.4333 455.04 54.06 455.04ZM65.9922 457.2C64.5922 457.2 63.4922 456.813 62.6922 456.04C61.8922 455.253 61.4922 454.187 61.4922 452.84V446H63.9922V452.82C63.9922 453.527 64.1655 454.073 64.5122 454.46C64.8589 454.833 65.3522 455.02 65.9922 455.02C66.6189 455.02 67.1055 454.833 67.4522 454.46C67.8122 454.073 67.9922 453.527 67.9922 452.82V446H70.4922V452.84C70.4922 454.187 70.0855 455.253 69.2722 456.04C68.4589 456.813 67.3655 457.2 65.9922 457.2ZM79.1844 457C78.131 457 77.3044 456.707 76.7044 456.12C76.1177 455.533 75.8244 454.727 75.8244 453.7V448.26H72.8444V446H75.8244V442.9H78.3444V446H82.5644V448.26H78.3444V453.7C78.3444 454.393 78.6844 454.74 79.3644 454.74H82.3644V457H79.1844ZM91.1766 457C90.1232 457 89.2966 456.707 88.6966 456.12C88.1099 455.533 87.8166 454.727 87.8166 453.7V448.26H84.8366V446H87.8166V442.9H90.3366V446H94.5566V448.26H90.3366V453.7C90.3366 454.393 90.6766 454.74 91.3566 454.74H94.3566V457H91.1766ZM101.969 457.18C101.035 457.18 100.222 457.007 99.5288 456.66C98.8488 456.3 98.3154 455.8 97.9288 455.16C97.5554 454.507 97.3688 453.74 97.3688 452.86V450.14C97.3688 449.26 97.5554 448.5 97.9288 447.86C98.3154 447.207 98.8488 446.707 99.5288 446.36C100.222 446 101.035 445.82 101.969 445.82C102.915 445.82 103.729 446 104.409 446.36C105.089 446.707 105.615 447.207 105.989 447.86C106.375 448.5 106.569 449.253 106.569 450.12V452.86C106.569 453.74 106.375 454.507 105.989 455.16C105.615 455.8 105.089 456.3 104.409 456.66C103.729 457.007 102.915 457.18 101.969 457.18ZM101.969 455C102.635 455 103.149 454.82 103.509 454.46C103.882 454.087 104.069 453.553 104.069 452.86V450.14C104.069 449.433 103.882 448.9 103.509 448.54C103.149 448.18 102.635 448 101.969 448C101.315 448 100.802 448.18 100.429 448.54C100.055 448.9 99.8688 449.433 99.8688 450.14V452.86C99.8688 453.553 100.055 454.087 100.429 454.46C100.802 454.82 101.315 455 101.969 455ZM109.501 457V446H111.941V448.1H112.621L111.941 448.68C111.941 447.773 112.201 447.067 112.721 446.56C113.254 446.053 113.981 445.8 114.901 445.8C115.981 445.8 116.841 446.16 117.481 446.88C118.134 447.6 118.461 448.567 118.461 449.78V457H115.961V450.04C115.961 449.373 115.788 448.86 115.441 448.5C115.094 448.14 114.608 447.96 113.981 447.96C113.368 447.96 112.881 448.147 112.521 448.52C112.174 448.893 112.001 449.427 112.001 450.12V457H109.501Z" fill="#AE81FF"/>
</svg>
