<svg width="99" height="99" viewBox="0 0 99 99" fill="none" xmlns="http://www.w3.org/2000/svg">
<path d="M49.5 28.875V20.625H61.875V24.75H66V28.875H70.125V33H74.25V37.125H78.375V49.5H70.125V41.25H66V37.125H61.875V33H57.75V28.875H49.5Z" fill="#66D9EF"/>
<path d="M57.75 41.25H49.5V49.5H57.75V41.25Z" fill="#66D9EF"/>
<path d="M94.875 33V49.5H86.625V33H82.5V28.875H78.375V24.75H74.25V20.625H70.125V16.5H66V12.375H49.5V4.125H66V8.25H74.25V12.375H78.375V16.5H82.5V20.625H86.625V24.75H90.75V33H94.875Z" fill="#66D9EF"/>
<path d="M90.75 70.125H94.875V82.5H90.75V90.75H86.625V94.875H66V90.75H49.5V86.625H41.25V82.5H37.125V78.375H33V74.25H28.875V70.125H24.75V66H20.625V61.875H16.5V57.75H12.375V49.5H8.25V33H4.125V12.375H8.25V8.25H16.5V4.125H28.875V8.25H33V12.375H37.125V20.625H41.25V33H37.125V37.125H33V49.5H37.125V53.625H41.25V57.75H45.375V61.875H49.5V66H61.875V61.875H66V57.75H78.375V61.875H86.625V66H90.75V70.125Z" fill="#66D9EF"/>
</svg>
