<svg width="135" height="135" viewBox="0 0 135 135" fill="none" xmlns="http://www.w3.org/2000/svg">
<rect x="2" y="2" width="131" height="131" rx="65.5" fill="#272822" fill-opacity="0.9"/>
<rect x="2" y="2" width="131" height="131" rx="65.5" stroke="#F8F8F2" stroke-width="3"/>
<path d="M56.5417 71.9583H61V76.4167H65.4584V80.875H69.9167V85.3333H74.375V89.7917H78.8334V94.25H83.2917V98.7083H78.8334V103.167H74.375V98.7083H69.9167V94.25H65.4584V89.7917H61V85.3333H56.5417V80.875H52.0834V76.4167H47.625V71.9583H43.1667V63.0417H47.625V58.5833H52.0834V54.125H56.5417V49.6667H61V45.2083H65.4584V40.75H69.9167V36.2917H74.375V31.8333H78.8334V36.2917H83.2917V40.75H78.8334V45.2083H74.375V49.6667H69.9167V54.125H65.4584V58.5833H61V63.0417H56.5417V71.9583Z" fill="#F8F8F2"/>
</svg>
